G04 EAGLE Gerber RS-274X export*
G75*
%MOMM*%
%FSLAX34Y34*%
%LPD*%
%INBottom Copper*%
%IPPOS*%
%AMOC8*
5,1,8,0,0,1.08239X$1,22.5*%
G01*
%ADD10C,1.422400*%
%ADD11P,1.732040X8X202.500000*%
%ADD12P,1.732040X8X292.500000*%
%ADD13P,1.732040X8X22.500000*%
%ADD14C,1.676400*%
%ADD15C,1.676400*%
%ADD16C,0.152400*%

G36*
X711290Y-76947D02*
X711290Y-76947D01*
X711381Y-76939D01*
X711411Y-76927D01*
X711443Y-76922D01*
X711523Y-76879D01*
X711607Y-76843D01*
X711639Y-76817D01*
X711660Y-76806D01*
X711682Y-76783D01*
X711738Y-76738D01*
X787938Y-538D01*
X787991Y-464D01*
X788051Y-395D01*
X788063Y-365D01*
X788082Y-339D01*
X788109Y-252D01*
X788143Y-167D01*
X788147Y-126D01*
X788154Y-103D01*
X788153Y-71D01*
X788161Y0D01*
X788161Y431800D01*
X788147Y431890D01*
X788139Y431981D01*
X788127Y432011D01*
X788122Y432043D01*
X788079Y432123D01*
X788043Y432207D01*
X788017Y432239D01*
X788006Y432260D01*
X787983Y432282D01*
X787938Y432338D01*
X635538Y584738D01*
X635464Y584791D01*
X635395Y584851D01*
X635365Y584863D01*
X635339Y584882D01*
X635252Y584909D01*
X635167Y584943D01*
X635126Y584947D01*
X635103Y584954D01*
X635071Y584953D01*
X635000Y584961D01*
X76200Y584961D01*
X76110Y584947D01*
X76019Y584939D01*
X75989Y584927D01*
X75957Y584922D01*
X75877Y584879D01*
X75793Y584843D01*
X75761Y584817D01*
X75740Y584806D01*
X75718Y584783D01*
X75662Y584738D01*
X-25938Y483138D01*
X-25991Y483064D01*
X-26051Y482995D01*
X-26063Y482965D01*
X-26082Y482939D01*
X-26109Y482852D01*
X-26143Y482767D01*
X-26147Y482726D01*
X-26154Y482703D01*
X-26153Y482671D01*
X-26161Y482600D01*
X-26161Y-25400D01*
X-26147Y-25490D01*
X-26139Y-25581D01*
X-26127Y-25611D01*
X-26122Y-25643D01*
X-26079Y-25723D01*
X-26043Y-25807D01*
X-26017Y-25839D01*
X-26006Y-25860D01*
X-25983Y-25882D01*
X-25938Y-25938D01*
X24862Y-76738D01*
X24936Y-76791D01*
X25005Y-76851D01*
X25035Y-76863D01*
X25061Y-76882D01*
X25148Y-76909D01*
X25233Y-76943D01*
X25274Y-76947D01*
X25297Y-76954D01*
X25329Y-76953D01*
X25400Y-76961D01*
X711200Y-76961D01*
X711290Y-76947D01*
G37*
%LPC*%
G36*
X643902Y4511D02*
X643902Y4511D01*
X643891Y4510D01*
X643873Y4513D01*
X642064Y4583D01*
X642003Y4610D01*
X641954Y4624D01*
X641909Y4647D01*
X641792Y4669D01*
X641766Y4676D01*
X641757Y4675D01*
X641744Y4678D01*
X12337Y53337D01*
X12315Y53335D01*
X12278Y53339D01*
X10679Y53339D01*
X10417Y53448D01*
X10382Y53456D01*
X10349Y53472D01*
X10184Y53503D01*
X9902Y53525D01*
X8475Y54250D01*
X8455Y54256D01*
X8422Y54274D01*
X6944Y54886D01*
X6744Y55087D01*
X6714Y55108D01*
X6691Y55135D01*
X6550Y55227D01*
X6298Y55355D01*
X5257Y56570D01*
X5240Y56584D01*
X5217Y56613D01*
X4086Y57744D01*
X3978Y58006D01*
X3959Y58037D01*
X3947Y58072D01*
X3853Y58210D01*
X3668Y58426D01*
X3172Y59946D01*
X3162Y59965D01*
X3151Y60001D01*
X2539Y61479D01*
X2539Y61762D01*
X2533Y61798D01*
X2536Y61834D01*
X2502Y61999D01*
X2414Y62268D01*
X2537Y63863D01*
X2535Y63885D01*
X2539Y63922D01*
X2539Y455412D01*
X2539Y455416D01*
X2539Y455421D01*
X2516Y457403D01*
X2521Y457416D01*
X2527Y457467D01*
X3288Y459305D01*
X3288Y459308D01*
X3291Y459313D01*
X4028Y461154D01*
X4038Y461164D01*
X4063Y461209D01*
X5470Y462616D01*
X5472Y462619D01*
X5476Y462623D01*
X6860Y464040D01*
X6873Y464046D01*
X6914Y464078D01*
X8752Y464839D01*
X8755Y464841D01*
X8760Y464843D01*
X216162Y553651D01*
X216190Y553669D01*
X216222Y553680D01*
X216360Y553775D01*
X216606Y553987D01*
X218086Y554478D01*
X218107Y554489D01*
X218146Y554501D01*
X219580Y555115D01*
X219904Y555118D01*
X219937Y555124D01*
X219971Y555122D01*
X220135Y555157D01*
X220442Y555259D01*
X221998Y555146D01*
X222021Y555148D01*
X222062Y555144D01*
X223622Y555163D01*
X223923Y555042D01*
X223956Y555035D01*
X223986Y555020D01*
X224151Y554990D01*
X499129Y535000D01*
X499163Y535003D01*
X499196Y534998D01*
X499362Y535019D01*
X499677Y535095D01*
X501218Y534851D01*
X501241Y534851D01*
X501281Y534844D01*
X502837Y534731D01*
X503127Y534585D01*
X503159Y534575D01*
X503188Y534558D01*
X503350Y534514D01*
X503670Y534463D01*
X505000Y533648D01*
X505021Y533639D01*
X505056Y533617D01*
X506450Y532917D01*
X506662Y532672D01*
X506688Y532650D01*
X506707Y532623D01*
X506840Y532521D01*
X681719Y425373D01*
X681720Y425372D01*
X681721Y425372D01*
X681873Y425301D01*
X682625Y425047D01*
X683450Y424325D01*
X683477Y424308D01*
X683554Y424249D01*
X683875Y424052D01*
X684489Y423676D01*
X684955Y423034D01*
X684956Y423033D01*
X684957Y423032D01*
X685070Y422908D01*
X685667Y422386D01*
X686154Y421403D01*
X686172Y421376D01*
X686220Y421293D01*
X686865Y420406D01*
X687050Y419634D01*
X687051Y419633D01*
X687051Y419632D01*
X687108Y419474D01*
X687460Y418763D01*
X687533Y417668D01*
X687541Y417637D01*
X687553Y417542D01*
X687809Y416475D01*
X687685Y415691D01*
X687685Y415690D01*
X687684Y415689D01*
X687678Y415537D01*
X687677Y415528D01*
X687677Y415526D01*
X687677Y415521D01*
X710860Y69076D01*
X710866Y69051D01*
X710865Y69025D01*
X710905Y68863D01*
X711058Y68449D01*
X711003Y67005D01*
X711006Y66977D01*
X711004Y66925D01*
X711100Y65483D01*
X710959Y65065D01*
X710955Y65040D01*
X710944Y65016D01*
X710919Y64851D01*
X710902Y64410D01*
X710298Y63097D01*
X710291Y63070D01*
X710269Y63023D01*
X709806Y61654D01*
X709516Y61321D01*
X709502Y61300D01*
X709484Y61282D01*
X709471Y61261D01*
X709463Y61253D01*
X709454Y61233D01*
X709397Y61138D01*
X709213Y60738D01*
X708152Y59756D01*
X708135Y59734D01*
X708096Y59699D01*
X707145Y58611D01*
X706750Y58415D01*
X706729Y58400D01*
X706705Y58391D01*
X706570Y58291D01*
X652812Y8529D01*
X652781Y8489D01*
X652742Y8455D01*
X652677Y8356D01*
X652661Y8335D01*
X652658Y8326D01*
X652650Y8315D01*
X652620Y8255D01*
X651245Y7078D01*
X651238Y7069D01*
X651223Y7058D01*
X649895Y5828D01*
X649832Y5805D01*
X649788Y5780D01*
X649739Y5764D01*
X649641Y5697D01*
X649618Y5684D01*
X649612Y5677D01*
X649601Y5669D01*
X649550Y5626D01*
X647829Y5064D01*
X647819Y5059D01*
X647801Y5054D01*
X646103Y4427D01*
X646037Y4429D01*
X645986Y4423D01*
X645935Y4426D01*
X645819Y4402D01*
X645793Y4399D01*
X645784Y4395D01*
X645771Y4392D01*
X645707Y4372D01*
X643902Y4511D01*
G37*
%LPD*%
G36*
X640606Y25165D02*
X640606Y25165D01*
X640711Y25169D01*
X640728Y25176D01*
X640745Y25177D01*
X640842Y25219D01*
X640941Y25257D01*
X640958Y25270D01*
X640971Y25275D01*
X640994Y25296D01*
X641076Y25357D01*
X690099Y70736D01*
X690104Y70742D01*
X690110Y70747D01*
X690179Y70839D01*
X690250Y70930D01*
X690252Y70937D01*
X690257Y70944D01*
X690293Y71054D01*
X690331Y71162D01*
X690331Y71170D01*
X690334Y71178D01*
X690341Y71345D01*
X667696Y409755D01*
X667689Y409787D01*
X667689Y409819D01*
X667661Y409906D01*
X667640Y409995D01*
X667623Y410022D01*
X667613Y410053D01*
X667559Y410127D01*
X667511Y410204D01*
X667486Y410225D01*
X667467Y410251D01*
X667334Y410354D01*
X497041Y514692D01*
X496951Y514729D01*
X496864Y514771D01*
X496832Y514777D01*
X496814Y514785D01*
X496781Y514787D01*
X496699Y514802D01*
X223634Y534652D01*
X223537Y534643D01*
X223440Y534641D01*
X223409Y534632D01*
X223389Y534630D01*
X223359Y534617D01*
X223279Y534593D01*
X23322Y448972D01*
X23228Y448912D01*
X23131Y448854D01*
X23124Y448846D01*
X23115Y448840D01*
X23044Y448753D01*
X22971Y448668D01*
X22967Y448657D01*
X22960Y448649D01*
X22922Y448544D01*
X22879Y448439D01*
X22878Y448426D01*
X22875Y448418D01*
X22874Y448393D01*
X22861Y448273D01*
X22861Y73610D01*
X22879Y73498D01*
X22895Y73386D01*
X22899Y73377D01*
X22900Y73367D01*
X22953Y73268D01*
X23004Y73166D01*
X23011Y73159D01*
X23016Y73150D01*
X23097Y73072D01*
X23178Y72992D01*
X23187Y72987D01*
X23194Y72981D01*
X23297Y72933D01*
X23399Y72882D01*
X23410Y72880D01*
X23417Y72877D01*
X23441Y72874D01*
X23563Y72851D01*
X640500Y25156D01*
X640606Y25165D01*
G37*
%LPC*%
G36*
X569529Y45211D02*
X569529Y45211D01*
X565888Y46719D01*
X563101Y49506D01*
X561593Y53147D01*
X561593Y73853D01*
X563101Y77494D01*
X565888Y80281D01*
X569529Y81789D01*
X573471Y81789D01*
X577112Y80281D01*
X579899Y77494D01*
X579941Y77392D01*
X579992Y77309D01*
X580038Y77223D01*
X580057Y77205D01*
X580070Y77183D01*
X580145Y77121D01*
X580216Y77054D01*
X580240Y77043D01*
X580260Y77026D01*
X580351Y76991D01*
X580439Y76950D01*
X580465Y76947D01*
X580489Y76938D01*
X580587Y76934D01*
X580683Y76923D01*
X580709Y76928D01*
X580735Y76927D01*
X580829Y76955D01*
X580924Y76975D01*
X580946Y76989D01*
X580971Y76996D01*
X581051Y77051D01*
X581135Y77101D01*
X581152Y77121D01*
X581173Y77136D01*
X581231Y77214D01*
X581295Y77288D01*
X581305Y77313D01*
X581320Y77334D01*
X581350Y77426D01*
X581387Y77516D01*
X581390Y77549D01*
X581396Y77567D01*
X581396Y77600D01*
X581405Y77683D01*
X581405Y186875D01*
X581483Y186953D01*
X581511Y186992D01*
X581546Y187024D01*
X581582Y187091D01*
X581626Y187152D01*
X581640Y187198D01*
X581663Y187240D01*
X581676Y187315D01*
X581699Y187388D01*
X581697Y187435D01*
X581706Y187483D01*
X581694Y187558D01*
X581692Y187633D01*
X581676Y187679D01*
X581669Y187726D01*
X581634Y187793D01*
X581608Y187864D01*
X581578Y187902D01*
X581556Y187945D01*
X581502Y187997D01*
X581454Y188056D01*
X581414Y188082D01*
X581379Y188116D01*
X581311Y188148D01*
X581247Y188189D01*
X581201Y188201D01*
X581157Y188222D01*
X581082Y188231D01*
X581009Y188250D01*
X580961Y188246D01*
X580913Y188252D01*
X580786Y188232D01*
X580763Y188230D01*
X580757Y188228D01*
X580747Y188226D01*
X575011Y186689D01*
X567989Y186689D01*
X561205Y188507D01*
X555124Y192018D01*
X550158Y196984D01*
X548077Y200588D01*
X548002Y200680D01*
X547928Y200773D01*
X547924Y200775D01*
X547921Y200778D01*
X547821Y200841D01*
X547721Y200906D01*
X547717Y200907D01*
X547713Y200909D01*
X547597Y200937D01*
X547482Y200966D01*
X547478Y200966D01*
X547474Y200967D01*
X547355Y200956D01*
X547237Y200947D01*
X547233Y200945D01*
X547229Y200945D01*
X547118Y200896D01*
X547011Y200851D01*
X547007Y200847D01*
X547004Y200846D01*
X546993Y200837D01*
X546880Y200746D01*
X521647Y175513D01*
X519753Y175513D01*
X454396Y240870D01*
X454358Y240897D01*
X454327Y240931D01*
X454259Y240969D01*
X454196Y241014D01*
X454152Y241027D01*
X454112Y241050D01*
X454035Y241063D01*
X453961Y241086D01*
X453915Y241085D01*
X453870Y241093D01*
X453793Y241082D01*
X453715Y241080D01*
X453672Y241064D01*
X453626Y241057D01*
X453557Y241022D01*
X453484Y240995D01*
X453448Y240967D01*
X453407Y240946D01*
X453353Y240890D01*
X453292Y240842D01*
X453267Y240803D01*
X453235Y240770D01*
X453169Y240651D01*
X453159Y240635D01*
X453158Y240630D01*
X453154Y240623D01*
X452899Y240006D01*
X450112Y237219D01*
X446471Y235711D01*
X442529Y235711D01*
X438888Y237219D01*
X436101Y240006D01*
X434593Y243647D01*
X434593Y264353D01*
X436101Y267994D01*
X438888Y270781D01*
X442529Y272289D01*
X446471Y272289D01*
X450112Y270781D01*
X452899Y267994D01*
X454407Y264353D01*
X454407Y247643D01*
X454421Y247552D01*
X454429Y247462D01*
X454441Y247432D01*
X454446Y247400D01*
X454489Y247319D01*
X454525Y247235D01*
X454551Y247203D01*
X454562Y247182D01*
X454585Y247160D01*
X454630Y247104D01*
X520162Y181572D01*
X520178Y181561D01*
X520190Y181545D01*
X520278Y181489D01*
X520361Y181429D01*
X520380Y181423D01*
X520397Y181412D01*
X520498Y181387D01*
X520597Y181356D01*
X520616Y181357D01*
X520636Y181352D01*
X520739Y181360D01*
X520842Y181363D01*
X520861Y181370D01*
X520881Y181371D01*
X520976Y181411D01*
X521073Y181447D01*
X521089Y181460D01*
X521107Y181467D01*
X521238Y181572D01*
X542328Y202662D01*
X542339Y202678D01*
X542355Y202690D01*
X542385Y202738D01*
X542398Y202751D01*
X542408Y202773D01*
X542411Y202778D01*
X542471Y202861D01*
X542477Y202880D01*
X542488Y202897D01*
X542513Y202998D01*
X542544Y203097D01*
X542543Y203116D01*
X542548Y203136D01*
X542540Y203239D01*
X542537Y203342D01*
X542530Y203361D01*
X542529Y203381D01*
X542489Y203476D01*
X542453Y203573D01*
X542440Y203589D01*
X542433Y203607D01*
X542328Y203738D01*
X361257Y384809D01*
X361241Y384821D01*
X361228Y384836D01*
X361141Y384892D01*
X361057Y384953D01*
X361038Y384958D01*
X361022Y384969D01*
X360921Y384995D01*
X360822Y385025D01*
X360802Y385024D01*
X360783Y385029D01*
X360680Y385021D01*
X360576Y385019D01*
X360558Y385012D01*
X360538Y385010D01*
X360443Y384970D01*
X360345Y384934D01*
X360330Y384922D01*
X360311Y384914D01*
X360180Y384809D01*
X359546Y384174D01*
X358648Y384174D01*
X358628Y384171D01*
X358609Y384173D01*
X358507Y384151D01*
X358405Y384135D01*
X358388Y384125D01*
X358368Y384121D01*
X358279Y384068D01*
X358188Y384019D01*
X358174Y384005D01*
X358157Y383995D01*
X358090Y383916D01*
X358018Y383841D01*
X358010Y383823D01*
X357997Y383808D01*
X357958Y383712D01*
X357915Y383618D01*
X357913Y383598D01*
X357905Y383580D01*
X357887Y383413D01*
X357887Y327784D01*
X357906Y327670D01*
X357923Y327553D01*
X357925Y327548D01*
X357926Y327542D01*
X357981Y327439D01*
X358034Y327334D01*
X358039Y327330D01*
X358042Y327324D01*
X358126Y327244D01*
X358210Y327162D01*
X358216Y327158D01*
X358220Y327155D01*
X358237Y327147D01*
X358357Y327081D01*
X361212Y325899D01*
X363999Y323112D01*
X365507Y319471D01*
X365507Y315529D01*
X364324Y312674D01*
X364297Y312561D01*
X364269Y312447D01*
X364269Y312441D01*
X364268Y312435D01*
X364279Y312318D01*
X364288Y312202D01*
X364290Y312196D01*
X364291Y312190D01*
X364339Y312082D01*
X364384Y311976D01*
X364389Y311970D01*
X364391Y311965D01*
X364404Y311952D01*
X364489Y311845D01*
X409204Y267130D01*
X409242Y267103D01*
X409273Y267069D01*
X409341Y267031D01*
X409404Y266986D01*
X409448Y266973D01*
X409488Y266950D01*
X409565Y266937D01*
X409639Y266914D01*
X409685Y266915D01*
X409730Y266907D01*
X409807Y266918D01*
X409885Y266920D01*
X409928Y266936D01*
X409974Y266943D01*
X410043Y266978D01*
X410116Y267005D01*
X410152Y267033D01*
X410193Y267054D01*
X410247Y267110D01*
X410308Y267158D01*
X410333Y267197D01*
X410365Y267230D01*
X410431Y267349D01*
X410441Y267365D01*
X410442Y267370D01*
X410446Y267377D01*
X410701Y267994D01*
X413488Y270781D01*
X417129Y272289D01*
X421071Y272289D01*
X424712Y270781D01*
X427499Y267994D01*
X429007Y264353D01*
X429007Y243647D01*
X427499Y240006D01*
X424712Y237219D01*
X421071Y235711D01*
X417129Y235711D01*
X413488Y237219D01*
X410701Y240006D01*
X409193Y243647D01*
X409193Y260357D01*
X409179Y260448D01*
X409171Y260538D01*
X409159Y260568D01*
X409154Y260600D01*
X409111Y260681D01*
X409075Y260765D01*
X409049Y260797D01*
X409038Y260818D01*
X409015Y260840D01*
X408970Y260896D01*
X404906Y264960D01*
X404848Y265002D01*
X404796Y265051D01*
X404749Y265073D01*
X404707Y265103D01*
X404638Y265124D01*
X404573Y265155D01*
X404521Y265160D01*
X404471Y265176D01*
X404400Y265174D01*
X404329Y265182D01*
X404278Y265171D01*
X404226Y265169D01*
X404158Y265145D01*
X404088Y265130D01*
X404043Y265103D01*
X403995Y265085D01*
X403939Y265040D01*
X403877Y265003D01*
X403843Y264964D01*
X403803Y264931D01*
X403764Y264871D01*
X403717Y264816D01*
X403698Y264768D01*
X403670Y264724D01*
X403652Y264655D01*
X403625Y264588D01*
X403617Y264517D01*
X403609Y264486D01*
X403611Y264462D01*
X403607Y264422D01*
X403607Y243647D01*
X402099Y240006D01*
X399312Y237219D01*
X395671Y235711D01*
X391729Y235711D01*
X388088Y237219D01*
X385301Y240006D01*
X383793Y243647D01*
X383793Y264353D01*
X385301Y267994D01*
X388088Y270781D01*
X391729Y272289D01*
X395740Y272289D01*
X395810Y272300D01*
X395882Y272302D01*
X395931Y272320D01*
X395982Y272328D01*
X396046Y272362D01*
X396113Y272387D01*
X396154Y272419D01*
X396200Y272444D01*
X396249Y272495D01*
X396305Y272540D01*
X396333Y272584D01*
X396369Y272622D01*
X396399Y272687D01*
X396438Y272747D01*
X396451Y272798D01*
X396473Y272845D01*
X396481Y272916D01*
X396498Y272986D01*
X396494Y273038D01*
X396500Y273089D01*
X396485Y273160D01*
X396479Y273231D01*
X396459Y273279D01*
X396448Y273330D01*
X396411Y273391D01*
X396383Y273457D01*
X396338Y273513D01*
X396321Y273541D01*
X396304Y273556D01*
X396278Y273588D01*
X361255Y308611D01*
X361161Y308678D01*
X361067Y308749D01*
X361061Y308751D01*
X361055Y308754D01*
X360945Y308789D01*
X360833Y308825D01*
X360826Y308825D01*
X360820Y308827D01*
X360704Y308824D01*
X360587Y308823D01*
X360580Y308821D01*
X360575Y308820D01*
X360557Y308814D01*
X360426Y308776D01*
X358357Y307919D01*
X358257Y307857D01*
X358157Y307797D01*
X358153Y307793D01*
X358148Y307789D01*
X358073Y307700D01*
X357997Y307610D01*
X357995Y307605D01*
X357991Y307600D01*
X357949Y307492D01*
X357905Y307382D01*
X357904Y307375D01*
X357903Y307370D01*
X357902Y307352D01*
X357887Y307216D01*
X357887Y247402D01*
X357888Y247396D01*
X357887Y247387D01*
X357905Y246444D01*
X357238Y245777D01*
X357235Y245772D01*
X357228Y245767D01*
X284068Y169692D01*
X284032Y169639D01*
X283987Y169592D01*
X283962Y169538D01*
X283929Y169489D01*
X283911Y169427D01*
X283884Y169369D01*
X283877Y169310D01*
X283861Y169253D01*
X283864Y169188D01*
X283857Y169125D01*
X283869Y169066D01*
X283872Y169007D01*
X283895Y168947D01*
X283909Y168884D01*
X283939Y168833D01*
X283961Y168778D01*
X284002Y168728D01*
X284035Y168673D01*
X284080Y168634D01*
X284118Y168589D01*
X284173Y168555D01*
X284222Y168513D01*
X284277Y168491D01*
X284328Y168460D01*
X284390Y168445D01*
X284450Y168421D01*
X284535Y168412D01*
X284567Y168404D01*
X284586Y168406D01*
X284617Y168403D01*
X293047Y168403D01*
X294387Y167063D01*
X294387Y137287D01*
X294390Y137267D01*
X294388Y137248D01*
X294410Y137146D01*
X294426Y137044D01*
X294436Y137027D01*
X294440Y137007D01*
X294493Y136918D01*
X294542Y136827D01*
X294556Y136813D01*
X294566Y136796D01*
X294645Y136729D01*
X294720Y136657D01*
X294738Y136649D01*
X294753Y136636D01*
X294849Y136597D01*
X294943Y136554D01*
X294963Y136552D01*
X294981Y136544D01*
X295148Y136526D01*
X296046Y136526D01*
X301626Y130946D01*
X301626Y123054D01*
X296046Y117474D01*
X288154Y117474D01*
X282574Y123054D01*
X282574Y130946D01*
X288154Y136526D01*
X289052Y136526D01*
X289072Y136529D01*
X289091Y136527D01*
X289193Y136549D01*
X289295Y136565D01*
X289312Y136575D01*
X289332Y136579D01*
X289421Y136632D01*
X289512Y136681D01*
X289526Y136695D01*
X289543Y136705D01*
X289610Y136784D01*
X289682Y136859D01*
X289690Y136877D01*
X289703Y136892D01*
X289742Y136988D01*
X289785Y137082D01*
X289787Y137102D01*
X289795Y137120D01*
X289813Y137287D01*
X289813Y163068D01*
X289810Y163088D01*
X289812Y163107D01*
X289790Y163209D01*
X289774Y163311D01*
X289764Y163328D01*
X289760Y163348D01*
X289707Y163437D01*
X289658Y163528D01*
X289644Y163542D01*
X289634Y163559D01*
X289555Y163626D01*
X289480Y163698D01*
X289462Y163706D01*
X289447Y163719D01*
X289351Y163758D01*
X289257Y163801D01*
X289237Y163803D01*
X289219Y163811D01*
X289052Y163829D01*
X278755Y163829D01*
X278657Y163813D01*
X278559Y163804D01*
X278536Y163794D01*
X278512Y163790D01*
X278425Y163743D01*
X278335Y163703D01*
X278311Y163683D01*
X278294Y163674D01*
X278272Y163651D01*
X278206Y163596D01*
X211995Y94747D01*
X211933Y94657D01*
X211868Y94569D01*
X211863Y94555D01*
X211855Y94544D01*
X211825Y94439D01*
X211791Y94335D01*
X211791Y94321D01*
X211788Y94308D01*
X211793Y94198D01*
X211794Y94089D01*
X211798Y94073D01*
X211799Y94062D01*
X211809Y94035D01*
X211840Y93928D01*
X213107Y90871D01*
X213107Y86929D01*
X211599Y83288D01*
X208812Y80501D01*
X205171Y78993D01*
X201229Y78993D01*
X197588Y80501D01*
X194801Y83288D01*
X193293Y86929D01*
X193293Y90871D01*
X194801Y94512D01*
X197588Y97299D01*
X201229Y98807D01*
X205171Y98807D01*
X207826Y97707D01*
X207827Y97707D01*
X207828Y97706D01*
X207951Y97678D01*
X208065Y97651D01*
X208066Y97651D01*
X208068Y97651D01*
X208193Y97663D01*
X208310Y97674D01*
X208311Y97674D01*
X208312Y97674D01*
X208425Y97725D01*
X208535Y97774D01*
X208536Y97775D01*
X208537Y97775D01*
X208666Y97883D01*
X270846Y162540D01*
X270882Y162593D01*
X270927Y162640D01*
X270952Y162694D01*
X270985Y162743D01*
X271003Y162805D01*
X271030Y162863D01*
X271037Y162922D01*
X271053Y162979D01*
X271050Y163044D01*
X271057Y163107D01*
X271045Y163166D01*
X271042Y163225D01*
X271019Y163285D01*
X271005Y163348D01*
X270975Y163399D01*
X270953Y163454D01*
X270912Y163504D01*
X270879Y163559D01*
X270834Y163598D01*
X270796Y163643D01*
X270741Y163677D01*
X270692Y163719D01*
X270637Y163741D01*
X270586Y163772D01*
X270524Y163787D01*
X270464Y163811D01*
X270379Y163820D01*
X270347Y163828D01*
X270328Y163826D01*
X270297Y163829D01*
X253053Y163829D01*
X251713Y165169D01*
X251713Y307216D01*
X251694Y307330D01*
X251677Y307447D01*
X251675Y307452D01*
X251674Y307458D01*
X251619Y307561D01*
X251566Y307666D01*
X251561Y307670D01*
X251558Y307676D01*
X251474Y307756D01*
X251390Y307838D01*
X251384Y307842D01*
X251380Y307845D01*
X251363Y307853D01*
X251243Y307919D01*
X248388Y309101D01*
X245601Y311888D01*
X244093Y315529D01*
X244093Y319471D01*
X245601Y323112D01*
X248388Y325899D01*
X252029Y327407D01*
X255971Y327407D01*
X259612Y325899D01*
X262399Y323112D01*
X263907Y319471D01*
X263907Y315529D01*
X262399Y311888D01*
X259612Y309101D01*
X256757Y307919D01*
X256657Y307857D01*
X256557Y307797D01*
X256553Y307793D01*
X256548Y307789D01*
X256473Y307699D01*
X256397Y307610D01*
X256395Y307605D01*
X256391Y307600D01*
X256349Y307491D01*
X256305Y307382D01*
X256304Y307375D01*
X256303Y307370D01*
X256302Y307352D01*
X256287Y307216D01*
X256287Y169164D01*
X256290Y169144D01*
X256288Y169125D01*
X256310Y169023D01*
X256326Y168921D01*
X256336Y168904D01*
X256340Y168884D01*
X256393Y168795D01*
X256442Y168704D01*
X256456Y168690D01*
X256466Y168673D01*
X256545Y168606D01*
X256620Y168534D01*
X256638Y168526D01*
X256653Y168513D01*
X256749Y168474D01*
X256843Y168431D01*
X256863Y168429D01*
X256881Y168421D01*
X257048Y168403D01*
X276159Y168403D01*
X276257Y168419D01*
X276355Y168428D01*
X276378Y168438D01*
X276402Y168442D01*
X276489Y168489D01*
X276579Y168529D01*
X276603Y168549D01*
X276620Y168558D01*
X276642Y168581D01*
X276708Y168636D01*
X353101Y248073D01*
X353148Y248142D01*
X353203Y248206D01*
X353218Y248243D01*
X353240Y248275D01*
X353263Y248356D01*
X353295Y248434D01*
X353301Y248486D01*
X353308Y248512D01*
X353307Y248542D01*
X353313Y248601D01*
X353313Y307216D01*
X353294Y307330D01*
X353277Y307447D01*
X353275Y307452D01*
X353274Y307458D01*
X353219Y307561D01*
X353166Y307666D01*
X353161Y307670D01*
X353158Y307676D01*
X353074Y307756D01*
X352990Y307838D01*
X352984Y307842D01*
X352980Y307845D01*
X352963Y307853D01*
X352843Y307919D01*
X349988Y309101D01*
X347201Y311888D01*
X345693Y315529D01*
X345693Y319471D01*
X346876Y322326D01*
X346903Y322439D01*
X346931Y322553D01*
X346931Y322559D01*
X346932Y322565D01*
X346921Y322682D01*
X346912Y322798D01*
X346910Y322804D01*
X346909Y322810D01*
X346861Y322918D01*
X346816Y323024D01*
X346811Y323030D01*
X346809Y323035D01*
X346796Y323048D01*
X346711Y323155D01*
X327913Y341953D01*
X327913Y383413D01*
X327910Y383433D01*
X327912Y383452D01*
X327890Y383554D01*
X327874Y383656D01*
X327864Y383673D01*
X327860Y383693D01*
X327807Y383782D01*
X327758Y383873D01*
X327744Y383887D01*
X327734Y383904D01*
X327655Y383971D01*
X327580Y384043D01*
X327562Y384051D01*
X327547Y384064D01*
X327451Y384103D01*
X327357Y384146D01*
X327337Y384148D01*
X327319Y384156D01*
X327152Y384174D01*
X326254Y384174D01*
X320674Y389754D01*
X320674Y397646D01*
X326254Y403226D01*
X334146Y403226D01*
X339726Y397646D01*
X339726Y389754D01*
X334146Y384174D01*
X333248Y384174D01*
X333228Y384171D01*
X333209Y384173D01*
X333107Y384151D01*
X333005Y384135D01*
X332988Y384125D01*
X332968Y384121D01*
X332879Y384068D01*
X332788Y384019D01*
X332774Y384005D01*
X332757Y383995D01*
X332690Y383916D01*
X332618Y383841D01*
X332610Y383823D01*
X332597Y383808D01*
X332558Y383712D01*
X332515Y383618D01*
X332513Y383598D01*
X332505Y383580D01*
X332487Y383413D01*
X332487Y344163D01*
X332501Y344072D01*
X332509Y343982D01*
X332521Y343952D01*
X332526Y343920D01*
X332569Y343839D01*
X332605Y343755D01*
X332631Y343723D01*
X332642Y343702D01*
X332665Y343680D01*
X332710Y343624D01*
X349945Y326389D01*
X350039Y326322D01*
X350133Y326251D01*
X350139Y326249D01*
X350145Y326246D01*
X350255Y326211D01*
X350367Y326175D01*
X350374Y326175D01*
X350380Y326173D01*
X350496Y326176D01*
X350613Y326177D01*
X350620Y326179D01*
X350625Y326180D01*
X350643Y326186D01*
X350774Y326224D01*
X352843Y327081D01*
X352943Y327143D01*
X353043Y327203D01*
X353047Y327207D01*
X353052Y327211D01*
X353127Y327300D01*
X353203Y327390D01*
X353205Y327395D01*
X353209Y327400D01*
X353251Y327508D01*
X353295Y327618D01*
X353296Y327625D01*
X353297Y327630D01*
X353298Y327648D01*
X353313Y327784D01*
X353313Y383413D01*
X353310Y383433D01*
X353312Y383452D01*
X353290Y383554D01*
X353274Y383656D01*
X353264Y383673D01*
X353260Y383693D01*
X353207Y383782D01*
X353158Y383873D01*
X353144Y383887D01*
X353134Y383904D01*
X353055Y383971D01*
X352980Y384043D01*
X352962Y384051D01*
X352947Y384064D01*
X352851Y384103D01*
X352757Y384146D01*
X352737Y384148D01*
X352719Y384156D01*
X352552Y384174D01*
X351654Y384174D01*
X346074Y389754D01*
X346074Y397646D01*
X351654Y403226D01*
X359546Y403226D01*
X365126Y397646D01*
X365126Y389754D01*
X364491Y389120D01*
X364479Y389103D01*
X364464Y389091D01*
X364408Y389004D01*
X364347Y388920D01*
X364342Y388901D01*
X364331Y388884D01*
X364305Y388783D01*
X364275Y388685D01*
X364276Y388665D01*
X364271Y388645D01*
X364279Y388542D01*
X364281Y388439D01*
X364288Y388420D01*
X364290Y388400D01*
X364330Y388305D01*
X364366Y388208D01*
X364378Y388192D01*
X364386Y388174D01*
X364491Y388043D01*
X543605Y208929D01*
X543644Y208901D01*
X543677Y208866D01*
X543743Y208829D01*
X543805Y208785D01*
X543851Y208771D01*
X543893Y208748D01*
X543968Y208735D01*
X544040Y208713D01*
X544088Y208714D01*
X544135Y208706D01*
X544210Y208717D01*
X544286Y208719D01*
X544331Y208736D01*
X544378Y208743D01*
X544446Y208778D01*
X544517Y208804D01*
X544554Y208834D01*
X544597Y208856D01*
X544650Y208910D01*
X544709Y208957D01*
X544735Y208998D01*
X544768Y209032D01*
X544801Y209100D01*
X544842Y209164D01*
X544854Y209211D01*
X544874Y209254D01*
X544883Y209329D01*
X544902Y209403D01*
X544898Y209451D01*
X544904Y209498D01*
X544885Y209626D01*
X544883Y209648D01*
X544880Y209654D01*
X544879Y209664D01*
X544829Y209849D01*
X544829Y216871D01*
X546647Y223655D01*
X550158Y229736D01*
X555124Y234702D01*
X561205Y238213D01*
X567989Y240031D01*
X575011Y240031D01*
X581795Y238213D01*
X587876Y234702D01*
X592842Y229736D01*
X595225Y225609D01*
X595255Y225572D01*
X595278Y225529D01*
X595333Y225477D01*
X595381Y225419D01*
X595421Y225393D01*
X595456Y225360D01*
X595525Y225328D01*
X595589Y225288D01*
X595636Y225277D01*
X595679Y225256D01*
X595754Y225248D01*
X595828Y225230D01*
X595876Y225235D01*
X595923Y225229D01*
X595998Y225245D01*
X596073Y225252D01*
X596117Y225271D01*
X596164Y225282D01*
X596229Y225320D01*
X596298Y225351D01*
X596334Y225383D01*
X596375Y225408D01*
X596424Y225465D01*
X596480Y225516D01*
X596504Y225558D01*
X596535Y225595D01*
X596563Y225665D01*
X596600Y225731D01*
X596609Y225778D01*
X596627Y225823D01*
X596641Y225951D01*
X596645Y225973D01*
X596644Y225980D01*
X596645Y225990D01*
X596645Y276105D01*
X596631Y276196D01*
X596623Y276286D01*
X596611Y276316D01*
X596606Y276348D01*
X596563Y276429D01*
X596527Y276513D01*
X596501Y276545D01*
X596490Y276566D01*
X596467Y276588D01*
X596422Y276644D01*
X577157Y295909D01*
X577141Y295921D01*
X577128Y295936D01*
X577041Y295992D01*
X576957Y296053D01*
X576938Y296058D01*
X576921Y296069D01*
X576821Y296095D01*
X576722Y296125D01*
X576702Y296124D01*
X576683Y296129D01*
X576580Y296121D01*
X576476Y296119D01*
X576458Y296112D01*
X576438Y296110D01*
X576343Y296070D01*
X576245Y296034D01*
X576230Y296022D01*
X576211Y296014D01*
X576080Y295909D01*
X575446Y295274D01*
X567554Y295274D01*
X561974Y300854D01*
X561974Y301752D01*
X561971Y301772D01*
X561973Y301791D01*
X561951Y301893D01*
X561935Y301995D01*
X561925Y302012D01*
X561921Y302032D01*
X561868Y302121D01*
X561819Y302212D01*
X561805Y302226D01*
X561795Y302243D01*
X561716Y302310D01*
X561641Y302382D01*
X561623Y302390D01*
X561608Y302403D01*
X561512Y302442D01*
X561418Y302485D01*
X561398Y302487D01*
X561380Y302495D01*
X561213Y302513D01*
X507053Y302513D01*
X437457Y372109D01*
X437441Y372121D01*
X437428Y372136D01*
X437341Y372192D01*
X437257Y372253D01*
X437238Y372258D01*
X437221Y372269D01*
X437121Y372295D01*
X437022Y372325D01*
X437002Y372324D01*
X436983Y372329D01*
X436880Y372321D01*
X436776Y372319D01*
X436758Y372312D01*
X436738Y372310D01*
X436643Y372270D01*
X436545Y372234D01*
X436530Y372222D01*
X436511Y372214D01*
X436380Y372109D01*
X435746Y371474D01*
X427854Y371474D01*
X422274Y377054D01*
X422274Y384946D01*
X427854Y390526D01*
X435746Y390526D01*
X441326Y384946D01*
X441326Y377054D01*
X440691Y376420D01*
X440679Y376403D01*
X440664Y376391D01*
X440608Y376304D01*
X440547Y376220D01*
X440542Y376201D01*
X440531Y376184D01*
X440505Y376084D01*
X440475Y375985D01*
X440476Y375965D01*
X440471Y375945D01*
X440479Y375843D01*
X440481Y375739D01*
X440488Y375720D01*
X440490Y375700D01*
X440530Y375605D01*
X440566Y375508D01*
X440578Y375492D01*
X440586Y375474D01*
X440691Y375343D01*
X508724Y307310D01*
X508798Y307257D01*
X508868Y307197D01*
X508898Y307185D01*
X508924Y307166D01*
X509011Y307139D01*
X509096Y307105D01*
X509137Y307101D01*
X509159Y307094D01*
X509191Y307095D01*
X509263Y307087D01*
X561213Y307087D01*
X561233Y307090D01*
X561252Y307088D01*
X561354Y307110D01*
X561456Y307126D01*
X561473Y307136D01*
X561493Y307140D01*
X561582Y307193D01*
X561673Y307242D01*
X561687Y307256D01*
X561704Y307266D01*
X561771Y307345D01*
X561843Y307420D01*
X561851Y307438D01*
X561864Y307453D01*
X561903Y307549D01*
X561946Y307643D01*
X561948Y307663D01*
X561956Y307681D01*
X561974Y307848D01*
X561974Y308746D01*
X562609Y309380D01*
X562621Y309397D01*
X562636Y309409D01*
X562692Y309496D01*
X562753Y309580D01*
X562758Y309599D01*
X562769Y309616D01*
X562795Y309716D01*
X562825Y309815D01*
X562824Y309835D01*
X562829Y309855D01*
X562821Y309957D01*
X562819Y310061D01*
X562812Y310080D01*
X562810Y310100D01*
X562770Y310195D01*
X562734Y310292D01*
X562722Y310308D01*
X562714Y310326D01*
X562609Y310457D01*
X429044Y444022D01*
X428970Y444075D01*
X428900Y444135D01*
X428870Y444147D01*
X428844Y444166D01*
X428757Y444193D01*
X428672Y444227D01*
X428631Y444231D01*
X428609Y444238D01*
X428577Y444237D01*
X428505Y444245D01*
X225255Y444245D01*
X225164Y444230D01*
X225072Y444223D01*
X225035Y444209D01*
X225013Y444206D01*
X224984Y444190D01*
X224915Y444165D01*
X94937Y379176D01*
X94906Y379153D01*
X94870Y379138D01*
X94739Y379033D01*
X94419Y378713D01*
X94192Y378713D01*
X94101Y378698D01*
X94009Y378691D01*
X93971Y378677D01*
X93949Y378674D01*
X93920Y378658D01*
X93851Y378633D01*
X93648Y378531D01*
X93218Y378674D01*
X93180Y378680D01*
X93144Y378695D01*
X92977Y378713D01*
X92222Y378713D01*
X92107Y378694D01*
X91991Y378677D01*
X91985Y378675D01*
X91979Y378674D01*
X91876Y378619D01*
X91772Y378566D01*
X91767Y378561D01*
X91762Y378558D01*
X91682Y378474D01*
X91599Y378390D01*
X91596Y378384D01*
X91592Y378380D01*
X91584Y378363D01*
X91518Y378243D01*
X90634Y376108D01*
X88204Y373678D01*
X85030Y372363D01*
X67370Y372363D01*
X64196Y373678D01*
X61766Y376108D01*
X60451Y379282D01*
X60451Y382718D01*
X61766Y385892D01*
X64196Y388322D01*
X67370Y389637D01*
X85030Y389637D01*
X88204Y388322D01*
X90634Y385892D01*
X91518Y383757D01*
X91580Y383657D01*
X91640Y383557D01*
X91645Y383553D01*
X91648Y383548D01*
X91738Y383473D01*
X91827Y383397D01*
X91833Y383395D01*
X91838Y383391D01*
X91946Y383349D01*
X92055Y383305D01*
X92063Y383304D01*
X92067Y383303D01*
X92085Y383302D01*
X92222Y383287D01*
X92753Y383287D01*
X92844Y383302D01*
X92936Y383309D01*
X92973Y383323D01*
X92995Y383326D01*
X93024Y383342D01*
X93093Y383367D01*
X223071Y448356D01*
X223102Y448379D01*
X223138Y448394D01*
X223214Y448455D01*
X223216Y448456D01*
X223218Y448458D01*
X223269Y448499D01*
X223589Y448819D01*
X223816Y448819D01*
X223907Y448834D01*
X223999Y448841D01*
X224037Y448855D01*
X224059Y448858D01*
X224088Y448874D01*
X224157Y448899D01*
X224360Y449001D01*
X224790Y448858D01*
X224828Y448852D01*
X224864Y448837D01*
X225031Y448819D01*
X430715Y448819D01*
X565843Y313691D01*
X565859Y313679D01*
X565872Y313664D01*
X565959Y313608D01*
X566043Y313547D01*
X566062Y313542D01*
X566079Y313531D01*
X566179Y313505D01*
X566278Y313475D01*
X566298Y313476D01*
X566317Y313471D01*
X566420Y313479D01*
X566524Y313481D01*
X566542Y313488D01*
X566562Y313490D01*
X566657Y313530D01*
X566755Y313566D01*
X566770Y313578D01*
X566789Y313586D01*
X566920Y313691D01*
X567554Y314326D01*
X575446Y314326D01*
X581026Y308746D01*
X581026Y300854D01*
X580391Y300220D01*
X580379Y300203D01*
X580364Y300191D01*
X580308Y300104D01*
X580247Y300020D01*
X580242Y300001D01*
X580231Y299984D01*
X580205Y299884D01*
X580175Y299785D01*
X580176Y299765D01*
X580171Y299745D01*
X580179Y299643D01*
X580181Y299539D01*
X580188Y299520D01*
X580190Y299500D01*
X580230Y299405D01*
X580266Y299308D01*
X580278Y299292D01*
X580286Y299274D01*
X580391Y299143D01*
X601219Y278315D01*
X601219Y200221D01*
X586202Y185204D01*
X586149Y185130D01*
X586089Y185060D01*
X586077Y185030D01*
X586058Y185004D01*
X586031Y184917D01*
X585997Y184832D01*
X585993Y184791D01*
X585986Y184769D01*
X585987Y184737D01*
X585979Y184665D01*
X585979Y75230D01*
X585994Y75134D01*
X586004Y75037D01*
X586014Y75013D01*
X586018Y74988D01*
X586064Y74902D01*
X586104Y74813D01*
X586121Y74793D01*
X586134Y74770D01*
X586204Y74703D01*
X586270Y74631D01*
X586293Y74619D01*
X586312Y74601D01*
X586400Y74560D01*
X586486Y74513D01*
X586511Y74508D01*
X586535Y74497D01*
X586632Y74486D01*
X586728Y74469D01*
X586754Y74473D01*
X586779Y74470D01*
X586875Y74491D01*
X586971Y74505D01*
X586994Y74517D01*
X587020Y74522D01*
X587103Y74572D01*
X587190Y74616D01*
X587209Y74635D01*
X587231Y74649D01*
X587294Y74722D01*
X587362Y74792D01*
X587378Y74821D01*
X587391Y74835D01*
X587403Y74866D01*
X587443Y74939D01*
X588501Y77494D01*
X591288Y80281D01*
X594929Y81789D01*
X598871Y81789D01*
X602512Y80281D01*
X605299Y77494D01*
X606807Y73853D01*
X606807Y53147D01*
X605299Y49506D01*
X602512Y46719D01*
X598871Y45211D01*
X594929Y45211D01*
X591288Y46719D01*
X588501Y49506D01*
X586993Y53147D01*
X586993Y66810D01*
X586982Y66880D01*
X586980Y66952D01*
X586962Y67001D01*
X586954Y67052D01*
X586920Y67116D01*
X586895Y67183D01*
X586863Y67224D01*
X586838Y67270D01*
X586786Y67319D01*
X586742Y67375D01*
X586698Y67403D01*
X586660Y67439D01*
X586595Y67469D01*
X586535Y67508D01*
X586484Y67521D01*
X586437Y67543D01*
X586366Y67551D01*
X586296Y67568D01*
X586244Y67564D01*
X586193Y67570D01*
X586122Y67555D01*
X586051Y67549D01*
X586003Y67529D01*
X585952Y67518D01*
X585891Y67481D01*
X585825Y67453D01*
X585769Y67408D01*
X585741Y67391D01*
X585726Y67374D01*
X585694Y67348D01*
X584639Y66293D01*
X584447Y66293D01*
X584356Y66279D01*
X584266Y66271D01*
X584236Y66259D01*
X584204Y66254D01*
X584123Y66211D01*
X584039Y66175D01*
X584007Y66149D01*
X583986Y66138D01*
X583964Y66115D01*
X583908Y66070D01*
X581630Y63792D01*
X581577Y63718D01*
X581517Y63648D01*
X581505Y63618D01*
X581486Y63592D01*
X581459Y63505D01*
X581425Y63420D01*
X581421Y63379D01*
X581414Y63357D01*
X581415Y63325D01*
X581407Y63253D01*
X581407Y53147D01*
X579899Y49506D01*
X577112Y46719D01*
X573471Y45211D01*
X569529Y45211D01*
G37*
%LPD*%
%LPC*%
G36*
X188529Y332993D02*
X188529Y332993D01*
X184888Y334501D01*
X182101Y337288D01*
X180593Y340929D01*
X180593Y344871D01*
X182101Y348512D01*
X184888Y351299D01*
X186217Y351849D01*
X186300Y351900D01*
X186385Y351946D01*
X186403Y351964D01*
X186426Y351978D01*
X186488Y352054D01*
X186555Y352124D01*
X186566Y352148D01*
X186582Y352168D01*
X186617Y352259D01*
X186658Y352347D01*
X186661Y352373D01*
X186671Y352397D01*
X186675Y352495D01*
X186686Y352591D01*
X186680Y352617D01*
X186681Y352643D01*
X186654Y352737D01*
X186633Y352832D01*
X186620Y352854D01*
X186613Y352879D01*
X186557Y352959D01*
X186507Y353043D01*
X186487Y353060D01*
X186472Y353081D01*
X186394Y353140D01*
X186320Y353203D01*
X186296Y353213D01*
X186275Y353228D01*
X186182Y353258D01*
X186092Y353295D01*
X186060Y353298D01*
X186041Y353304D01*
X186008Y353304D01*
X185925Y353313D01*
X92222Y353313D01*
X92107Y353294D01*
X91991Y353277D01*
X91985Y353275D01*
X91979Y353274D01*
X91876Y353219D01*
X91772Y353166D01*
X91767Y353161D01*
X91762Y353158D01*
X91682Y353074D01*
X91599Y352990D01*
X91596Y352984D01*
X91592Y352980D01*
X91584Y352963D01*
X91518Y352843D01*
X90634Y350708D01*
X88204Y348278D01*
X85030Y346963D01*
X67370Y346963D01*
X64196Y348278D01*
X61766Y350708D01*
X60451Y353882D01*
X60451Y357318D01*
X61766Y360492D01*
X64196Y362922D01*
X67370Y364237D01*
X85030Y364237D01*
X88204Y362922D01*
X90634Y360492D01*
X91518Y358357D01*
X91580Y358257D01*
X91640Y358157D01*
X91645Y358153D01*
X91648Y358148D01*
X91738Y358073D01*
X91827Y357997D01*
X91833Y357995D01*
X91838Y357991D01*
X91946Y357949D01*
X92055Y357905D01*
X92063Y357904D01*
X92067Y357903D01*
X92085Y357902D01*
X92222Y357887D01*
X201937Y357887D01*
X202028Y357901D01*
X202118Y357909D01*
X202148Y357921D01*
X202180Y357926D01*
X202261Y357969D01*
X202345Y358005D01*
X202377Y358031D01*
X202398Y358042D01*
X202420Y358065D01*
X202476Y358110D01*
X227653Y383287D01*
X256416Y383287D01*
X256530Y383306D01*
X256647Y383323D01*
X256652Y383325D01*
X256658Y383326D01*
X256761Y383381D01*
X256866Y383434D01*
X256870Y383439D01*
X256876Y383442D01*
X256956Y383526D01*
X257038Y383610D01*
X257042Y383616D01*
X257045Y383620D01*
X257053Y383637D01*
X257119Y383757D01*
X258301Y386612D01*
X261088Y389399D01*
X264729Y390907D01*
X268671Y390907D01*
X272312Y389399D01*
X275099Y386612D01*
X276607Y382971D01*
X276607Y379029D01*
X275099Y375388D01*
X272312Y372601D01*
X268671Y371093D01*
X264729Y371093D01*
X261874Y372276D01*
X261761Y372303D01*
X261647Y372331D01*
X261641Y372331D01*
X261635Y372332D01*
X261518Y372321D01*
X261402Y372312D01*
X261396Y372310D01*
X261390Y372309D01*
X261282Y372261D01*
X261176Y372216D01*
X261170Y372211D01*
X261165Y372209D01*
X261152Y372196D01*
X261045Y372111D01*
X243810Y354876D01*
X242247Y353313D01*
X204463Y353313D01*
X204372Y353299D01*
X204282Y353291D01*
X204252Y353279D01*
X204220Y353274D01*
X204139Y353231D01*
X204055Y353195D01*
X204023Y353169D01*
X204002Y353158D01*
X203980Y353135D01*
X203924Y353090D01*
X199389Y348555D01*
X199321Y348461D01*
X199251Y348367D01*
X199249Y348361D01*
X199246Y348356D01*
X199211Y348244D01*
X199175Y348133D01*
X199175Y348126D01*
X199173Y348120D01*
X199176Y348004D01*
X199177Y347887D01*
X199179Y347880D01*
X199180Y347875D01*
X199186Y347857D01*
X199224Y347726D01*
X200407Y344871D01*
X200407Y340929D01*
X198899Y337288D01*
X196112Y334501D01*
X192471Y332993D01*
X188529Y332993D01*
G37*
%LPD*%
%LPC*%
G36*
X415589Y77469D02*
X415589Y77469D01*
X408805Y79287D01*
X402724Y82798D01*
X397758Y87764D01*
X394247Y93845D01*
X392429Y100629D01*
X392429Y107651D01*
X394247Y114435D01*
X397758Y120516D01*
X402724Y125482D01*
X408805Y128993D01*
X415589Y130811D01*
X422611Y130811D01*
X429395Y128993D01*
X435476Y125482D01*
X440442Y120516D01*
X443953Y114435D01*
X445771Y107651D01*
X445771Y100629D01*
X443953Y93845D01*
X440442Y87764D01*
X435476Y82798D01*
X429395Y79287D01*
X422611Y77469D01*
X415589Y77469D01*
G37*
%LPD*%
G36*
X240128Y357901D02*
X240128Y357901D01*
X240218Y357909D01*
X240248Y357921D01*
X240280Y357926D01*
X240361Y357969D01*
X240445Y358005D01*
X240477Y358031D01*
X240498Y358042D01*
X240520Y358065D01*
X240576Y358110D01*
X257811Y375345D01*
X257878Y375439D01*
X257949Y375533D01*
X257951Y375539D01*
X257954Y375545D01*
X257989Y375655D01*
X258025Y375767D01*
X258025Y375774D01*
X258027Y375780D01*
X258024Y375896D01*
X258023Y376013D01*
X258021Y376020D01*
X258020Y376025D01*
X258014Y376043D01*
X257976Y376174D01*
X257119Y378243D01*
X257057Y378343D01*
X256997Y378443D01*
X256993Y378447D01*
X256989Y378452D01*
X256900Y378527D01*
X256810Y378603D01*
X256805Y378605D01*
X256800Y378609D01*
X256692Y378651D01*
X256582Y378695D01*
X256575Y378696D01*
X256570Y378697D01*
X256552Y378698D01*
X256416Y378713D01*
X229863Y378713D01*
X229772Y378699D01*
X229682Y378691D01*
X229652Y378679D01*
X229620Y378674D01*
X229539Y378631D01*
X229455Y378595D01*
X229423Y378569D01*
X229402Y378558D01*
X229380Y378535D01*
X229324Y378490D01*
X210020Y359186D01*
X209978Y359128D01*
X209929Y359076D01*
X209907Y359029D01*
X209877Y358987D01*
X209856Y358918D01*
X209825Y358853D01*
X209820Y358801D01*
X209804Y358751D01*
X209806Y358680D01*
X209798Y358609D01*
X209809Y358558D01*
X209811Y358506D01*
X209835Y358438D01*
X209850Y358368D01*
X209877Y358323D01*
X209895Y358275D01*
X209940Y358219D01*
X209977Y358157D01*
X210016Y358123D01*
X210049Y358083D01*
X210109Y358044D01*
X210164Y357997D01*
X210212Y357978D01*
X210256Y357950D01*
X210325Y357932D01*
X210392Y357905D01*
X210463Y357897D01*
X210494Y357889D01*
X210518Y357891D01*
X210558Y357887D01*
X240037Y357887D01*
X240128Y357901D01*
G37*
%LPC*%
G36*
X544129Y45211D02*
X544129Y45211D01*
X540488Y46719D01*
X537701Y49506D01*
X536193Y53147D01*
X536193Y73853D01*
X537701Y77494D01*
X540488Y80281D01*
X544129Y81789D01*
X548071Y81789D01*
X551712Y80281D01*
X554499Y77494D01*
X556007Y73853D01*
X556007Y53147D01*
X554499Y49506D01*
X551712Y46719D01*
X548071Y45211D01*
X544129Y45211D01*
G37*
%LPD*%
%LPC*%
G36*
X67370Y397763D02*
X67370Y397763D01*
X64196Y399078D01*
X61766Y401508D01*
X60451Y404682D01*
X60451Y408118D01*
X61766Y411292D01*
X64196Y413722D01*
X67370Y415037D01*
X85030Y415037D01*
X88204Y413722D01*
X90634Y411292D01*
X91949Y408118D01*
X91949Y404682D01*
X90634Y401508D01*
X88204Y399078D01*
X85030Y397763D01*
X67370Y397763D01*
G37*
%LPD*%
%LPC*%
G36*
X562670Y385063D02*
X562670Y385063D01*
X559496Y386378D01*
X557066Y388808D01*
X555751Y391982D01*
X555751Y395418D01*
X557066Y398592D01*
X559496Y401022D01*
X562670Y402337D01*
X580330Y402337D01*
X583504Y401022D01*
X585934Y398592D01*
X587249Y395418D01*
X587249Y391982D01*
X585934Y388808D01*
X583504Y386378D01*
X580330Y385063D01*
X562670Y385063D01*
G37*
%LPD*%
%LPC*%
G36*
X562670Y410463D02*
X562670Y410463D01*
X559496Y411778D01*
X557066Y414208D01*
X555751Y417382D01*
X555751Y420818D01*
X557066Y423992D01*
X559496Y426422D01*
X562670Y427737D01*
X580330Y427737D01*
X583504Y426422D01*
X585934Y423992D01*
X587249Y420818D01*
X587249Y417382D01*
X585934Y414208D01*
X583504Y411778D01*
X580330Y410463D01*
X562670Y410463D01*
G37*
%LPD*%
%LPC*%
G36*
X562670Y359663D02*
X562670Y359663D01*
X559496Y360978D01*
X557066Y363408D01*
X555751Y366582D01*
X555751Y370018D01*
X557066Y373192D01*
X559496Y375622D01*
X562670Y376937D01*
X580330Y376937D01*
X583504Y375622D01*
X585934Y373192D01*
X587249Y370018D01*
X587249Y366582D01*
X585934Y363408D01*
X583504Y360978D01*
X580330Y359663D01*
X562670Y359663D01*
G37*
%LPD*%
%LPC*%
G36*
X163129Y371093D02*
X163129Y371093D01*
X159488Y372601D01*
X156701Y375388D01*
X155193Y379029D01*
X155193Y382971D01*
X156701Y386612D01*
X159488Y389399D01*
X163129Y390907D01*
X167071Y390907D01*
X170712Y389399D01*
X173499Y386612D01*
X175007Y382971D01*
X175007Y379029D01*
X173499Y375388D01*
X170712Y372601D01*
X167071Y371093D01*
X163129Y371093D01*
G37*
%LPD*%
%LPC*%
G36*
X188529Y231393D02*
X188529Y231393D01*
X184888Y232901D01*
X182101Y235688D01*
X180593Y239329D01*
X180593Y243271D01*
X182101Y246912D01*
X184888Y249699D01*
X188529Y251207D01*
X192471Y251207D01*
X196112Y249699D01*
X198899Y246912D01*
X200407Y243271D01*
X200407Y239329D01*
X198899Y235688D01*
X196112Y232901D01*
X192471Y231393D01*
X188529Y231393D01*
G37*
%LPD*%
%LPC*%
G36*
X137729Y218693D02*
X137729Y218693D01*
X134088Y220201D01*
X131301Y222988D01*
X129793Y226629D01*
X129793Y230571D01*
X131301Y234212D01*
X134088Y236999D01*
X137729Y238507D01*
X141671Y238507D01*
X145312Y236999D01*
X148099Y234212D01*
X149607Y230571D01*
X149607Y226629D01*
X148099Y222988D01*
X145312Y220201D01*
X141671Y218693D01*
X137729Y218693D01*
G37*
%LPD*%
%LPC*%
G36*
X201229Y180593D02*
X201229Y180593D01*
X197588Y182101D01*
X194801Y184888D01*
X193293Y188529D01*
X193293Y192471D01*
X194801Y196112D01*
X197588Y198899D01*
X201229Y200407D01*
X205171Y200407D01*
X208812Y198899D01*
X211599Y196112D01*
X213107Y192471D01*
X213107Y188529D01*
X211599Y184888D01*
X208812Y182101D01*
X205171Y180593D01*
X201229Y180593D01*
G37*
%LPD*%
%LPC*%
G36*
X137729Y117093D02*
X137729Y117093D01*
X134088Y118601D01*
X131301Y121388D01*
X129793Y125029D01*
X129793Y128971D01*
X131301Y132612D01*
X134088Y135399D01*
X137729Y136907D01*
X141671Y136907D01*
X145312Y135399D01*
X148099Y132612D01*
X149607Y128971D01*
X149607Y125029D01*
X148099Y121388D01*
X145312Y118601D01*
X141671Y117093D01*
X137729Y117093D01*
G37*
%LPD*%
%LPC*%
G36*
X163129Y485393D02*
X163129Y485393D01*
X159488Y486901D01*
X156701Y489688D01*
X155193Y493329D01*
X155193Y497271D01*
X156701Y500912D01*
X159488Y503699D01*
X163129Y505207D01*
X167071Y505207D01*
X170712Y503699D01*
X173499Y500912D01*
X175007Y497271D01*
X175007Y493329D01*
X173499Y489688D01*
X170712Y486901D01*
X167071Y485393D01*
X163129Y485393D01*
G37*
%LPD*%
%LPC*%
G36*
X264729Y485393D02*
X264729Y485393D01*
X261088Y486901D01*
X258301Y489688D01*
X256793Y493329D01*
X256793Y497271D01*
X258301Y500912D01*
X261088Y503699D01*
X264729Y505207D01*
X268671Y505207D01*
X272312Y503699D01*
X275099Y500912D01*
X276607Y497271D01*
X276607Y493329D01*
X275099Y489688D01*
X272312Y486901D01*
X268671Y485393D01*
X264729Y485393D01*
G37*
%LPD*%
%LPC*%
G36*
X427854Y396874D02*
X427854Y396874D01*
X422274Y402454D01*
X422274Y410346D01*
X427854Y415926D01*
X435746Y415926D01*
X441326Y410346D01*
X441326Y402454D01*
X435746Y396874D01*
X427854Y396874D01*
G37*
%LPD*%
%LPC*%
G36*
X592954Y295274D02*
X592954Y295274D01*
X587374Y300854D01*
X587374Y308746D01*
X592954Y314326D01*
X600846Y314326D01*
X606426Y308746D01*
X606426Y300854D01*
X600846Y295274D01*
X592954Y295274D01*
G37*
%LPD*%
%LPC*%
G36*
X262754Y117474D02*
X262754Y117474D01*
X257174Y123054D01*
X257174Y130946D01*
X262754Y136526D01*
X270646Y136526D01*
X276226Y130946D01*
X276226Y123054D01*
X270646Y117474D01*
X262754Y117474D01*
G37*
%LPD*%
G36*
X195682Y351579D02*
X195682Y351579D01*
X195798Y351588D01*
X195804Y351590D01*
X195810Y351591D01*
X195918Y351639D01*
X196024Y351684D01*
X196030Y351689D01*
X196035Y351691D01*
X196049Y351704D01*
X196155Y351789D01*
X196380Y352014D01*
X196422Y352072D01*
X196471Y352124D01*
X196493Y352171D01*
X196523Y352213D01*
X196544Y352282D01*
X196575Y352347D01*
X196580Y352399D01*
X196596Y352449D01*
X196594Y352520D01*
X196602Y352591D01*
X196591Y352642D01*
X196589Y352694D01*
X196565Y352762D01*
X196550Y352832D01*
X196523Y352876D01*
X196505Y352925D01*
X196460Y352981D01*
X196423Y353043D01*
X196384Y353077D01*
X196351Y353117D01*
X196291Y353156D01*
X196236Y353203D01*
X196188Y353222D01*
X196144Y353250D01*
X196075Y353268D01*
X196008Y353295D01*
X195937Y353303D01*
X195906Y353311D01*
X195882Y353309D01*
X195842Y353313D01*
X195075Y353313D01*
X194979Y353298D01*
X194882Y353288D01*
X194858Y353278D01*
X194832Y353274D01*
X194746Y353228D01*
X194657Y353188D01*
X194638Y353171D01*
X194615Y353158D01*
X194548Y353088D01*
X194476Y353022D01*
X194463Y352999D01*
X194445Y352980D01*
X194404Y352892D01*
X194357Y352806D01*
X194353Y352781D01*
X194342Y352757D01*
X194331Y352660D01*
X194314Y352564D01*
X194317Y352538D01*
X194314Y352513D01*
X194335Y352417D01*
X194349Y352321D01*
X194361Y352298D01*
X194367Y352272D01*
X194417Y352189D01*
X194461Y352102D01*
X194480Y352083D01*
X194493Y352061D01*
X194567Y351998D01*
X194636Y351930D01*
X194665Y351914D01*
X194680Y351901D01*
X194711Y351889D01*
X194783Y351849D01*
X195326Y351624D01*
X195439Y351597D01*
X195553Y351569D01*
X195559Y351569D01*
X195565Y351568D01*
X195682Y351579D01*
G37*
D10*
X578612Y368300D02*
X564388Y368300D01*
X564388Y393700D02*
X578612Y393700D01*
X578612Y419100D02*
X564388Y419100D01*
D11*
X596900Y304800D03*
X571500Y304800D03*
D12*
X431800Y406400D03*
X431800Y381000D03*
D13*
X330200Y393700D03*
X355600Y393700D03*
X266700Y127000D03*
X292100Y127000D03*
D14*
X266700Y381000D03*
X165100Y381000D03*
X190500Y241300D03*
X190500Y342900D03*
X139700Y127000D03*
X139700Y228600D03*
X203200Y88900D03*
X203200Y190500D03*
X266700Y495300D03*
X165100Y495300D03*
X355600Y317500D03*
X254000Y317500D03*
D10*
X83312Y406400D02*
X69088Y406400D01*
X69088Y381000D02*
X83312Y381000D01*
X83312Y355600D02*
X69088Y355600D01*
D15*
X546100Y71882D02*
X546100Y55118D01*
X571500Y55118D02*
X571500Y71882D01*
X596900Y71882D02*
X596900Y55118D01*
X444500Y245618D02*
X444500Y262382D01*
X419100Y262382D02*
X419100Y245618D01*
X393700Y245618D02*
X393700Y262382D01*
D16*
X444500Y254000D02*
X520700Y177800D01*
X546100Y203200D02*
X355600Y393700D01*
X546100Y203200D02*
X520700Y177800D01*
X355600Y247373D02*
X355600Y393700D01*
X355600Y247373D02*
X203200Y88900D01*
X241300Y355600D02*
X266700Y381000D01*
X241300Y355600D02*
X76200Y355600D01*
X228600Y381000D02*
X266700Y381000D01*
X228600Y381000D02*
X190500Y342900D01*
X254000Y166116D02*
X292100Y166116D01*
X254000Y166116D02*
X254000Y317500D01*
X292100Y166116D02*
X292100Y127000D01*
X330200Y342900D02*
X330200Y393700D01*
X330200Y342900D02*
X419100Y254000D01*
X93472Y381000D02*
X76200Y381000D01*
X93472Y381000D02*
X224536Y446532D01*
X429768Y446532D02*
X571500Y304800D01*
X429768Y446532D02*
X224536Y446532D01*
X508000Y304800D02*
X571500Y304800D01*
X508000Y304800D02*
X431800Y381000D01*
X571500Y63500D02*
X578104Y63500D01*
X583184Y68580D01*
X583692Y68580D02*
X583692Y185928D01*
X598932Y201168D01*
X598932Y277368D01*
X571500Y304800D01*
X583184Y68580D02*
X583692Y68580D01*
M02*
