G04 EAGLE Gerber RS-274X export*
G75*
%MOMM*%
%FSLAX34Y34*%
%LPD*%
%IN*%
%IPPOS*%
%AMOC8*
5,1,8,0,0,1.08239X$1,22.5*%
G01*
%ADD10C,0.254000*%


D10*
X12700Y63500D02*
X644476Y14658D01*
X700827Y66821D01*
X677457Y416068D01*
X500085Y524743D01*
X221722Y544979D01*
X12700Y455477D01*
X12700Y63500D01*
X588010Y212820D02*
X587939Y211741D01*
X587798Y210669D01*
X587587Y209609D01*
X587308Y208565D01*
X586960Y207541D01*
X586546Y206543D01*
X586068Y205573D01*
X585528Y204637D01*
X584927Y203738D01*
X584269Y202881D01*
X583557Y202068D01*
X582792Y201304D01*
X581979Y200591D01*
X581122Y199933D01*
X580223Y199332D01*
X579287Y198792D01*
X578317Y198314D01*
X577319Y197900D01*
X576295Y197552D01*
X575251Y197273D01*
X574191Y197062D01*
X573119Y196921D01*
X572040Y196850D01*
X570960Y196850D01*
X569881Y196921D01*
X568809Y197062D01*
X567749Y197273D01*
X566705Y197552D01*
X565681Y197900D01*
X564683Y198314D01*
X563713Y198792D01*
X562777Y199332D01*
X561878Y199933D01*
X561021Y200591D01*
X560208Y201304D01*
X559444Y202068D01*
X558731Y202881D01*
X558073Y203738D01*
X557472Y204637D01*
X556932Y205573D01*
X556454Y206543D01*
X556040Y207541D01*
X555692Y208565D01*
X555413Y209609D01*
X555202Y210669D01*
X555061Y211741D01*
X554990Y212820D01*
X554990Y213900D01*
X555061Y214979D01*
X555202Y216051D01*
X555413Y217111D01*
X555692Y218155D01*
X556040Y219179D01*
X556454Y220177D01*
X556932Y221147D01*
X557472Y222083D01*
X558073Y222982D01*
X558731Y223839D01*
X559444Y224652D01*
X560208Y225417D01*
X561021Y226129D01*
X561878Y226787D01*
X562777Y227388D01*
X563713Y227928D01*
X564683Y228406D01*
X565681Y228820D01*
X566705Y229168D01*
X567749Y229447D01*
X568809Y229658D01*
X569881Y229799D01*
X570960Y229870D01*
X572040Y229870D01*
X573119Y229799D01*
X574191Y229658D01*
X575251Y229447D01*
X576295Y229168D01*
X577319Y228820D01*
X578317Y228406D01*
X579287Y227928D01*
X580223Y227388D01*
X581122Y226787D01*
X581979Y226129D01*
X582792Y225417D01*
X583557Y224652D01*
X584269Y223839D01*
X584927Y222982D01*
X585528Y222083D01*
X586068Y221147D01*
X586546Y220177D01*
X586960Y219179D01*
X587308Y218155D01*
X587587Y217111D01*
X587798Y216051D01*
X587939Y214979D01*
X588010Y213900D01*
X588010Y212820D01*
X402590Y104680D02*
X402661Y105759D01*
X402802Y106831D01*
X403013Y107891D01*
X403292Y108935D01*
X403640Y109959D01*
X404054Y110957D01*
X404532Y111927D01*
X405072Y112863D01*
X405673Y113762D01*
X406331Y114619D01*
X407044Y115432D01*
X407808Y116197D01*
X408621Y116909D01*
X409478Y117567D01*
X410377Y118168D01*
X411313Y118708D01*
X412283Y119186D01*
X413281Y119600D01*
X414305Y119948D01*
X415349Y120227D01*
X416409Y120438D01*
X417481Y120579D01*
X418560Y120650D01*
X419640Y120650D01*
X420719Y120579D01*
X421791Y120438D01*
X422851Y120227D01*
X423895Y119948D01*
X424919Y119600D01*
X425917Y119186D01*
X426887Y118708D01*
X427823Y118168D01*
X428722Y117567D01*
X429579Y116909D01*
X430392Y116197D01*
X431157Y115432D01*
X431869Y114619D01*
X432527Y113762D01*
X433128Y112863D01*
X433668Y111927D01*
X434146Y110957D01*
X434560Y109959D01*
X434908Y108935D01*
X435187Y107891D01*
X435398Y106831D01*
X435539Y105759D01*
X435610Y104680D01*
X435610Y103600D01*
X435539Y102521D01*
X435398Y101449D01*
X435187Y100389D01*
X434908Y99345D01*
X434560Y98321D01*
X434146Y97323D01*
X433668Y96353D01*
X433128Y95417D01*
X432527Y94518D01*
X431869Y93661D01*
X431157Y92848D01*
X430392Y92084D01*
X429579Y91371D01*
X428722Y90713D01*
X427823Y90112D01*
X426887Y89572D01*
X425917Y89094D01*
X424919Y88680D01*
X423895Y88332D01*
X422851Y88053D01*
X421791Y87842D01*
X420719Y87701D01*
X419640Y87630D01*
X418560Y87630D01*
X417481Y87701D01*
X416409Y87842D01*
X415349Y88053D01*
X414305Y88332D01*
X413281Y88680D01*
X412283Y89094D01*
X411313Y89572D01*
X410377Y90112D01*
X409478Y90713D01*
X408621Y91371D01*
X407808Y92084D01*
X407044Y92848D01*
X406331Y93661D01*
X405673Y94518D01*
X405072Y95417D01*
X404532Y96353D01*
X404054Y97323D01*
X403640Y98321D01*
X403292Y99345D01*
X403013Y100389D01*
X402802Y101449D01*
X402661Y102521D01*
X402590Y103600D01*
X402590Y104680D01*
M02*
