G04 EAGLE Gerber RS-274X export*
G75*
%MOMM*%
%FSLAX34Y34*%
%LPD*%
%INSilkscreen Top*%
%IPPOS*%
%AMOC8*
5,1,8,0,0,1.08239X$1,22.5*%
G01*
%ADD10C,0.152400*%
%ADD11C,0.127000*%
%ADD12C,0.254000*%
%ADD13R,0.508000X2.540000*%
%ADD14R,1.905000X0.762000*%
%ADD15R,2.540000X0.508000*%
%ADD16R,0.762000X1.905000*%
%ADD17C,0.050800*%
%ADD18R,0.762000X0.635000*%
%ADD19R,1.270000X2.794000*%
%ADD20C,0.177800*%


D10*
X274687Y51562D02*
X271074Y51562D01*
X270956Y51564D01*
X270838Y51570D01*
X270720Y51579D01*
X270603Y51593D01*
X270486Y51610D01*
X270369Y51631D01*
X270254Y51656D01*
X270139Y51685D01*
X270025Y51718D01*
X269913Y51754D01*
X269802Y51794D01*
X269692Y51837D01*
X269583Y51884D01*
X269476Y51934D01*
X269371Y51989D01*
X269268Y52046D01*
X269167Y52107D01*
X269067Y52171D01*
X268970Y52238D01*
X268875Y52308D01*
X268783Y52382D01*
X268692Y52458D01*
X268605Y52538D01*
X268520Y52620D01*
X268438Y52705D01*
X268358Y52792D01*
X268282Y52883D01*
X268208Y52975D01*
X268138Y53070D01*
X268071Y53167D01*
X268007Y53267D01*
X267946Y53368D01*
X267889Y53471D01*
X267834Y53576D01*
X267784Y53683D01*
X267737Y53792D01*
X267694Y53902D01*
X267654Y54013D01*
X267618Y54125D01*
X267585Y54239D01*
X267556Y54354D01*
X267531Y54469D01*
X267510Y54586D01*
X267493Y54703D01*
X267479Y54820D01*
X267470Y54938D01*
X267464Y55056D01*
X267462Y55174D01*
X267462Y64206D01*
X267464Y64324D01*
X267470Y64442D01*
X267479Y64560D01*
X267493Y64677D01*
X267510Y64794D01*
X267531Y64911D01*
X267556Y65026D01*
X267585Y65141D01*
X267618Y65255D01*
X267654Y65367D01*
X267694Y65478D01*
X267737Y65588D01*
X267784Y65697D01*
X267834Y65804D01*
X267888Y65909D01*
X267946Y66012D01*
X268007Y66113D01*
X268071Y66213D01*
X268138Y66310D01*
X268208Y66405D01*
X268282Y66497D01*
X268358Y66588D01*
X268438Y66675D01*
X268520Y66760D01*
X268605Y66842D01*
X268692Y66922D01*
X268783Y66998D01*
X268875Y67072D01*
X268970Y67142D01*
X269067Y67209D01*
X269167Y67273D01*
X269268Y67334D01*
X269371Y67391D01*
X269476Y67445D01*
X269583Y67496D01*
X269692Y67543D01*
X269802Y67586D01*
X269913Y67626D01*
X270025Y67662D01*
X270139Y67695D01*
X270254Y67724D01*
X270369Y67749D01*
X270486Y67770D01*
X270603Y67787D01*
X270720Y67801D01*
X270838Y67810D01*
X270956Y67816D01*
X271074Y67818D01*
X274687Y67818D01*
X281049Y67818D02*
X281049Y51562D01*
X281049Y67818D02*
X285564Y67818D01*
X285695Y67816D01*
X285827Y67810D01*
X285958Y67801D01*
X286088Y67787D01*
X286219Y67770D01*
X286348Y67749D01*
X286477Y67725D01*
X286605Y67696D01*
X286733Y67664D01*
X286859Y67628D01*
X286984Y67589D01*
X287109Y67546D01*
X287231Y67499D01*
X287353Y67449D01*
X287473Y67395D01*
X287591Y67338D01*
X287707Y67277D01*
X287822Y67213D01*
X287935Y67146D01*
X288046Y67075D01*
X288154Y67001D01*
X288261Y66924D01*
X288365Y66844D01*
X288467Y66761D01*
X288566Y66676D01*
X288663Y66587D01*
X288757Y66495D01*
X288849Y66401D01*
X288938Y66304D01*
X289023Y66205D01*
X289106Y66103D01*
X289186Y65999D01*
X289263Y65892D01*
X289337Y65784D01*
X289408Y65673D01*
X289475Y65560D01*
X289539Y65445D01*
X289600Y65329D01*
X289657Y65211D01*
X289711Y65091D01*
X289761Y64969D01*
X289808Y64847D01*
X289851Y64722D01*
X289890Y64597D01*
X289926Y64471D01*
X289958Y64343D01*
X289987Y64215D01*
X290011Y64086D01*
X290032Y63957D01*
X290049Y63826D01*
X290063Y63696D01*
X290072Y63565D01*
X290078Y63433D01*
X290080Y63302D01*
X290080Y56078D01*
X290078Y55947D01*
X290072Y55815D01*
X290063Y55684D01*
X290049Y55554D01*
X290032Y55423D01*
X290011Y55294D01*
X289987Y55165D01*
X289958Y55037D01*
X289926Y54909D01*
X289890Y54783D01*
X289851Y54658D01*
X289808Y54533D01*
X289761Y54411D01*
X289711Y54289D01*
X289657Y54169D01*
X289600Y54051D01*
X289539Y53935D01*
X289475Y53820D01*
X289408Y53707D01*
X289337Y53596D01*
X289263Y53488D01*
X289186Y53381D01*
X289106Y53277D01*
X289023Y53175D01*
X288938Y53076D01*
X288849Y52979D01*
X288757Y52885D01*
X288663Y52793D01*
X288566Y52704D01*
X288467Y52619D01*
X288365Y52536D01*
X288261Y52456D01*
X288154Y52379D01*
X288046Y52305D01*
X287935Y52234D01*
X287822Y52167D01*
X287707Y52103D01*
X287591Y52042D01*
X287473Y51985D01*
X287353Y51931D01*
X287231Y51881D01*
X287109Y51834D01*
X286984Y51791D01*
X286859Y51752D01*
X286733Y51716D01*
X286605Y51684D01*
X286477Y51655D01*
X286348Y51631D01*
X286218Y51610D01*
X286088Y51593D01*
X285958Y51579D01*
X285827Y51570D01*
X285695Y51564D01*
X285564Y51562D01*
X281049Y51562D01*
X296298Y51562D02*
X301716Y67818D01*
X307135Y51562D01*
X305780Y55626D02*
X297652Y55626D01*
X316405Y51562D02*
X320017Y51562D01*
X316405Y51562D02*
X316287Y51564D01*
X316169Y51570D01*
X316051Y51579D01*
X315934Y51593D01*
X315817Y51610D01*
X315700Y51631D01*
X315585Y51656D01*
X315470Y51685D01*
X315356Y51718D01*
X315244Y51754D01*
X315133Y51794D01*
X315023Y51837D01*
X314914Y51884D01*
X314807Y51934D01*
X314702Y51989D01*
X314599Y52046D01*
X314498Y52107D01*
X314398Y52171D01*
X314301Y52238D01*
X314206Y52308D01*
X314114Y52382D01*
X314023Y52458D01*
X313936Y52538D01*
X313851Y52620D01*
X313769Y52705D01*
X313689Y52792D01*
X313613Y52883D01*
X313539Y52975D01*
X313469Y53070D01*
X313402Y53167D01*
X313338Y53267D01*
X313277Y53368D01*
X313220Y53471D01*
X313165Y53576D01*
X313115Y53683D01*
X313068Y53792D01*
X313025Y53902D01*
X312985Y54013D01*
X312949Y54125D01*
X312916Y54239D01*
X312887Y54354D01*
X312862Y54469D01*
X312841Y54586D01*
X312824Y54703D01*
X312810Y54820D01*
X312801Y54938D01*
X312795Y55056D01*
X312793Y55174D01*
X312793Y64206D01*
X312795Y64324D01*
X312801Y64442D01*
X312810Y64560D01*
X312824Y64677D01*
X312841Y64794D01*
X312862Y64911D01*
X312887Y65026D01*
X312916Y65141D01*
X312949Y65255D01*
X312985Y65367D01*
X313025Y65478D01*
X313068Y65588D01*
X313115Y65697D01*
X313165Y65804D01*
X313219Y65909D01*
X313277Y66012D01*
X313338Y66113D01*
X313402Y66213D01*
X313469Y66310D01*
X313539Y66405D01*
X313613Y66497D01*
X313689Y66588D01*
X313769Y66675D01*
X313851Y66760D01*
X313936Y66842D01*
X314023Y66922D01*
X314114Y66998D01*
X314206Y67072D01*
X314301Y67142D01*
X314398Y67209D01*
X314498Y67273D01*
X314599Y67334D01*
X314702Y67391D01*
X314807Y67445D01*
X314914Y67496D01*
X315023Y67543D01*
X315133Y67586D01*
X315244Y67626D01*
X315356Y67662D01*
X315470Y67695D01*
X315585Y67724D01*
X315700Y67749D01*
X315817Y67770D01*
X315934Y67787D01*
X316051Y67801D01*
X316169Y67810D01*
X316287Y67816D01*
X316405Y67818D01*
X320017Y67818D01*
X37338Y95081D02*
X21082Y89662D01*
X21082Y100499D02*
X37338Y95081D01*
X37338Y107586D02*
X21082Y107586D01*
X37338Y105779D02*
X37338Y109392D01*
X21082Y109392D02*
X21082Y105779D01*
X21082Y116096D02*
X37338Y116096D01*
X37338Y125127D02*
X21082Y116096D01*
X21082Y125127D02*
X37338Y125127D01*
X32822Y132248D02*
X25598Y132248D01*
X25465Y132250D01*
X25333Y132256D01*
X25201Y132266D01*
X25069Y132279D01*
X24937Y132297D01*
X24807Y132318D01*
X24676Y132343D01*
X24547Y132372D01*
X24419Y132405D01*
X24291Y132441D01*
X24165Y132481D01*
X24040Y132525D01*
X23916Y132573D01*
X23794Y132624D01*
X23673Y132679D01*
X23554Y132737D01*
X23436Y132799D01*
X23321Y132864D01*
X23207Y132933D01*
X23096Y133004D01*
X22987Y133080D01*
X22880Y133158D01*
X22775Y133239D01*
X22673Y133324D01*
X22573Y133411D01*
X22476Y133501D01*
X22381Y133594D01*
X22290Y133690D01*
X22201Y133788D01*
X22115Y133889D01*
X22032Y133993D01*
X21952Y134099D01*
X21876Y134207D01*
X21802Y134317D01*
X21732Y134430D01*
X21665Y134544D01*
X21602Y134661D01*
X21542Y134779D01*
X21485Y134899D01*
X21432Y135021D01*
X21383Y135144D01*
X21337Y135268D01*
X21295Y135394D01*
X21257Y135521D01*
X21222Y135649D01*
X21191Y135778D01*
X21164Y135907D01*
X21141Y136038D01*
X21121Y136169D01*
X21106Y136301D01*
X21094Y136433D01*
X21086Y136565D01*
X21082Y136698D01*
X21082Y136830D01*
X21086Y136963D01*
X21094Y137095D01*
X21106Y137227D01*
X21121Y137359D01*
X21141Y137490D01*
X21164Y137621D01*
X21191Y137750D01*
X21222Y137879D01*
X21257Y138007D01*
X21295Y138134D01*
X21337Y138260D01*
X21383Y138384D01*
X21432Y138507D01*
X21485Y138629D01*
X21542Y138749D01*
X21602Y138867D01*
X21665Y138984D01*
X21732Y139098D01*
X21802Y139211D01*
X21876Y139321D01*
X21952Y139429D01*
X22032Y139535D01*
X22115Y139639D01*
X22201Y139740D01*
X22290Y139838D01*
X22381Y139934D01*
X22476Y140027D01*
X22573Y140117D01*
X22673Y140204D01*
X22775Y140289D01*
X22880Y140370D01*
X22987Y140448D01*
X23096Y140524D01*
X23207Y140595D01*
X23321Y140664D01*
X23436Y140729D01*
X23554Y140791D01*
X23673Y140849D01*
X23794Y140904D01*
X23916Y140955D01*
X24040Y141003D01*
X24165Y141047D01*
X24291Y141087D01*
X24419Y141123D01*
X24547Y141156D01*
X24676Y141185D01*
X24807Y141210D01*
X24937Y141231D01*
X25069Y141249D01*
X25201Y141262D01*
X25333Y141272D01*
X25465Y141278D01*
X25598Y141280D01*
X25598Y141279D02*
X32822Y141279D01*
X32822Y141280D02*
X32955Y141278D01*
X33087Y141272D01*
X33219Y141262D01*
X33351Y141249D01*
X33483Y141231D01*
X33613Y141210D01*
X33744Y141185D01*
X33873Y141156D01*
X34001Y141123D01*
X34129Y141087D01*
X34255Y141047D01*
X34380Y141003D01*
X34504Y140955D01*
X34626Y140904D01*
X34747Y140849D01*
X34866Y140791D01*
X34984Y140729D01*
X35099Y140664D01*
X35213Y140595D01*
X35324Y140524D01*
X35433Y140448D01*
X35540Y140370D01*
X35645Y140289D01*
X35747Y140204D01*
X35847Y140117D01*
X35944Y140027D01*
X36039Y139934D01*
X36130Y139838D01*
X36219Y139740D01*
X36305Y139639D01*
X36388Y139535D01*
X36468Y139429D01*
X36544Y139321D01*
X36618Y139211D01*
X36688Y139098D01*
X36755Y138984D01*
X36818Y138867D01*
X36878Y138749D01*
X36935Y138629D01*
X36988Y138507D01*
X37037Y138384D01*
X37083Y138260D01*
X37125Y138134D01*
X37163Y138007D01*
X37198Y137879D01*
X37229Y137750D01*
X37256Y137621D01*
X37279Y137490D01*
X37299Y137359D01*
X37314Y137227D01*
X37326Y137095D01*
X37334Y136963D01*
X37338Y136830D01*
X37338Y136698D01*
X37334Y136565D01*
X37326Y136433D01*
X37314Y136301D01*
X37299Y136169D01*
X37279Y136038D01*
X37256Y135907D01*
X37229Y135778D01*
X37198Y135649D01*
X37163Y135521D01*
X37125Y135394D01*
X37083Y135268D01*
X37037Y135144D01*
X36988Y135021D01*
X36935Y134899D01*
X36878Y134779D01*
X36818Y134661D01*
X36755Y134544D01*
X36688Y134430D01*
X36618Y134317D01*
X36544Y134207D01*
X36468Y134099D01*
X36388Y133993D01*
X36305Y133889D01*
X36219Y133788D01*
X36130Y133690D01*
X36039Y133594D01*
X35944Y133501D01*
X35847Y133411D01*
X35747Y133324D01*
X35645Y133239D01*
X35540Y133158D01*
X35433Y133080D01*
X35324Y133004D01*
X35213Y132933D01*
X35099Y132864D01*
X34984Y132799D01*
X34866Y132737D01*
X34747Y132679D01*
X34626Y132624D01*
X34504Y132573D01*
X34380Y132525D01*
X34255Y132481D01*
X34129Y132441D01*
X34001Y132405D01*
X33873Y132372D01*
X33744Y132343D01*
X33613Y132318D01*
X33483Y132297D01*
X33351Y132279D01*
X33219Y132266D01*
X33087Y132256D01*
X32955Y132250D01*
X32822Y132248D01*
X37338Y148401D02*
X21082Y148401D01*
X21082Y152916D01*
X21084Y153047D01*
X21090Y153179D01*
X21099Y153310D01*
X21113Y153440D01*
X21130Y153571D01*
X21151Y153700D01*
X21175Y153829D01*
X21204Y153957D01*
X21236Y154085D01*
X21272Y154211D01*
X21311Y154336D01*
X21354Y154461D01*
X21401Y154583D01*
X21451Y154705D01*
X21505Y154825D01*
X21562Y154943D01*
X21623Y155059D01*
X21687Y155174D01*
X21754Y155287D01*
X21825Y155398D01*
X21899Y155506D01*
X21976Y155613D01*
X22056Y155717D01*
X22139Y155819D01*
X22224Y155918D01*
X22313Y156015D01*
X22405Y156109D01*
X22499Y156201D01*
X22596Y156290D01*
X22695Y156375D01*
X22797Y156458D01*
X22901Y156538D01*
X23008Y156615D01*
X23116Y156689D01*
X23227Y156760D01*
X23340Y156827D01*
X23455Y156891D01*
X23571Y156952D01*
X23689Y157009D01*
X23809Y157063D01*
X23931Y157113D01*
X24053Y157160D01*
X24178Y157203D01*
X24303Y157242D01*
X24429Y157278D01*
X24557Y157310D01*
X24685Y157339D01*
X24814Y157363D01*
X24943Y157384D01*
X25074Y157401D01*
X25204Y157415D01*
X25335Y157424D01*
X25467Y157430D01*
X25598Y157432D01*
X32822Y157432D01*
X32953Y157430D01*
X33085Y157424D01*
X33216Y157415D01*
X33346Y157401D01*
X33477Y157384D01*
X33606Y157363D01*
X33735Y157339D01*
X33863Y157310D01*
X33991Y157278D01*
X34117Y157242D01*
X34242Y157203D01*
X34367Y157160D01*
X34489Y157113D01*
X34611Y157063D01*
X34731Y157009D01*
X34849Y156952D01*
X34965Y156891D01*
X35080Y156827D01*
X35193Y156760D01*
X35304Y156689D01*
X35412Y156615D01*
X35519Y156538D01*
X35623Y156458D01*
X35725Y156375D01*
X35824Y156290D01*
X35921Y156201D01*
X36015Y156109D01*
X36107Y156015D01*
X36196Y155918D01*
X36281Y155819D01*
X36364Y155717D01*
X36444Y155613D01*
X36521Y155506D01*
X36595Y155398D01*
X36666Y155287D01*
X36733Y155174D01*
X36797Y155059D01*
X36858Y154943D01*
X36915Y154825D01*
X36969Y154705D01*
X37019Y154583D01*
X37066Y154461D01*
X37109Y154336D01*
X37148Y154211D01*
X37184Y154085D01*
X37216Y153957D01*
X37245Y153829D01*
X37269Y153700D01*
X37290Y153570D01*
X37307Y153440D01*
X37321Y153310D01*
X37330Y153179D01*
X37336Y153047D01*
X37338Y152916D01*
X37338Y148401D01*
X37338Y163650D02*
X21082Y169069D01*
X37338Y174487D01*
X33274Y173133D02*
X33274Y165005D01*
X37338Y180705D02*
X21082Y180705D01*
X37338Y189736D01*
X21082Y189736D01*
X21082Y200331D02*
X37338Y200331D01*
X21082Y195815D02*
X21082Y204847D01*
X25598Y210405D02*
X32822Y210405D01*
X25598Y210404D02*
X25465Y210406D01*
X25333Y210412D01*
X25201Y210422D01*
X25069Y210435D01*
X24937Y210453D01*
X24807Y210474D01*
X24676Y210499D01*
X24547Y210528D01*
X24419Y210561D01*
X24291Y210597D01*
X24165Y210637D01*
X24040Y210681D01*
X23916Y210729D01*
X23794Y210780D01*
X23673Y210835D01*
X23554Y210893D01*
X23436Y210955D01*
X23321Y211020D01*
X23207Y211089D01*
X23096Y211160D01*
X22987Y211236D01*
X22880Y211314D01*
X22775Y211395D01*
X22673Y211480D01*
X22573Y211567D01*
X22476Y211657D01*
X22381Y211750D01*
X22290Y211846D01*
X22201Y211944D01*
X22115Y212045D01*
X22032Y212149D01*
X21952Y212255D01*
X21876Y212363D01*
X21802Y212473D01*
X21732Y212586D01*
X21665Y212700D01*
X21602Y212817D01*
X21542Y212935D01*
X21485Y213055D01*
X21432Y213177D01*
X21383Y213300D01*
X21337Y213424D01*
X21295Y213550D01*
X21257Y213677D01*
X21222Y213805D01*
X21191Y213934D01*
X21164Y214063D01*
X21141Y214194D01*
X21121Y214325D01*
X21106Y214457D01*
X21094Y214589D01*
X21086Y214721D01*
X21082Y214854D01*
X21082Y214986D01*
X21086Y215119D01*
X21094Y215251D01*
X21106Y215383D01*
X21121Y215515D01*
X21141Y215646D01*
X21164Y215777D01*
X21191Y215906D01*
X21222Y216035D01*
X21257Y216163D01*
X21295Y216290D01*
X21337Y216416D01*
X21383Y216540D01*
X21432Y216663D01*
X21485Y216785D01*
X21542Y216905D01*
X21602Y217023D01*
X21665Y217140D01*
X21732Y217254D01*
X21802Y217367D01*
X21876Y217477D01*
X21952Y217585D01*
X22032Y217691D01*
X22115Y217795D01*
X22201Y217896D01*
X22290Y217994D01*
X22381Y218090D01*
X22476Y218183D01*
X22573Y218273D01*
X22673Y218360D01*
X22775Y218445D01*
X22880Y218526D01*
X22987Y218604D01*
X23096Y218680D01*
X23207Y218751D01*
X23321Y218820D01*
X23436Y218885D01*
X23554Y218947D01*
X23673Y219005D01*
X23794Y219060D01*
X23916Y219111D01*
X24040Y219159D01*
X24165Y219203D01*
X24291Y219243D01*
X24419Y219279D01*
X24547Y219312D01*
X24676Y219341D01*
X24807Y219366D01*
X24937Y219387D01*
X25069Y219405D01*
X25201Y219418D01*
X25333Y219428D01*
X25465Y219434D01*
X25598Y219436D01*
X32822Y219436D01*
X32955Y219434D01*
X33087Y219428D01*
X33219Y219418D01*
X33351Y219405D01*
X33483Y219387D01*
X33613Y219366D01*
X33744Y219341D01*
X33873Y219312D01*
X34001Y219279D01*
X34129Y219243D01*
X34255Y219203D01*
X34380Y219159D01*
X34504Y219111D01*
X34626Y219060D01*
X34747Y219005D01*
X34866Y218947D01*
X34984Y218885D01*
X35099Y218820D01*
X35213Y218751D01*
X35324Y218680D01*
X35433Y218604D01*
X35540Y218526D01*
X35645Y218445D01*
X35747Y218360D01*
X35847Y218273D01*
X35944Y218183D01*
X36039Y218090D01*
X36130Y217994D01*
X36219Y217896D01*
X36305Y217795D01*
X36388Y217691D01*
X36468Y217585D01*
X36544Y217477D01*
X36618Y217367D01*
X36688Y217254D01*
X36755Y217140D01*
X36818Y217023D01*
X36878Y216905D01*
X36935Y216785D01*
X36988Y216663D01*
X37037Y216540D01*
X37083Y216416D01*
X37125Y216290D01*
X37163Y216163D01*
X37198Y216035D01*
X37229Y215906D01*
X37256Y215777D01*
X37279Y215646D01*
X37299Y215515D01*
X37314Y215383D01*
X37326Y215251D01*
X37334Y215119D01*
X37338Y214986D01*
X37338Y214854D01*
X37334Y214721D01*
X37326Y214589D01*
X37314Y214457D01*
X37299Y214325D01*
X37279Y214194D01*
X37256Y214063D01*
X37229Y213934D01*
X37198Y213805D01*
X37163Y213677D01*
X37125Y213550D01*
X37083Y213424D01*
X37037Y213300D01*
X36988Y213177D01*
X36935Y213055D01*
X36878Y212935D01*
X36818Y212817D01*
X36755Y212700D01*
X36688Y212586D01*
X36618Y212473D01*
X36544Y212363D01*
X36468Y212255D01*
X36388Y212149D01*
X36305Y212045D01*
X36219Y211944D01*
X36130Y211846D01*
X36039Y211750D01*
X35944Y211657D01*
X35847Y211567D01*
X35747Y211480D01*
X35645Y211395D01*
X35540Y211314D01*
X35433Y211236D01*
X35324Y211160D01*
X35213Y211089D01*
X35099Y211020D01*
X34984Y210955D01*
X34866Y210893D01*
X34747Y210835D01*
X34626Y210780D01*
X34504Y210729D01*
X34380Y210681D01*
X34255Y210637D01*
X34129Y210597D01*
X34001Y210561D01*
X33873Y210528D01*
X33744Y210499D01*
X33613Y210474D01*
X33483Y210453D01*
X33351Y210435D01*
X33219Y210422D01*
X33087Y210412D01*
X32955Y210406D01*
X32822Y210404D01*
X37338Y226557D02*
X21082Y226557D01*
X37338Y235588D01*
X21082Y235588D01*
X21082Y241806D02*
X28758Y247225D01*
X21082Y252643D01*
X28758Y247225D02*
X37338Y247225D01*
X561340Y355600D02*
X581660Y355600D01*
X558800Y408940D02*
X558800Y429260D01*
X558800Y408940D02*
X561340Y406400D01*
X584200Y408940D02*
X584200Y429260D01*
X584200Y408940D02*
X581660Y406400D01*
X584200Y429260D02*
X581660Y431800D01*
X561340Y431800D02*
X558800Y429260D01*
X561340Y431800D02*
X581660Y431800D01*
X561340Y406400D02*
X558800Y403860D01*
X558800Y383540D01*
X561340Y381000D01*
X558800Y378460D01*
X558800Y358140D02*
X561340Y355600D01*
X558800Y358140D02*
X558800Y378460D01*
X584200Y403860D02*
X581660Y406400D01*
X584200Y383540D02*
X581660Y381000D01*
X584200Y378460D01*
X584200Y358140D02*
X581660Y355600D01*
X584200Y383540D02*
X584200Y403860D01*
X584200Y378460D02*
X584200Y358140D01*
D11*
X590818Y368935D02*
X588899Y371334D01*
X597535Y371334D01*
X597535Y368935D02*
X597535Y373733D01*
X588899Y396974D02*
X588901Y397066D01*
X588907Y397157D01*
X588916Y397248D01*
X588930Y397339D01*
X588947Y397429D01*
X588969Y397518D01*
X588994Y397606D01*
X589022Y397693D01*
X589055Y397779D01*
X589091Y397863D01*
X589130Y397946D01*
X589173Y398027D01*
X589220Y398106D01*
X589269Y398183D01*
X589322Y398258D01*
X589378Y398330D01*
X589437Y398400D01*
X589499Y398468D01*
X589564Y398533D01*
X589632Y398595D01*
X589702Y398654D01*
X589774Y398710D01*
X589849Y398763D01*
X589926Y398812D01*
X590005Y398859D01*
X590086Y398902D01*
X590169Y398941D01*
X590253Y398977D01*
X590339Y399010D01*
X590426Y399038D01*
X590514Y399063D01*
X590603Y399085D01*
X590693Y399102D01*
X590784Y399116D01*
X590875Y399125D01*
X590966Y399131D01*
X591058Y399133D01*
X588899Y396974D02*
X588901Y396871D01*
X588907Y396769D01*
X588916Y396667D01*
X588929Y396565D01*
X588946Y396464D01*
X588967Y396363D01*
X588991Y396264D01*
X589020Y396165D01*
X589051Y396068D01*
X589087Y395971D01*
X589125Y395876D01*
X589168Y395783D01*
X589214Y395691D01*
X589263Y395601D01*
X589315Y395513D01*
X589371Y395426D01*
X589430Y395342D01*
X589491Y395261D01*
X589556Y395181D01*
X589624Y395104D01*
X589695Y395029D01*
X589768Y394958D01*
X589844Y394889D01*
X589922Y394822D01*
X590003Y394759D01*
X590086Y394699D01*
X590171Y394642D01*
X590258Y394588D01*
X590348Y394537D01*
X590439Y394490D01*
X590531Y394446D01*
X590626Y394405D01*
X590721Y394368D01*
X590818Y394335D01*
X592737Y398413D02*
X592671Y398480D01*
X592602Y398544D01*
X592531Y398605D01*
X592457Y398663D01*
X592381Y398718D01*
X592303Y398770D01*
X592223Y398819D01*
X592141Y398865D01*
X592057Y398907D01*
X591971Y398946D01*
X591884Y398981D01*
X591796Y399012D01*
X591706Y399040D01*
X591616Y399065D01*
X591524Y399086D01*
X591432Y399103D01*
X591339Y399116D01*
X591246Y399125D01*
X591152Y399131D01*
X591058Y399133D01*
X592737Y398413D02*
X597535Y394335D01*
X597535Y399133D01*
X597535Y419735D02*
X597535Y422134D01*
X597533Y422231D01*
X597527Y422327D01*
X597518Y422423D01*
X597504Y422519D01*
X597487Y422614D01*
X597465Y422708D01*
X597440Y422801D01*
X597412Y422894D01*
X597379Y422985D01*
X597343Y423074D01*
X597303Y423162D01*
X597260Y423249D01*
X597214Y423334D01*
X597164Y423416D01*
X597110Y423497D01*
X597054Y423575D01*
X596994Y423651D01*
X596932Y423725D01*
X596866Y423796D01*
X596798Y423864D01*
X596727Y423930D01*
X596653Y423992D01*
X596577Y424052D01*
X596499Y424108D01*
X596418Y424162D01*
X596336Y424212D01*
X596251Y424258D01*
X596164Y424301D01*
X596076Y424341D01*
X595987Y424377D01*
X595896Y424410D01*
X595803Y424438D01*
X595710Y424463D01*
X595616Y424485D01*
X595521Y424502D01*
X595425Y424516D01*
X595329Y424525D01*
X595233Y424531D01*
X595136Y424533D01*
X595039Y424531D01*
X594943Y424525D01*
X594847Y424516D01*
X594751Y424502D01*
X594656Y424485D01*
X594562Y424463D01*
X594469Y424438D01*
X594376Y424410D01*
X594285Y424377D01*
X594196Y424341D01*
X594108Y424301D01*
X594021Y424258D01*
X593937Y424212D01*
X593854Y424162D01*
X593773Y424108D01*
X593695Y424052D01*
X593619Y423992D01*
X593545Y423930D01*
X593474Y423864D01*
X593406Y423796D01*
X593340Y423725D01*
X593278Y423651D01*
X593218Y423575D01*
X593162Y423497D01*
X593108Y423416D01*
X593058Y423334D01*
X593012Y423249D01*
X592969Y423162D01*
X592929Y423074D01*
X592893Y422985D01*
X592860Y422894D01*
X592832Y422801D01*
X592807Y422708D01*
X592785Y422614D01*
X592768Y422519D01*
X592754Y422423D01*
X592745Y422327D01*
X592739Y422231D01*
X592737Y422134D01*
X588899Y422614D02*
X588899Y419735D01*
X588899Y422614D02*
X588901Y422700D01*
X588907Y422786D01*
X588916Y422872D01*
X588930Y422957D01*
X588947Y423041D01*
X588968Y423125D01*
X588993Y423207D01*
X589021Y423288D01*
X589053Y423368D01*
X589089Y423447D01*
X589128Y423523D01*
X589171Y423598D01*
X589216Y423671D01*
X589265Y423742D01*
X589318Y423810D01*
X589373Y423877D01*
X589431Y423940D01*
X589492Y424001D01*
X589555Y424059D01*
X589622Y424114D01*
X589690Y424167D01*
X589761Y424216D01*
X589834Y424261D01*
X589909Y424304D01*
X589985Y424343D01*
X590064Y424379D01*
X590144Y424411D01*
X590225Y424439D01*
X590307Y424464D01*
X590391Y424485D01*
X590475Y424502D01*
X590560Y424516D01*
X590646Y424525D01*
X590732Y424531D01*
X590818Y424533D01*
X590904Y424531D01*
X590990Y424525D01*
X591076Y424516D01*
X591161Y424502D01*
X591245Y424485D01*
X591329Y424464D01*
X591411Y424439D01*
X591492Y424411D01*
X591572Y424379D01*
X591651Y424343D01*
X591727Y424304D01*
X591802Y424261D01*
X591875Y424216D01*
X591946Y424167D01*
X592014Y424114D01*
X592081Y424059D01*
X592144Y424001D01*
X592205Y423940D01*
X592263Y423877D01*
X592318Y423810D01*
X592371Y423742D01*
X592420Y423671D01*
X592465Y423598D01*
X592508Y423523D01*
X592547Y423447D01*
X592583Y423368D01*
X592615Y423288D01*
X592643Y423207D01*
X592668Y423125D01*
X592689Y423041D01*
X592706Y422957D01*
X592720Y422872D01*
X592729Y422786D01*
X592735Y422700D01*
X592737Y422614D01*
X592737Y420695D01*
X549910Y366395D02*
X549910Y358775D01*
X554355Y371602D02*
X554355Y375412D01*
X554353Y375512D01*
X554347Y375611D01*
X554337Y375711D01*
X554324Y375809D01*
X554306Y375908D01*
X554285Y376005D01*
X554260Y376101D01*
X554231Y376197D01*
X554198Y376291D01*
X554162Y376384D01*
X554122Y376475D01*
X554078Y376565D01*
X554031Y376653D01*
X553981Y376739D01*
X553927Y376823D01*
X553870Y376905D01*
X553810Y376984D01*
X553746Y377062D01*
X553680Y377136D01*
X553611Y377208D01*
X553539Y377277D01*
X553465Y377343D01*
X553387Y377407D01*
X553308Y377467D01*
X553226Y377524D01*
X553142Y377578D01*
X553056Y377628D01*
X552968Y377675D01*
X552878Y377719D01*
X552787Y377759D01*
X552694Y377795D01*
X552600Y377828D01*
X552504Y377857D01*
X552408Y377882D01*
X552311Y377903D01*
X552212Y377921D01*
X552114Y377934D01*
X552014Y377944D01*
X551915Y377950D01*
X551815Y377952D01*
X550545Y377952D01*
X550445Y377950D01*
X550346Y377944D01*
X550246Y377934D01*
X550148Y377921D01*
X550049Y377903D01*
X549952Y377882D01*
X549856Y377857D01*
X549760Y377828D01*
X549666Y377795D01*
X549573Y377759D01*
X549482Y377719D01*
X549392Y377675D01*
X549304Y377628D01*
X549218Y377578D01*
X549134Y377524D01*
X549052Y377467D01*
X548973Y377407D01*
X548895Y377343D01*
X548821Y377277D01*
X548749Y377208D01*
X548680Y377136D01*
X548614Y377062D01*
X548550Y376984D01*
X548490Y376905D01*
X548433Y376823D01*
X548379Y376739D01*
X548329Y376653D01*
X548282Y376565D01*
X548238Y376475D01*
X548198Y376384D01*
X548162Y376291D01*
X548129Y376197D01*
X548100Y376101D01*
X548075Y376005D01*
X548054Y375908D01*
X548036Y375809D01*
X548023Y375711D01*
X548013Y375611D01*
X548007Y375512D01*
X548005Y375412D01*
X548005Y371602D01*
X542925Y371602D01*
X542925Y377952D01*
X542925Y382397D02*
X554355Y386207D01*
X542925Y390017D01*
X555625Y393954D02*
X555625Y399034D01*
X548005Y408432D02*
X548005Y410337D01*
X554355Y410337D01*
X554355Y406527D01*
X554353Y406427D01*
X554347Y406328D01*
X554337Y406228D01*
X554324Y406130D01*
X554306Y406031D01*
X554285Y405934D01*
X554260Y405838D01*
X554231Y405742D01*
X554198Y405648D01*
X554162Y405555D01*
X554122Y405464D01*
X554078Y405374D01*
X554031Y405286D01*
X553981Y405200D01*
X553927Y405116D01*
X553870Y405034D01*
X553810Y404955D01*
X553746Y404877D01*
X553680Y404803D01*
X553611Y404731D01*
X553539Y404662D01*
X553465Y404596D01*
X553387Y404532D01*
X553308Y404472D01*
X553226Y404415D01*
X553142Y404361D01*
X553056Y404311D01*
X552968Y404264D01*
X552878Y404220D01*
X552787Y404180D01*
X552694Y404144D01*
X552600Y404111D01*
X552504Y404082D01*
X552408Y404057D01*
X552311Y404036D01*
X552212Y404018D01*
X552114Y404005D01*
X552014Y403995D01*
X551915Y403989D01*
X551815Y403987D01*
X545465Y403987D01*
X545365Y403989D01*
X545266Y403995D01*
X545166Y404005D01*
X545068Y404018D01*
X544969Y404036D01*
X544872Y404057D01*
X544776Y404082D01*
X544680Y404111D01*
X544586Y404144D01*
X544493Y404180D01*
X544402Y404220D01*
X544312Y404264D01*
X544224Y404311D01*
X544138Y404361D01*
X544054Y404415D01*
X543972Y404472D01*
X543893Y404532D01*
X543815Y404596D01*
X543741Y404662D01*
X543669Y404731D01*
X543600Y404803D01*
X543534Y404877D01*
X543470Y404955D01*
X543410Y405034D01*
X543353Y405116D01*
X543299Y405200D01*
X543249Y405286D01*
X543202Y405374D01*
X543158Y405464D01*
X543118Y405555D01*
X543082Y405648D01*
X543049Y405742D01*
X543020Y405838D01*
X542995Y405934D01*
X542974Y406031D01*
X542956Y406130D01*
X542943Y406228D01*
X542933Y406328D01*
X542927Y406427D01*
X542925Y406527D01*
X542925Y410337D01*
X542925Y416179D02*
X554355Y416179D01*
X554355Y422529D02*
X542925Y416179D01*
X542925Y422529D02*
X554355Y422529D01*
X554355Y428371D02*
X542925Y428371D01*
X542925Y431546D01*
X542927Y431657D01*
X542933Y431767D01*
X542942Y431878D01*
X542956Y431988D01*
X542973Y432097D01*
X542994Y432206D01*
X543019Y432314D01*
X543048Y432421D01*
X543080Y432527D01*
X543116Y432632D01*
X543156Y432735D01*
X543199Y432837D01*
X543246Y432938D01*
X543297Y433037D01*
X543350Y433134D01*
X543407Y433228D01*
X543468Y433321D01*
X543531Y433412D01*
X543598Y433501D01*
X543668Y433587D01*
X543741Y433670D01*
X543816Y433752D01*
X543894Y433830D01*
X543976Y433905D01*
X544059Y433978D01*
X544145Y434048D01*
X544234Y434115D01*
X544325Y434178D01*
X544418Y434239D01*
X544513Y434296D01*
X544609Y434349D01*
X544708Y434400D01*
X544809Y434447D01*
X544911Y434490D01*
X545014Y434530D01*
X545119Y434566D01*
X545225Y434598D01*
X545332Y434627D01*
X545440Y434652D01*
X545549Y434673D01*
X545658Y434690D01*
X545768Y434704D01*
X545879Y434713D01*
X545989Y434719D01*
X546100Y434721D01*
X551180Y434721D01*
X551291Y434719D01*
X551401Y434713D01*
X551512Y434704D01*
X551622Y434690D01*
X551731Y434673D01*
X551840Y434652D01*
X551948Y434627D01*
X552055Y434598D01*
X552161Y434566D01*
X552266Y434530D01*
X552369Y434490D01*
X552471Y434447D01*
X552572Y434400D01*
X552671Y434349D01*
X552768Y434296D01*
X552862Y434239D01*
X552955Y434178D01*
X553046Y434115D01*
X553135Y434048D01*
X553221Y433978D01*
X553304Y433905D01*
X553386Y433830D01*
X553464Y433752D01*
X553539Y433670D01*
X553612Y433587D01*
X553682Y433501D01*
X553749Y433412D01*
X553812Y433321D01*
X553873Y433228D01*
X553930Y433134D01*
X553983Y433037D01*
X554034Y432938D01*
X554081Y432837D01*
X554124Y432735D01*
X554164Y432632D01*
X554200Y432527D01*
X554232Y432421D01*
X554261Y432314D01*
X554286Y432206D01*
X554307Y432097D01*
X554324Y431988D01*
X554338Y431878D01*
X554347Y431767D01*
X554353Y431657D01*
X554355Y431546D01*
X554355Y428371D01*
X555625Y439674D02*
X555625Y444754D01*
X549910Y449453D02*
X549910Y457073D01*
X553720Y453263D02*
X546100Y453263D01*
X554355Y462280D02*
X554355Y466090D01*
X554353Y466190D01*
X554347Y466289D01*
X554337Y466389D01*
X554324Y466487D01*
X554306Y466586D01*
X554285Y466683D01*
X554260Y466779D01*
X554231Y466875D01*
X554198Y466969D01*
X554162Y467062D01*
X554122Y467153D01*
X554078Y467243D01*
X554031Y467331D01*
X553981Y467417D01*
X553927Y467501D01*
X553870Y467583D01*
X553810Y467662D01*
X553746Y467740D01*
X553680Y467814D01*
X553611Y467886D01*
X553539Y467955D01*
X553465Y468021D01*
X553387Y468085D01*
X553308Y468145D01*
X553226Y468202D01*
X553142Y468256D01*
X553056Y468306D01*
X552968Y468353D01*
X552878Y468397D01*
X552787Y468437D01*
X552694Y468473D01*
X552600Y468506D01*
X552504Y468535D01*
X552408Y468560D01*
X552311Y468581D01*
X552212Y468599D01*
X552114Y468612D01*
X552014Y468622D01*
X551915Y468628D01*
X551815Y468630D01*
X550545Y468630D01*
X550445Y468628D01*
X550346Y468622D01*
X550246Y468612D01*
X550148Y468599D01*
X550049Y468581D01*
X549952Y468560D01*
X549856Y468535D01*
X549760Y468506D01*
X549666Y468473D01*
X549573Y468437D01*
X549482Y468397D01*
X549392Y468353D01*
X549304Y468306D01*
X549218Y468256D01*
X549134Y468202D01*
X549052Y468145D01*
X548973Y468085D01*
X548895Y468021D01*
X548821Y467955D01*
X548749Y467886D01*
X548680Y467814D01*
X548614Y467740D01*
X548550Y467662D01*
X548490Y467583D01*
X548433Y467501D01*
X548379Y467417D01*
X548329Y467331D01*
X548282Y467243D01*
X548238Y467153D01*
X548198Y467062D01*
X548162Y466969D01*
X548129Y466875D01*
X548100Y466779D01*
X548075Y466683D01*
X548054Y466586D01*
X548036Y466487D01*
X548023Y466389D01*
X548013Y466289D01*
X548007Y466190D01*
X548005Y466090D01*
X548005Y462280D01*
X542925Y462280D01*
X542925Y468630D01*
X542925Y473075D02*
X554355Y476885D01*
X542925Y480695D01*
D10*
X562610Y289560D02*
X605790Y289560D01*
X605790Y320040D02*
X562610Y320040D01*
X560070Y317500D02*
X560070Y292100D01*
X608330Y292100D02*
X608330Y317500D01*
X562610Y289560D02*
X562510Y289562D01*
X562411Y289568D01*
X562311Y289578D01*
X562213Y289591D01*
X562114Y289609D01*
X562017Y289630D01*
X561921Y289655D01*
X561825Y289684D01*
X561731Y289717D01*
X561638Y289753D01*
X561547Y289793D01*
X561457Y289837D01*
X561369Y289884D01*
X561283Y289934D01*
X561199Y289988D01*
X561117Y290045D01*
X561038Y290105D01*
X560960Y290169D01*
X560886Y290235D01*
X560814Y290304D01*
X560745Y290376D01*
X560679Y290450D01*
X560615Y290528D01*
X560555Y290607D01*
X560498Y290689D01*
X560444Y290773D01*
X560394Y290859D01*
X560347Y290947D01*
X560303Y291037D01*
X560263Y291128D01*
X560227Y291221D01*
X560194Y291315D01*
X560165Y291411D01*
X560140Y291507D01*
X560119Y291604D01*
X560101Y291703D01*
X560088Y291801D01*
X560078Y291901D01*
X560072Y292000D01*
X560070Y292100D01*
X605790Y289560D02*
X605890Y289562D01*
X605989Y289568D01*
X606089Y289578D01*
X606187Y289591D01*
X606286Y289609D01*
X606383Y289630D01*
X606479Y289655D01*
X606575Y289684D01*
X606669Y289717D01*
X606762Y289753D01*
X606853Y289793D01*
X606943Y289837D01*
X607031Y289884D01*
X607117Y289934D01*
X607201Y289988D01*
X607283Y290045D01*
X607362Y290105D01*
X607440Y290169D01*
X607514Y290235D01*
X607586Y290304D01*
X607655Y290376D01*
X607721Y290450D01*
X607785Y290528D01*
X607845Y290607D01*
X607902Y290689D01*
X607956Y290773D01*
X608006Y290859D01*
X608053Y290947D01*
X608097Y291037D01*
X608137Y291128D01*
X608173Y291221D01*
X608206Y291315D01*
X608235Y291411D01*
X608260Y291507D01*
X608281Y291604D01*
X608299Y291703D01*
X608312Y291801D01*
X608322Y291901D01*
X608328Y292000D01*
X608330Y292100D01*
X562610Y320040D02*
X562510Y320038D01*
X562411Y320032D01*
X562311Y320022D01*
X562213Y320009D01*
X562114Y319991D01*
X562017Y319970D01*
X561921Y319945D01*
X561825Y319916D01*
X561731Y319883D01*
X561638Y319847D01*
X561547Y319807D01*
X561457Y319763D01*
X561369Y319716D01*
X561283Y319666D01*
X561199Y319612D01*
X561117Y319555D01*
X561038Y319495D01*
X560960Y319431D01*
X560886Y319365D01*
X560814Y319296D01*
X560745Y319224D01*
X560679Y319150D01*
X560615Y319072D01*
X560555Y318993D01*
X560498Y318911D01*
X560444Y318827D01*
X560394Y318741D01*
X560347Y318653D01*
X560303Y318563D01*
X560263Y318472D01*
X560227Y318379D01*
X560194Y318285D01*
X560165Y318189D01*
X560140Y318093D01*
X560119Y317996D01*
X560101Y317897D01*
X560088Y317799D01*
X560078Y317699D01*
X560072Y317600D01*
X560070Y317500D01*
X605790Y320040D02*
X605890Y320038D01*
X605989Y320032D01*
X606089Y320022D01*
X606187Y320009D01*
X606286Y319991D01*
X606383Y319970D01*
X606479Y319945D01*
X606575Y319916D01*
X606669Y319883D01*
X606762Y319847D01*
X606853Y319807D01*
X606943Y319763D01*
X607031Y319716D01*
X607117Y319666D01*
X607201Y319612D01*
X607283Y319555D01*
X607362Y319495D01*
X607440Y319431D01*
X607514Y319365D01*
X607586Y319296D01*
X607655Y319224D01*
X607721Y319150D01*
X607785Y319072D01*
X607845Y318993D01*
X607902Y318911D01*
X607956Y318827D01*
X608006Y318741D01*
X608053Y318653D01*
X608097Y318563D01*
X608137Y318472D01*
X608173Y318379D01*
X608206Y318285D01*
X608235Y318189D01*
X608260Y318093D01*
X608281Y317996D01*
X608299Y317897D01*
X608312Y317799D01*
X608322Y317699D01*
X608328Y317600D01*
X608330Y317500D01*
X581660Y304800D02*
X580390Y304800D01*
D12*
X581660Y304800D02*
X581660Y297180D01*
X581660Y304800D02*
X581660Y312420D01*
X586740Y304800D02*
X586740Y297180D01*
X586740Y304800D02*
X586740Y312420D01*
D10*
X586740Y304800D02*
X588010Y304800D01*
D11*
X589243Y274955D02*
X586703Y274955D01*
X586603Y274957D01*
X586504Y274963D01*
X586404Y274973D01*
X586306Y274986D01*
X586207Y275004D01*
X586110Y275025D01*
X586014Y275050D01*
X585918Y275079D01*
X585824Y275112D01*
X585731Y275148D01*
X585640Y275188D01*
X585550Y275232D01*
X585462Y275279D01*
X585376Y275329D01*
X585292Y275383D01*
X585210Y275440D01*
X585131Y275500D01*
X585053Y275564D01*
X584979Y275630D01*
X584907Y275699D01*
X584838Y275771D01*
X584772Y275845D01*
X584708Y275923D01*
X584648Y276002D01*
X584591Y276084D01*
X584537Y276168D01*
X584487Y276254D01*
X584440Y276342D01*
X584396Y276432D01*
X584356Y276523D01*
X584320Y276616D01*
X584287Y276710D01*
X584258Y276806D01*
X584233Y276902D01*
X584212Y276999D01*
X584194Y277098D01*
X584181Y277196D01*
X584171Y277296D01*
X584165Y277395D01*
X584163Y277495D01*
X584163Y283845D01*
X584165Y283945D01*
X584171Y284044D01*
X584181Y284144D01*
X584194Y284242D01*
X584212Y284341D01*
X584233Y284438D01*
X584258Y284534D01*
X584287Y284630D01*
X584320Y284724D01*
X584356Y284817D01*
X584396Y284908D01*
X584440Y284998D01*
X584487Y285086D01*
X584537Y285172D01*
X584591Y285256D01*
X584648Y285338D01*
X584708Y285417D01*
X584772Y285495D01*
X584838Y285569D01*
X584907Y285641D01*
X584979Y285710D01*
X585053Y285776D01*
X585131Y285840D01*
X585210Y285900D01*
X585292Y285957D01*
X585376Y286011D01*
X585462Y286061D01*
X585550Y286108D01*
X585640Y286152D01*
X585731Y286192D01*
X585824Y286228D01*
X585918Y286261D01*
X586014Y286290D01*
X586110Y286315D01*
X586207Y286336D01*
X586306Y286354D01*
X586404Y286367D01*
X586504Y286377D01*
X586603Y286383D01*
X586703Y286385D01*
X589243Y286385D01*
X593725Y283845D02*
X596900Y286385D01*
X596900Y274955D01*
X593725Y274955D02*
X600075Y274955D01*
D10*
X447040Y372110D02*
X447040Y415290D01*
X416560Y415290D02*
X416560Y372110D01*
X419100Y369570D02*
X444500Y369570D01*
X444500Y417830D02*
X419100Y417830D01*
X447040Y372110D02*
X447038Y372010D01*
X447032Y371911D01*
X447022Y371811D01*
X447009Y371713D01*
X446991Y371614D01*
X446970Y371517D01*
X446945Y371421D01*
X446916Y371325D01*
X446883Y371231D01*
X446847Y371138D01*
X446807Y371047D01*
X446763Y370957D01*
X446716Y370869D01*
X446666Y370783D01*
X446612Y370699D01*
X446555Y370617D01*
X446495Y370538D01*
X446431Y370460D01*
X446365Y370386D01*
X446296Y370314D01*
X446224Y370245D01*
X446150Y370179D01*
X446072Y370115D01*
X445993Y370055D01*
X445911Y369998D01*
X445827Y369944D01*
X445741Y369894D01*
X445653Y369847D01*
X445563Y369803D01*
X445472Y369763D01*
X445379Y369727D01*
X445285Y369694D01*
X445189Y369665D01*
X445093Y369640D01*
X444996Y369619D01*
X444897Y369601D01*
X444799Y369588D01*
X444699Y369578D01*
X444600Y369572D01*
X444500Y369570D01*
X447040Y415290D02*
X447038Y415390D01*
X447032Y415489D01*
X447022Y415589D01*
X447009Y415687D01*
X446991Y415786D01*
X446970Y415883D01*
X446945Y415979D01*
X446916Y416075D01*
X446883Y416169D01*
X446847Y416262D01*
X446807Y416353D01*
X446763Y416443D01*
X446716Y416531D01*
X446666Y416617D01*
X446612Y416701D01*
X446555Y416783D01*
X446495Y416862D01*
X446431Y416940D01*
X446365Y417014D01*
X446296Y417086D01*
X446224Y417155D01*
X446150Y417221D01*
X446072Y417285D01*
X445993Y417345D01*
X445911Y417402D01*
X445827Y417456D01*
X445741Y417506D01*
X445653Y417553D01*
X445563Y417597D01*
X445472Y417637D01*
X445379Y417673D01*
X445285Y417706D01*
X445189Y417735D01*
X445093Y417760D01*
X444996Y417781D01*
X444897Y417799D01*
X444799Y417812D01*
X444699Y417822D01*
X444600Y417828D01*
X444500Y417830D01*
X416560Y372110D02*
X416562Y372010D01*
X416568Y371911D01*
X416578Y371811D01*
X416591Y371713D01*
X416609Y371614D01*
X416630Y371517D01*
X416655Y371421D01*
X416684Y371325D01*
X416717Y371231D01*
X416753Y371138D01*
X416793Y371047D01*
X416837Y370957D01*
X416884Y370869D01*
X416934Y370783D01*
X416988Y370699D01*
X417045Y370617D01*
X417105Y370538D01*
X417169Y370460D01*
X417235Y370386D01*
X417304Y370314D01*
X417376Y370245D01*
X417450Y370179D01*
X417528Y370115D01*
X417607Y370055D01*
X417689Y369998D01*
X417773Y369944D01*
X417859Y369894D01*
X417947Y369847D01*
X418037Y369803D01*
X418128Y369763D01*
X418221Y369727D01*
X418315Y369694D01*
X418411Y369665D01*
X418507Y369640D01*
X418604Y369619D01*
X418703Y369601D01*
X418801Y369588D01*
X418901Y369578D01*
X419000Y369572D01*
X419100Y369570D01*
X416560Y415290D02*
X416562Y415390D01*
X416568Y415489D01*
X416578Y415589D01*
X416591Y415687D01*
X416609Y415786D01*
X416630Y415883D01*
X416655Y415979D01*
X416684Y416075D01*
X416717Y416169D01*
X416753Y416262D01*
X416793Y416353D01*
X416837Y416443D01*
X416884Y416531D01*
X416934Y416617D01*
X416988Y416701D01*
X417045Y416783D01*
X417105Y416862D01*
X417169Y416940D01*
X417235Y417014D01*
X417304Y417086D01*
X417376Y417155D01*
X417450Y417221D01*
X417528Y417285D01*
X417607Y417345D01*
X417689Y417402D01*
X417773Y417456D01*
X417859Y417506D01*
X417947Y417553D01*
X418037Y417597D01*
X418128Y417637D01*
X418221Y417673D01*
X418315Y417706D01*
X418411Y417735D01*
X418507Y417760D01*
X418604Y417781D01*
X418703Y417799D01*
X418801Y417812D01*
X418901Y417822D01*
X419000Y417828D01*
X419100Y417830D01*
X431800Y391160D02*
X431800Y389890D01*
D12*
X431800Y391160D02*
X439420Y391160D01*
X431800Y391160D02*
X424180Y391160D01*
X431800Y396240D02*
X439420Y396240D01*
X431800Y396240D02*
X424180Y396240D01*
D10*
X431800Y396240D02*
X431800Y397510D01*
D11*
X461645Y398743D02*
X461645Y396203D01*
X461643Y396103D01*
X461637Y396004D01*
X461627Y395904D01*
X461614Y395806D01*
X461596Y395707D01*
X461575Y395610D01*
X461550Y395514D01*
X461521Y395418D01*
X461488Y395324D01*
X461452Y395231D01*
X461412Y395140D01*
X461368Y395050D01*
X461321Y394962D01*
X461271Y394876D01*
X461217Y394792D01*
X461160Y394710D01*
X461100Y394631D01*
X461036Y394553D01*
X460970Y394479D01*
X460901Y394407D01*
X460829Y394338D01*
X460755Y394272D01*
X460677Y394208D01*
X460598Y394148D01*
X460516Y394091D01*
X460432Y394037D01*
X460346Y393987D01*
X460258Y393940D01*
X460168Y393896D01*
X460077Y393856D01*
X459984Y393820D01*
X459890Y393787D01*
X459794Y393758D01*
X459698Y393733D01*
X459601Y393712D01*
X459502Y393694D01*
X459404Y393681D01*
X459304Y393671D01*
X459205Y393665D01*
X459105Y393663D01*
X452755Y393663D01*
X452655Y393665D01*
X452556Y393671D01*
X452456Y393681D01*
X452358Y393694D01*
X452259Y393712D01*
X452162Y393733D01*
X452066Y393758D01*
X451970Y393787D01*
X451876Y393820D01*
X451783Y393856D01*
X451692Y393896D01*
X451602Y393940D01*
X451514Y393987D01*
X451428Y394037D01*
X451344Y394091D01*
X451262Y394148D01*
X451183Y394208D01*
X451105Y394272D01*
X451031Y394338D01*
X450959Y394407D01*
X450890Y394479D01*
X450824Y394553D01*
X450760Y394631D01*
X450700Y394710D01*
X450643Y394792D01*
X450589Y394876D01*
X450539Y394962D01*
X450492Y395050D01*
X450448Y395140D01*
X450408Y395231D01*
X450372Y395324D01*
X450339Y395418D01*
X450310Y395514D01*
X450285Y395610D01*
X450264Y395707D01*
X450246Y395806D01*
X450233Y395904D01*
X450223Y396004D01*
X450217Y396103D01*
X450215Y396203D01*
X450215Y398743D01*
X450215Y406718D02*
X450217Y406822D01*
X450223Y406927D01*
X450232Y407031D01*
X450245Y407134D01*
X450263Y407237D01*
X450283Y407339D01*
X450308Y407441D01*
X450336Y407541D01*
X450368Y407641D01*
X450404Y407739D01*
X450443Y407836D01*
X450485Y407931D01*
X450531Y408025D01*
X450581Y408117D01*
X450633Y408207D01*
X450689Y408295D01*
X450749Y408381D01*
X450811Y408465D01*
X450876Y408546D01*
X450944Y408625D01*
X451016Y408702D01*
X451089Y408775D01*
X451166Y408847D01*
X451245Y408915D01*
X451326Y408980D01*
X451410Y409042D01*
X451496Y409102D01*
X451584Y409158D01*
X451674Y409210D01*
X451766Y409260D01*
X451860Y409306D01*
X451955Y409348D01*
X452052Y409387D01*
X452150Y409423D01*
X452250Y409455D01*
X452350Y409483D01*
X452452Y409508D01*
X452554Y409528D01*
X452657Y409546D01*
X452760Y409559D01*
X452864Y409568D01*
X452969Y409574D01*
X453073Y409576D01*
X450215Y406718D02*
X450217Y406600D01*
X450223Y406481D01*
X450232Y406363D01*
X450245Y406246D01*
X450263Y406129D01*
X450283Y406012D01*
X450308Y405896D01*
X450336Y405781D01*
X450369Y405668D01*
X450404Y405555D01*
X450444Y405443D01*
X450486Y405333D01*
X450533Y405224D01*
X450583Y405116D01*
X450636Y405011D01*
X450693Y404907D01*
X450753Y404805D01*
X450816Y404705D01*
X450883Y404607D01*
X450952Y404511D01*
X451025Y404418D01*
X451101Y404327D01*
X451179Y404238D01*
X451261Y404152D01*
X451345Y404069D01*
X451431Y403988D01*
X451521Y403911D01*
X451612Y403836D01*
X451706Y403764D01*
X451803Y403695D01*
X451901Y403630D01*
X452002Y403567D01*
X452105Y403508D01*
X452209Y403452D01*
X452315Y403400D01*
X452423Y403351D01*
X452532Y403306D01*
X452643Y403264D01*
X452755Y403226D01*
X455295Y408623D02*
X455220Y408699D01*
X455141Y408774D01*
X455060Y408845D01*
X454976Y408914D01*
X454890Y408979D01*
X454802Y409041D01*
X454712Y409101D01*
X454620Y409157D01*
X454525Y409210D01*
X454429Y409259D01*
X454331Y409305D01*
X454232Y409348D01*
X454131Y409387D01*
X454029Y409422D01*
X453926Y409454D01*
X453822Y409482D01*
X453717Y409507D01*
X453610Y409528D01*
X453504Y409545D01*
X453397Y409558D01*
X453289Y409567D01*
X453181Y409573D01*
X453073Y409575D01*
X455295Y408623D02*
X461645Y403225D01*
X461645Y409575D01*
D10*
X364490Y408940D02*
X321310Y408940D01*
X321310Y378460D02*
X364490Y378460D01*
X367030Y381000D02*
X367030Y406400D01*
X318770Y406400D02*
X318770Y381000D01*
X364490Y408940D02*
X364590Y408938D01*
X364689Y408932D01*
X364789Y408922D01*
X364887Y408909D01*
X364986Y408891D01*
X365083Y408870D01*
X365179Y408845D01*
X365275Y408816D01*
X365369Y408783D01*
X365462Y408747D01*
X365553Y408707D01*
X365643Y408663D01*
X365731Y408616D01*
X365817Y408566D01*
X365901Y408512D01*
X365983Y408455D01*
X366062Y408395D01*
X366140Y408331D01*
X366214Y408265D01*
X366286Y408196D01*
X366355Y408124D01*
X366421Y408050D01*
X366485Y407972D01*
X366545Y407893D01*
X366602Y407811D01*
X366656Y407727D01*
X366706Y407641D01*
X366753Y407553D01*
X366797Y407463D01*
X366837Y407372D01*
X366873Y407279D01*
X366906Y407185D01*
X366935Y407089D01*
X366960Y406993D01*
X366981Y406896D01*
X366999Y406797D01*
X367012Y406699D01*
X367022Y406599D01*
X367028Y406500D01*
X367030Y406400D01*
X321310Y408940D02*
X321210Y408938D01*
X321111Y408932D01*
X321011Y408922D01*
X320913Y408909D01*
X320814Y408891D01*
X320717Y408870D01*
X320621Y408845D01*
X320525Y408816D01*
X320431Y408783D01*
X320338Y408747D01*
X320247Y408707D01*
X320157Y408663D01*
X320069Y408616D01*
X319983Y408566D01*
X319899Y408512D01*
X319817Y408455D01*
X319738Y408395D01*
X319660Y408331D01*
X319586Y408265D01*
X319514Y408196D01*
X319445Y408124D01*
X319379Y408050D01*
X319315Y407972D01*
X319255Y407893D01*
X319198Y407811D01*
X319144Y407727D01*
X319094Y407641D01*
X319047Y407553D01*
X319003Y407463D01*
X318963Y407372D01*
X318927Y407279D01*
X318894Y407185D01*
X318865Y407089D01*
X318840Y406993D01*
X318819Y406896D01*
X318801Y406797D01*
X318788Y406699D01*
X318778Y406599D01*
X318772Y406500D01*
X318770Y406400D01*
X364490Y378460D02*
X364590Y378462D01*
X364689Y378468D01*
X364789Y378478D01*
X364887Y378491D01*
X364986Y378509D01*
X365083Y378530D01*
X365179Y378555D01*
X365275Y378584D01*
X365369Y378617D01*
X365462Y378653D01*
X365553Y378693D01*
X365643Y378737D01*
X365731Y378784D01*
X365817Y378834D01*
X365901Y378888D01*
X365983Y378945D01*
X366062Y379005D01*
X366140Y379069D01*
X366214Y379135D01*
X366286Y379204D01*
X366355Y379276D01*
X366421Y379350D01*
X366485Y379428D01*
X366545Y379507D01*
X366602Y379589D01*
X366656Y379673D01*
X366706Y379759D01*
X366753Y379847D01*
X366797Y379937D01*
X366837Y380028D01*
X366873Y380121D01*
X366906Y380215D01*
X366935Y380311D01*
X366960Y380407D01*
X366981Y380504D01*
X366999Y380603D01*
X367012Y380701D01*
X367022Y380801D01*
X367028Y380900D01*
X367030Y381000D01*
X321310Y378460D02*
X321210Y378462D01*
X321111Y378468D01*
X321011Y378478D01*
X320913Y378491D01*
X320814Y378509D01*
X320717Y378530D01*
X320621Y378555D01*
X320525Y378584D01*
X320431Y378617D01*
X320338Y378653D01*
X320247Y378693D01*
X320157Y378737D01*
X320069Y378784D01*
X319983Y378834D01*
X319899Y378888D01*
X319817Y378945D01*
X319738Y379005D01*
X319660Y379069D01*
X319586Y379135D01*
X319514Y379204D01*
X319445Y379276D01*
X319379Y379350D01*
X319315Y379428D01*
X319255Y379507D01*
X319198Y379589D01*
X319144Y379673D01*
X319094Y379759D01*
X319047Y379847D01*
X319003Y379937D01*
X318963Y380028D01*
X318927Y380121D01*
X318894Y380215D01*
X318865Y380311D01*
X318840Y380407D01*
X318819Y380504D01*
X318801Y380603D01*
X318788Y380701D01*
X318778Y380801D01*
X318772Y380900D01*
X318770Y381000D01*
X345440Y393700D02*
X346710Y393700D01*
D12*
X345440Y393700D02*
X345440Y401320D01*
X345440Y393700D02*
X345440Y386080D01*
X340360Y393700D02*
X340360Y401320D01*
X340360Y393700D02*
X340360Y386080D01*
D10*
X340360Y393700D02*
X339090Y393700D01*
D11*
X332105Y412115D02*
X329565Y412115D01*
X329465Y412117D01*
X329366Y412123D01*
X329266Y412133D01*
X329168Y412146D01*
X329069Y412164D01*
X328972Y412185D01*
X328876Y412210D01*
X328780Y412239D01*
X328686Y412272D01*
X328593Y412308D01*
X328502Y412348D01*
X328412Y412392D01*
X328324Y412439D01*
X328238Y412489D01*
X328154Y412543D01*
X328072Y412600D01*
X327993Y412660D01*
X327915Y412724D01*
X327841Y412790D01*
X327769Y412859D01*
X327700Y412931D01*
X327634Y413005D01*
X327570Y413083D01*
X327510Y413162D01*
X327453Y413244D01*
X327399Y413328D01*
X327349Y413414D01*
X327302Y413502D01*
X327258Y413592D01*
X327218Y413683D01*
X327182Y413776D01*
X327149Y413870D01*
X327120Y413966D01*
X327095Y414062D01*
X327074Y414159D01*
X327056Y414258D01*
X327043Y414356D01*
X327033Y414456D01*
X327027Y414555D01*
X327025Y414655D01*
X327025Y421005D01*
X327027Y421105D01*
X327033Y421204D01*
X327043Y421304D01*
X327056Y421402D01*
X327074Y421501D01*
X327095Y421598D01*
X327120Y421694D01*
X327149Y421790D01*
X327182Y421884D01*
X327218Y421977D01*
X327258Y422068D01*
X327302Y422158D01*
X327349Y422246D01*
X327399Y422332D01*
X327453Y422416D01*
X327510Y422498D01*
X327570Y422577D01*
X327634Y422655D01*
X327700Y422729D01*
X327769Y422801D01*
X327841Y422870D01*
X327915Y422936D01*
X327993Y423000D01*
X328072Y423060D01*
X328154Y423117D01*
X328238Y423171D01*
X328324Y423221D01*
X328412Y423268D01*
X328502Y423312D01*
X328593Y423352D01*
X328686Y423388D01*
X328780Y423421D01*
X328876Y423450D01*
X328972Y423475D01*
X329069Y423496D01*
X329168Y423514D01*
X329266Y423527D01*
X329366Y423537D01*
X329465Y423543D01*
X329565Y423545D01*
X332105Y423545D01*
X336587Y412115D02*
X339762Y412115D01*
X339873Y412117D01*
X339983Y412123D01*
X340094Y412132D01*
X340204Y412146D01*
X340313Y412163D01*
X340422Y412184D01*
X340530Y412209D01*
X340637Y412238D01*
X340743Y412270D01*
X340848Y412306D01*
X340951Y412346D01*
X341053Y412389D01*
X341154Y412436D01*
X341253Y412487D01*
X341350Y412540D01*
X341444Y412597D01*
X341537Y412658D01*
X341628Y412721D01*
X341717Y412788D01*
X341803Y412858D01*
X341886Y412931D01*
X341968Y413006D01*
X342046Y413084D01*
X342121Y413166D01*
X342194Y413249D01*
X342264Y413335D01*
X342331Y413424D01*
X342394Y413515D01*
X342455Y413608D01*
X342512Y413702D01*
X342565Y413799D01*
X342616Y413898D01*
X342663Y413999D01*
X342706Y414101D01*
X342746Y414204D01*
X342782Y414309D01*
X342814Y414415D01*
X342843Y414522D01*
X342868Y414630D01*
X342889Y414739D01*
X342906Y414848D01*
X342920Y414958D01*
X342929Y415069D01*
X342935Y415179D01*
X342937Y415290D01*
X342935Y415401D01*
X342929Y415511D01*
X342920Y415622D01*
X342906Y415732D01*
X342889Y415841D01*
X342868Y415950D01*
X342843Y416058D01*
X342814Y416165D01*
X342782Y416271D01*
X342746Y416376D01*
X342706Y416479D01*
X342663Y416581D01*
X342616Y416682D01*
X342565Y416781D01*
X342512Y416877D01*
X342455Y416972D01*
X342394Y417065D01*
X342331Y417156D01*
X342264Y417245D01*
X342194Y417331D01*
X342121Y417414D01*
X342046Y417496D01*
X341968Y417574D01*
X341886Y417649D01*
X341803Y417722D01*
X341717Y417792D01*
X341628Y417859D01*
X341537Y417922D01*
X341444Y417983D01*
X341350Y418040D01*
X341253Y418093D01*
X341154Y418144D01*
X341053Y418191D01*
X340951Y418234D01*
X340848Y418274D01*
X340743Y418310D01*
X340637Y418342D01*
X340530Y418371D01*
X340422Y418396D01*
X340313Y418417D01*
X340204Y418434D01*
X340094Y418448D01*
X339983Y418457D01*
X339873Y418463D01*
X339762Y418465D01*
X340397Y423545D02*
X336587Y423545D01*
X340397Y423545D02*
X340497Y423543D01*
X340596Y423537D01*
X340696Y423527D01*
X340794Y423514D01*
X340893Y423496D01*
X340990Y423475D01*
X341086Y423450D01*
X341182Y423421D01*
X341276Y423388D01*
X341369Y423352D01*
X341460Y423312D01*
X341550Y423268D01*
X341638Y423221D01*
X341724Y423171D01*
X341808Y423117D01*
X341890Y423060D01*
X341969Y423000D01*
X342047Y422936D01*
X342121Y422870D01*
X342193Y422801D01*
X342262Y422729D01*
X342328Y422655D01*
X342392Y422577D01*
X342452Y422498D01*
X342509Y422416D01*
X342563Y422332D01*
X342613Y422246D01*
X342660Y422158D01*
X342704Y422068D01*
X342744Y421977D01*
X342780Y421884D01*
X342813Y421790D01*
X342842Y421694D01*
X342867Y421598D01*
X342888Y421501D01*
X342906Y421402D01*
X342919Y421304D01*
X342929Y421204D01*
X342935Y421105D01*
X342937Y421005D01*
X342935Y420905D01*
X342929Y420806D01*
X342919Y420706D01*
X342906Y420608D01*
X342888Y420509D01*
X342867Y420412D01*
X342842Y420316D01*
X342813Y420220D01*
X342780Y420126D01*
X342744Y420033D01*
X342704Y419942D01*
X342660Y419852D01*
X342613Y419764D01*
X342563Y419678D01*
X342509Y419594D01*
X342452Y419512D01*
X342392Y419433D01*
X342328Y419355D01*
X342262Y419281D01*
X342193Y419209D01*
X342121Y419140D01*
X342047Y419074D01*
X341969Y419010D01*
X341890Y418950D01*
X341808Y418893D01*
X341724Y418839D01*
X341638Y418789D01*
X341550Y418742D01*
X341460Y418698D01*
X341369Y418658D01*
X341276Y418622D01*
X341182Y418589D01*
X341086Y418560D01*
X340990Y418535D01*
X340893Y418514D01*
X340794Y418496D01*
X340696Y418483D01*
X340596Y418473D01*
X340497Y418467D01*
X340397Y418465D01*
X337857Y418465D01*
D10*
X300990Y142240D02*
X257810Y142240D01*
X257810Y111760D02*
X300990Y111760D01*
X303530Y114300D02*
X303530Y139700D01*
X255270Y139700D02*
X255270Y114300D01*
X300990Y142240D02*
X301090Y142238D01*
X301189Y142232D01*
X301289Y142222D01*
X301387Y142209D01*
X301486Y142191D01*
X301583Y142170D01*
X301679Y142145D01*
X301775Y142116D01*
X301869Y142083D01*
X301962Y142047D01*
X302053Y142007D01*
X302143Y141963D01*
X302231Y141916D01*
X302317Y141866D01*
X302401Y141812D01*
X302483Y141755D01*
X302562Y141695D01*
X302640Y141631D01*
X302714Y141565D01*
X302786Y141496D01*
X302855Y141424D01*
X302921Y141350D01*
X302985Y141272D01*
X303045Y141193D01*
X303102Y141111D01*
X303156Y141027D01*
X303206Y140941D01*
X303253Y140853D01*
X303297Y140763D01*
X303337Y140672D01*
X303373Y140579D01*
X303406Y140485D01*
X303435Y140389D01*
X303460Y140293D01*
X303481Y140196D01*
X303499Y140097D01*
X303512Y139999D01*
X303522Y139899D01*
X303528Y139800D01*
X303530Y139700D01*
X257810Y142240D02*
X257710Y142238D01*
X257611Y142232D01*
X257511Y142222D01*
X257413Y142209D01*
X257314Y142191D01*
X257217Y142170D01*
X257121Y142145D01*
X257025Y142116D01*
X256931Y142083D01*
X256838Y142047D01*
X256747Y142007D01*
X256657Y141963D01*
X256569Y141916D01*
X256483Y141866D01*
X256399Y141812D01*
X256317Y141755D01*
X256238Y141695D01*
X256160Y141631D01*
X256086Y141565D01*
X256014Y141496D01*
X255945Y141424D01*
X255879Y141350D01*
X255815Y141272D01*
X255755Y141193D01*
X255698Y141111D01*
X255644Y141027D01*
X255594Y140941D01*
X255547Y140853D01*
X255503Y140763D01*
X255463Y140672D01*
X255427Y140579D01*
X255394Y140485D01*
X255365Y140389D01*
X255340Y140293D01*
X255319Y140196D01*
X255301Y140097D01*
X255288Y139999D01*
X255278Y139899D01*
X255272Y139800D01*
X255270Y139700D01*
X300990Y111760D02*
X301090Y111762D01*
X301189Y111768D01*
X301289Y111778D01*
X301387Y111791D01*
X301486Y111809D01*
X301583Y111830D01*
X301679Y111855D01*
X301775Y111884D01*
X301869Y111917D01*
X301962Y111953D01*
X302053Y111993D01*
X302143Y112037D01*
X302231Y112084D01*
X302317Y112134D01*
X302401Y112188D01*
X302483Y112245D01*
X302562Y112305D01*
X302640Y112369D01*
X302714Y112435D01*
X302786Y112504D01*
X302855Y112576D01*
X302921Y112650D01*
X302985Y112728D01*
X303045Y112807D01*
X303102Y112889D01*
X303156Y112973D01*
X303206Y113059D01*
X303253Y113147D01*
X303297Y113237D01*
X303337Y113328D01*
X303373Y113421D01*
X303406Y113515D01*
X303435Y113611D01*
X303460Y113707D01*
X303481Y113804D01*
X303499Y113903D01*
X303512Y114001D01*
X303522Y114101D01*
X303528Y114200D01*
X303530Y114300D01*
X257810Y111760D02*
X257710Y111762D01*
X257611Y111768D01*
X257511Y111778D01*
X257413Y111791D01*
X257314Y111809D01*
X257217Y111830D01*
X257121Y111855D01*
X257025Y111884D01*
X256931Y111917D01*
X256838Y111953D01*
X256747Y111993D01*
X256657Y112037D01*
X256569Y112084D01*
X256483Y112134D01*
X256399Y112188D01*
X256317Y112245D01*
X256238Y112305D01*
X256160Y112369D01*
X256086Y112435D01*
X256014Y112504D01*
X255945Y112576D01*
X255879Y112650D01*
X255815Y112728D01*
X255755Y112807D01*
X255698Y112889D01*
X255644Y112973D01*
X255594Y113059D01*
X255547Y113147D01*
X255503Y113237D01*
X255463Y113328D01*
X255427Y113421D01*
X255394Y113515D01*
X255365Y113611D01*
X255340Y113707D01*
X255319Y113804D01*
X255301Y113903D01*
X255288Y114001D01*
X255278Y114101D01*
X255272Y114200D01*
X255270Y114300D01*
X281940Y127000D02*
X283210Y127000D01*
D12*
X281940Y127000D02*
X281940Y134620D01*
X281940Y127000D02*
X281940Y119380D01*
X276860Y127000D02*
X276860Y134620D01*
X276860Y127000D02*
X276860Y119380D01*
D10*
X276860Y127000D02*
X275590Y127000D01*
D11*
X268605Y145415D02*
X266065Y145415D01*
X265965Y145417D01*
X265866Y145423D01*
X265766Y145433D01*
X265668Y145446D01*
X265569Y145464D01*
X265472Y145485D01*
X265376Y145510D01*
X265280Y145539D01*
X265186Y145572D01*
X265093Y145608D01*
X265002Y145648D01*
X264912Y145692D01*
X264824Y145739D01*
X264738Y145789D01*
X264654Y145843D01*
X264572Y145900D01*
X264493Y145960D01*
X264415Y146024D01*
X264341Y146090D01*
X264269Y146159D01*
X264200Y146231D01*
X264134Y146305D01*
X264070Y146383D01*
X264010Y146462D01*
X263953Y146544D01*
X263899Y146628D01*
X263849Y146714D01*
X263802Y146802D01*
X263758Y146892D01*
X263718Y146983D01*
X263682Y147076D01*
X263649Y147170D01*
X263620Y147266D01*
X263595Y147362D01*
X263574Y147459D01*
X263556Y147558D01*
X263543Y147656D01*
X263533Y147756D01*
X263527Y147855D01*
X263525Y147955D01*
X263525Y154305D01*
X263527Y154405D01*
X263533Y154504D01*
X263543Y154604D01*
X263556Y154702D01*
X263574Y154801D01*
X263595Y154898D01*
X263620Y154994D01*
X263649Y155090D01*
X263682Y155184D01*
X263718Y155277D01*
X263758Y155368D01*
X263802Y155458D01*
X263849Y155546D01*
X263899Y155632D01*
X263953Y155716D01*
X264010Y155798D01*
X264070Y155877D01*
X264134Y155955D01*
X264200Y156029D01*
X264269Y156101D01*
X264341Y156170D01*
X264415Y156236D01*
X264493Y156300D01*
X264572Y156360D01*
X264654Y156417D01*
X264738Y156471D01*
X264824Y156521D01*
X264912Y156568D01*
X265002Y156612D01*
X265093Y156652D01*
X265186Y156688D01*
X265280Y156721D01*
X265376Y156750D01*
X265472Y156775D01*
X265569Y156796D01*
X265668Y156814D01*
X265766Y156827D01*
X265866Y156837D01*
X265965Y156843D01*
X266065Y156845D01*
X268605Y156845D01*
X275627Y156845D02*
X273087Y147955D01*
X279437Y147955D01*
X277532Y150495D02*
X277532Y145415D01*
D10*
X236220Y368300D02*
X195580Y368300D01*
X236220Y368300D02*
X236220Y393700D01*
X195580Y393700D01*
X195580Y368300D01*
X209550Y381000D02*
X215900Y381000D01*
X226060Y387350D02*
X226060Y374650D01*
X215900Y381000D01*
X231140Y381000D01*
X226060Y387350D02*
X215900Y381000D01*
X215900Y387350D01*
X215900Y381000D02*
X215900Y374650D01*
D13*
X201930Y381000D03*
D14*
X245745Y381000D03*
X186055Y381000D03*
D11*
X196215Y398145D02*
X196215Y409575D01*
X199390Y409575D01*
X199501Y409573D01*
X199611Y409567D01*
X199722Y409558D01*
X199832Y409544D01*
X199941Y409527D01*
X200050Y409506D01*
X200158Y409481D01*
X200265Y409452D01*
X200371Y409420D01*
X200476Y409384D01*
X200579Y409344D01*
X200681Y409301D01*
X200782Y409254D01*
X200881Y409203D01*
X200978Y409150D01*
X201072Y409093D01*
X201165Y409032D01*
X201256Y408969D01*
X201345Y408902D01*
X201431Y408832D01*
X201514Y408759D01*
X201596Y408684D01*
X201674Y408606D01*
X201749Y408524D01*
X201822Y408441D01*
X201892Y408355D01*
X201959Y408266D01*
X202022Y408175D01*
X202083Y408082D01*
X202140Y407988D01*
X202193Y407891D01*
X202244Y407792D01*
X202291Y407691D01*
X202334Y407589D01*
X202374Y407486D01*
X202410Y407381D01*
X202442Y407275D01*
X202471Y407168D01*
X202496Y407060D01*
X202517Y406951D01*
X202534Y406842D01*
X202548Y406732D01*
X202557Y406621D01*
X202563Y406511D01*
X202565Y406400D01*
X202565Y401320D01*
X202563Y401209D01*
X202557Y401099D01*
X202548Y400988D01*
X202534Y400878D01*
X202517Y400769D01*
X202496Y400660D01*
X202471Y400552D01*
X202442Y400445D01*
X202410Y400339D01*
X202374Y400234D01*
X202334Y400131D01*
X202291Y400029D01*
X202244Y399928D01*
X202193Y399829D01*
X202140Y399732D01*
X202083Y399638D01*
X202022Y399545D01*
X201959Y399454D01*
X201892Y399365D01*
X201822Y399279D01*
X201749Y399196D01*
X201674Y399114D01*
X201596Y399036D01*
X201514Y398961D01*
X201431Y398888D01*
X201345Y398818D01*
X201256Y398751D01*
X201165Y398688D01*
X201072Y398627D01*
X200977Y398570D01*
X200881Y398517D01*
X200782Y398466D01*
X200681Y398419D01*
X200579Y398376D01*
X200476Y398336D01*
X200371Y398300D01*
X200265Y398268D01*
X200158Y398239D01*
X200050Y398214D01*
X199941Y398193D01*
X199832Y398176D01*
X199722Y398162D01*
X199611Y398153D01*
X199501Y398147D01*
X199390Y398145D01*
X196215Y398145D01*
X208026Y407035D02*
X211201Y409575D01*
X211201Y398145D01*
X208026Y398145D02*
X214376Y398145D01*
D10*
X177800Y312420D02*
X177800Y271780D01*
X203200Y271780D01*
X203200Y312420D01*
X177800Y312420D01*
X190500Y298450D02*
X190500Y292100D01*
X196850Y281940D02*
X184150Y281940D01*
X190500Y292100D01*
X190500Y276860D01*
X196850Y281940D02*
X190500Y292100D01*
X196850Y292100D01*
X190500Y292100D02*
X184150Y292100D01*
D15*
X190500Y306070D03*
D16*
X190500Y262255D03*
X190500Y321945D03*
D11*
X207645Y293624D02*
X219075Y293624D01*
X207645Y293624D02*
X207645Y296799D01*
X207647Y296910D01*
X207653Y297020D01*
X207662Y297131D01*
X207676Y297241D01*
X207693Y297350D01*
X207714Y297459D01*
X207739Y297567D01*
X207768Y297674D01*
X207800Y297780D01*
X207836Y297885D01*
X207876Y297988D01*
X207919Y298090D01*
X207966Y298191D01*
X208017Y298290D01*
X208070Y298387D01*
X208127Y298481D01*
X208188Y298574D01*
X208251Y298665D01*
X208318Y298754D01*
X208388Y298840D01*
X208461Y298923D01*
X208536Y299005D01*
X208614Y299083D01*
X208696Y299158D01*
X208779Y299231D01*
X208865Y299301D01*
X208954Y299368D01*
X209045Y299431D01*
X209138Y299492D01*
X209233Y299549D01*
X209329Y299602D01*
X209428Y299653D01*
X209529Y299700D01*
X209631Y299743D01*
X209734Y299783D01*
X209839Y299819D01*
X209945Y299851D01*
X210052Y299880D01*
X210160Y299905D01*
X210269Y299926D01*
X210378Y299943D01*
X210488Y299957D01*
X210599Y299966D01*
X210709Y299972D01*
X210820Y299974D01*
X215900Y299974D01*
X216011Y299972D01*
X216121Y299966D01*
X216232Y299957D01*
X216342Y299943D01*
X216451Y299926D01*
X216560Y299905D01*
X216668Y299880D01*
X216775Y299851D01*
X216881Y299819D01*
X216986Y299783D01*
X217089Y299743D01*
X217191Y299700D01*
X217292Y299653D01*
X217391Y299602D01*
X217488Y299549D01*
X217582Y299492D01*
X217675Y299431D01*
X217766Y299368D01*
X217855Y299301D01*
X217941Y299231D01*
X218024Y299158D01*
X218106Y299083D01*
X218184Y299005D01*
X218259Y298923D01*
X218332Y298840D01*
X218402Y298754D01*
X218469Y298665D01*
X218532Y298574D01*
X218593Y298481D01*
X218650Y298387D01*
X218703Y298290D01*
X218754Y298191D01*
X218801Y298090D01*
X218844Y297988D01*
X218884Y297885D01*
X218920Y297780D01*
X218952Y297674D01*
X218981Y297567D01*
X219006Y297459D01*
X219027Y297350D01*
X219044Y297241D01*
X219058Y297131D01*
X219067Y297020D01*
X219073Y296910D01*
X219075Y296799D01*
X219075Y293624D01*
X207645Y308928D02*
X207647Y309032D01*
X207653Y309137D01*
X207662Y309241D01*
X207675Y309344D01*
X207693Y309447D01*
X207713Y309549D01*
X207738Y309651D01*
X207766Y309751D01*
X207798Y309851D01*
X207834Y309949D01*
X207873Y310046D01*
X207915Y310141D01*
X207961Y310235D01*
X208011Y310327D01*
X208063Y310417D01*
X208119Y310505D01*
X208179Y310591D01*
X208241Y310675D01*
X208306Y310756D01*
X208374Y310835D01*
X208446Y310912D01*
X208519Y310985D01*
X208596Y311057D01*
X208675Y311125D01*
X208756Y311190D01*
X208840Y311252D01*
X208926Y311312D01*
X209014Y311368D01*
X209104Y311420D01*
X209196Y311470D01*
X209290Y311516D01*
X209385Y311558D01*
X209482Y311597D01*
X209580Y311633D01*
X209680Y311665D01*
X209780Y311693D01*
X209882Y311718D01*
X209984Y311738D01*
X210087Y311756D01*
X210190Y311769D01*
X210294Y311778D01*
X210399Y311784D01*
X210503Y311786D01*
X207645Y308928D02*
X207647Y308810D01*
X207653Y308691D01*
X207662Y308573D01*
X207675Y308456D01*
X207693Y308339D01*
X207713Y308222D01*
X207738Y308106D01*
X207766Y307991D01*
X207799Y307878D01*
X207834Y307765D01*
X207874Y307653D01*
X207916Y307543D01*
X207963Y307434D01*
X208013Y307326D01*
X208066Y307221D01*
X208123Y307117D01*
X208183Y307015D01*
X208246Y306915D01*
X208313Y306817D01*
X208382Y306721D01*
X208455Y306628D01*
X208531Y306537D01*
X208609Y306448D01*
X208691Y306362D01*
X208775Y306279D01*
X208861Y306198D01*
X208951Y306121D01*
X209042Y306046D01*
X209136Y305974D01*
X209233Y305905D01*
X209331Y305840D01*
X209432Y305777D01*
X209535Y305718D01*
X209639Y305662D01*
X209745Y305610D01*
X209853Y305561D01*
X209962Y305516D01*
X210073Y305474D01*
X210185Y305436D01*
X212725Y310833D02*
X212650Y310909D01*
X212571Y310984D01*
X212490Y311055D01*
X212406Y311124D01*
X212320Y311189D01*
X212232Y311251D01*
X212142Y311311D01*
X212050Y311367D01*
X211955Y311420D01*
X211859Y311469D01*
X211761Y311515D01*
X211662Y311558D01*
X211561Y311597D01*
X211459Y311632D01*
X211356Y311664D01*
X211252Y311692D01*
X211147Y311717D01*
X211040Y311738D01*
X210934Y311755D01*
X210827Y311768D01*
X210719Y311777D01*
X210611Y311783D01*
X210503Y311785D01*
X212725Y310833D02*
X219075Y305435D01*
X219075Y311785D01*
D10*
X127000Y198120D02*
X127000Y157480D01*
X152400Y157480D01*
X152400Y198120D01*
X127000Y198120D01*
X139700Y184150D02*
X139700Y177800D01*
X146050Y167640D02*
X133350Y167640D01*
X139700Y177800D01*
X139700Y162560D01*
X146050Y167640D02*
X139700Y177800D01*
X146050Y177800D01*
X139700Y177800D02*
X133350Y177800D01*
D15*
X139700Y191770D03*
D16*
X139700Y147955D03*
X139700Y207645D03*
D11*
X156845Y179324D02*
X168275Y179324D01*
X156845Y179324D02*
X156845Y182499D01*
X156847Y182610D01*
X156853Y182720D01*
X156862Y182831D01*
X156876Y182941D01*
X156893Y183050D01*
X156914Y183159D01*
X156939Y183267D01*
X156968Y183374D01*
X157000Y183480D01*
X157036Y183585D01*
X157076Y183688D01*
X157119Y183790D01*
X157166Y183891D01*
X157217Y183990D01*
X157270Y184087D01*
X157327Y184181D01*
X157388Y184274D01*
X157451Y184365D01*
X157518Y184454D01*
X157588Y184540D01*
X157661Y184623D01*
X157736Y184705D01*
X157814Y184783D01*
X157896Y184858D01*
X157979Y184931D01*
X158065Y185001D01*
X158154Y185068D01*
X158245Y185131D01*
X158338Y185192D01*
X158433Y185249D01*
X158529Y185302D01*
X158628Y185353D01*
X158729Y185400D01*
X158831Y185443D01*
X158934Y185483D01*
X159039Y185519D01*
X159145Y185551D01*
X159252Y185580D01*
X159360Y185605D01*
X159469Y185626D01*
X159578Y185643D01*
X159688Y185657D01*
X159799Y185666D01*
X159909Y185672D01*
X160020Y185674D01*
X165100Y185674D01*
X165211Y185672D01*
X165321Y185666D01*
X165432Y185657D01*
X165542Y185643D01*
X165651Y185626D01*
X165760Y185605D01*
X165868Y185580D01*
X165975Y185551D01*
X166081Y185519D01*
X166186Y185483D01*
X166289Y185443D01*
X166391Y185400D01*
X166492Y185353D01*
X166591Y185302D01*
X166688Y185249D01*
X166782Y185192D01*
X166875Y185131D01*
X166966Y185068D01*
X167055Y185001D01*
X167141Y184931D01*
X167224Y184858D01*
X167306Y184783D01*
X167384Y184705D01*
X167459Y184623D01*
X167532Y184540D01*
X167602Y184454D01*
X167669Y184365D01*
X167732Y184274D01*
X167793Y184181D01*
X167850Y184087D01*
X167903Y183990D01*
X167954Y183891D01*
X168001Y183790D01*
X168044Y183688D01*
X168084Y183585D01*
X168120Y183480D01*
X168152Y183374D01*
X168181Y183267D01*
X168206Y183159D01*
X168227Y183050D01*
X168244Y182941D01*
X168258Y182831D01*
X168267Y182720D01*
X168273Y182610D01*
X168275Y182499D01*
X168275Y179324D01*
X168275Y191135D02*
X168275Y194310D01*
X168273Y194421D01*
X168267Y194531D01*
X168258Y194642D01*
X168244Y194752D01*
X168227Y194861D01*
X168206Y194970D01*
X168181Y195078D01*
X168152Y195185D01*
X168120Y195291D01*
X168084Y195396D01*
X168044Y195499D01*
X168001Y195601D01*
X167954Y195702D01*
X167903Y195801D01*
X167850Y195898D01*
X167793Y195992D01*
X167732Y196085D01*
X167669Y196176D01*
X167602Y196265D01*
X167532Y196351D01*
X167459Y196434D01*
X167384Y196516D01*
X167306Y196594D01*
X167224Y196669D01*
X167141Y196742D01*
X167055Y196812D01*
X166966Y196879D01*
X166875Y196942D01*
X166782Y197003D01*
X166688Y197060D01*
X166591Y197113D01*
X166492Y197164D01*
X166391Y197211D01*
X166289Y197254D01*
X166186Y197294D01*
X166081Y197330D01*
X165975Y197362D01*
X165868Y197391D01*
X165760Y197416D01*
X165651Y197437D01*
X165542Y197454D01*
X165432Y197468D01*
X165321Y197477D01*
X165211Y197483D01*
X165100Y197485D01*
X164989Y197483D01*
X164879Y197477D01*
X164768Y197468D01*
X164658Y197454D01*
X164549Y197437D01*
X164440Y197416D01*
X164332Y197391D01*
X164225Y197362D01*
X164119Y197330D01*
X164014Y197294D01*
X163911Y197254D01*
X163809Y197211D01*
X163708Y197164D01*
X163609Y197113D01*
X163513Y197060D01*
X163418Y197003D01*
X163325Y196942D01*
X163234Y196879D01*
X163145Y196812D01*
X163059Y196742D01*
X162976Y196669D01*
X162894Y196594D01*
X162816Y196516D01*
X162741Y196434D01*
X162668Y196351D01*
X162598Y196265D01*
X162531Y196176D01*
X162468Y196085D01*
X162407Y195992D01*
X162350Y195898D01*
X162297Y195801D01*
X162246Y195702D01*
X162199Y195601D01*
X162156Y195499D01*
X162116Y195396D01*
X162080Y195291D01*
X162048Y195185D01*
X162019Y195078D01*
X161994Y194970D01*
X161973Y194861D01*
X161956Y194752D01*
X161942Y194642D01*
X161933Y194531D01*
X161927Y194421D01*
X161925Y194310D01*
X156845Y194945D02*
X156845Y191135D01*
X156845Y194945D02*
X156847Y195045D01*
X156853Y195144D01*
X156863Y195244D01*
X156876Y195342D01*
X156894Y195441D01*
X156915Y195538D01*
X156940Y195634D01*
X156969Y195730D01*
X157002Y195824D01*
X157038Y195917D01*
X157078Y196008D01*
X157122Y196098D01*
X157169Y196186D01*
X157219Y196272D01*
X157273Y196356D01*
X157330Y196438D01*
X157390Y196517D01*
X157454Y196595D01*
X157520Y196669D01*
X157589Y196741D01*
X157661Y196810D01*
X157735Y196876D01*
X157813Y196940D01*
X157892Y197000D01*
X157974Y197057D01*
X158058Y197111D01*
X158144Y197161D01*
X158232Y197208D01*
X158322Y197252D01*
X158413Y197292D01*
X158506Y197328D01*
X158600Y197361D01*
X158696Y197390D01*
X158792Y197415D01*
X158889Y197436D01*
X158988Y197454D01*
X159086Y197467D01*
X159186Y197477D01*
X159285Y197483D01*
X159385Y197485D01*
X159485Y197483D01*
X159584Y197477D01*
X159684Y197467D01*
X159782Y197454D01*
X159881Y197436D01*
X159978Y197415D01*
X160074Y197390D01*
X160170Y197361D01*
X160264Y197328D01*
X160357Y197292D01*
X160448Y197252D01*
X160538Y197208D01*
X160626Y197161D01*
X160712Y197111D01*
X160796Y197057D01*
X160878Y197000D01*
X160957Y196940D01*
X161035Y196876D01*
X161109Y196810D01*
X161181Y196741D01*
X161250Y196669D01*
X161316Y196595D01*
X161380Y196517D01*
X161440Y196438D01*
X161497Y196356D01*
X161551Y196272D01*
X161601Y196186D01*
X161648Y196098D01*
X161692Y196008D01*
X161732Y195917D01*
X161768Y195824D01*
X161801Y195730D01*
X161830Y195634D01*
X161855Y195538D01*
X161876Y195441D01*
X161894Y195342D01*
X161907Y195244D01*
X161917Y195144D01*
X161923Y195045D01*
X161925Y194945D01*
X161925Y192405D01*
D10*
X190500Y160020D02*
X190500Y119380D01*
X215900Y119380D01*
X215900Y160020D01*
X190500Y160020D01*
X203200Y146050D02*
X203200Y139700D01*
X209550Y129540D02*
X196850Y129540D01*
X203200Y139700D01*
X203200Y124460D01*
X209550Y129540D02*
X203200Y139700D01*
X209550Y139700D01*
X203200Y139700D02*
X196850Y139700D01*
D15*
X203200Y153670D03*
D16*
X203200Y109855D03*
X203200Y169545D03*
D11*
X220345Y141224D02*
X231775Y141224D01*
X220345Y141224D02*
X220345Y144399D01*
X220347Y144510D01*
X220353Y144620D01*
X220362Y144731D01*
X220376Y144841D01*
X220393Y144950D01*
X220414Y145059D01*
X220439Y145167D01*
X220468Y145274D01*
X220500Y145380D01*
X220536Y145485D01*
X220576Y145588D01*
X220619Y145690D01*
X220666Y145791D01*
X220717Y145890D01*
X220770Y145987D01*
X220827Y146081D01*
X220888Y146174D01*
X220951Y146265D01*
X221018Y146354D01*
X221088Y146440D01*
X221161Y146523D01*
X221236Y146605D01*
X221314Y146683D01*
X221396Y146758D01*
X221479Y146831D01*
X221565Y146901D01*
X221654Y146968D01*
X221745Y147031D01*
X221838Y147092D01*
X221933Y147149D01*
X222029Y147202D01*
X222128Y147253D01*
X222229Y147300D01*
X222331Y147343D01*
X222434Y147383D01*
X222539Y147419D01*
X222645Y147451D01*
X222752Y147480D01*
X222860Y147505D01*
X222969Y147526D01*
X223078Y147543D01*
X223188Y147557D01*
X223299Y147566D01*
X223409Y147572D01*
X223520Y147574D01*
X228600Y147574D01*
X228711Y147572D01*
X228821Y147566D01*
X228932Y147557D01*
X229042Y147543D01*
X229151Y147526D01*
X229260Y147505D01*
X229368Y147480D01*
X229475Y147451D01*
X229581Y147419D01*
X229686Y147383D01*
X229789Y147343D01*
X229891Y147300D01*
X229992Y147253D01*
X230091Y147202D01*
X230188Y147149D01*
X230282Y147092D01*
X230375Y147031D01*
X230466Y146968D01*
X230555Y146901D01*
X230641Y146831D01*
X230724Y146758D01*
X230806Y146683D01*
X230884Y146605D01*
X230959Y146523D01*
X231032Y146440D01*
X231102Y146354D01*
X231169Y146265D01*
X231232Y146174D01*
X231293Y146081D01*
X231350Y145987D01*
X231403Y145890D01*
X231454Y145791D01*
X231501Y145690D01*
X231544Y145588D01*
X231584Y145485D01*
X231620Y145380D01*
X231652Y145274D01*
X231681Y145167D01*
X231706Y145059D01*
X231727Y144950D01*
X231744Y144841D01*
X231758Y144731D01*
X231767Y144620D01*
X231773Y144510D01*
X231775Y144399D01*
X231775Y141224D01*
X229235Y153035D02*
X220345Y155575D01*
X229235Y153035D02*
X229235Y159385D01*
X226695Y157480D02*
X231775Y157480D01*
D10*
X236220Y482600D02*
X195580Y482600D01*
X236220Y482600D02*
X236220Y508000D01*
X195580Y508000D01*
X195580Y482600D01*
X209550Y495300D02*
X215900Y495300D01*
X226060Y501650D02*
X226060Y488950D01*
X215900Y495300D01*
X231140Y495300D01*
X226060Y501650D02*
X215900Y495300D01*
X215900Y501650D01*
X215900Y495300D02*
X215900Y488950D01*
D13*
X201930Y495300D03*
D14*
X245745Y495300D03*
X186055Y495300D03*
D11*
X196215Y512445D02*
X196215Y523875D01*
X199390Y523875D01*
X199501Y523873D01*
X199611Y523867D01*
X199722Y523858D01*
X199832Y523844D01*
X199941Y523827D01*
X200050Y523806D01*
X200158Y523781D01*
X200265Y523752D01*
X200371Y523720D01*
X200476Y523684D01*
X200579Y523644D01*
X200681Y523601D01*
X200782Y523554D01*
X200881Y523503D01*
X200978Y523450D01*
X201072Y523393D01*
X201165Y523332D01*
X201256Y523269D01*
X201345Y523202D01*
X201431Y523132D01*
X201514Y523059D01*
X201596Y522984D01*
X201674Y522906D01*
X201749Y522824D01*
X201822Y522741D01*
X201892Y522655D01*
X201959Y522566D01*
X202022Y522475D01*
X202083Y522382D01*
X202140Y522288D01*
X202193Y522191D01*
X202244Y522092D01*
X202291Y521991D01*
X202334Y521889D01*
X202374Y521786D01*
X202410Y521681D01*
X202442Y521575D01*
X202471Y521468D01*
X202496Y521360D01*
X202517Y521251D01*
X202534Y521142D01*
X202548Y521032D01*
X202557Y520921D01*
X202563Y520811D01*
X202565Y520700D01*
X202565Y515620D01*
X202563Y515509D01*
X202557Y515399D01*
X202548Y515288D01*
X202534Y515178D01*
X202517Y515069D01*
X202496Y514960D01*
X202471Y514852D01*
X202442Y514745D01*
X202410Y514639D01*
X202374Y514534D01*
X202334Y514431D01*
X202291Y514329D01*
X202244Y514228D01*
X202193Y514129D01*
X202140Y514032D01*
X202083Y513938D01*
X202022Y513845D01*
X201959Y513754D01*
X201892Y513665D01*
X201822Y513579D01*
X201749Y513496D01*
X201674Y513414D01*
X201596Y513336D01*
X201514Y513261D01*
X201431Y513188D01*
X201345Y513118D01*
X201256Y513051D01*
X201165Y512988D01*
X201072Y512927D01*
X200977Y512870D01*
X200881Y512817D01*
X200782Y512766D01*
X200681Y512719D01*
X200579Y512676D01*
X200476Y512636D01*
X200371Y512600D01*
X200265Y512568D01*
X200158Y512539D01*
X200050Y512514D01*
X199941Y512493D01*
X199832Y512476D01*
X199722Y512462D01*
X199611Y512453D01*
X199501Y512447D01*
X199390Y512445D01*
X196215Y512445D01*
X208026Y512445D02*
X211836Y512445D01*
X211936Y512447D01*
X212035Y512453D01*
X212135Y512463D01*
X212233Y512476D01*
X212332Y512494D01*
X212429Y512515D01*
X212525Y512540D01*
X212621Y512569D01*
X212715Y512602D01*
X212808Y512638D01*
X212899Y512678D01*
X212989Y512722D01*
X213077Y512769D01*
X213163Y512819D01*
X213247Y512873D01*
X213329Y512930D01*
X213408Y512990D01*
X213486Y513054D01*
X213560Y513120D01*
X213632Y513189D01*
X213701Y513261D01*
X213767Y513335D01*
X213831Y513413D01*
X213891Y513492D01*
X213948Y513574D01*
X214002Y513658D01*
X214052Y513744D01*
X214099Y513832D01*
X214143Y513922D01*
X214183Y514013D01*
X214219Y514106D01*
X214252Y514200D01*
X214281Y514296D01*
X214306Y514392D01*
X214327Y514489D01*
X214345Y514588D01*
X214358Y514686D01*
X214368Y514786D01*
X214374Y514885D01*
X214376Y514985D01*
X214376Y516255D01*
X214374Y516355D01*
X214368Y516454D01*
X214358Y516554D01*
X214345Y516652D01*
X214327Y516751D01*
X214306Y516848D01*
X214281Y516944D01*
X214252Y517040D01*
X214219Y517134D01*
X214183Y517227D01*
X214143Y517318D01*
X214099Y517408D01*
X214052Y517496D01*
X214002Y517582D01*
X213948Y517666D01*
X213891Y517748D01*
X213831Y517827D01*
X213767Y517905D01*
X213701Y517979D01*
X213632Y518051D01*
X213560Y518120D01*
X213486Y518186D01*
X213408Y518250D01*
X213329Y518310D01*
X213247Y518367D01*
X213163Y518421D01*
X213077Y518471D01*
X212989Y518518D01*
X212899Y518562D01*
X212808Y518602D01*
X212715Y518638D01*
X212621Y518671D01*
X212525Y518700D01*
X212429Y518725D01*
X212332Y518746D01*
X212233Y518764D01*
X212135Y518777D01*
X212035Y518787D01*
X211936Y518793D01*
X211836Y518795D01*
X208026Y518795D01*
X208026Y523875D01*
X214376Y523875D01*
D10*
X284480Y304800D02*
X325120Y304800D01*
X325120Y330200D01*
X284480Y330200D01*
X284480Y304800D01*
X298450Y317500D02*
X304800Y317500D01*
X314960Y323850D02*
X314960Y311150D01*
X304800Y317500D01*
X320040Y317500D01*
X314960Y323850D02*
X304800Y317500D01*
X304800Y323850D01*
X304800Y317500D02*
X304800Y311150D01*
D13*
X290830Y317500D03*
D14*
X334645Y317500D03*
X274955Y317500D03*
D11*
X285115Y334645D02*
X285115Y346075D01*
X288290Y346075D01*
X288401Y346073D01*
X288511Y346067D01*
X288622Y346058D01*
X288732Y346044D01*
X288841Y346027D01*
X288950Y346006D01*
X289058Y345981D01*
X289165Y345952D01*
X289271Y345920D01*
X289376Y345884D01*
X289479Y345844D01*
X289581Y345801D01*
X289682Y345754D01*
X289781Y345703D01*
X289878Y345650D01*
X289972Y345593D01*
X290065Y345532D01*
X290156Y345469D01*
X290245Y345402D01*
X290331Y345332D01*
X290414Y345259D01*
X290496Y345184D01*
X290574Y345106D01*
X290649Y345024D01*
X290722Y344941D01*
X290792Y344855D01*
X290859Y344766D01*
X290922Y344675D01*
X290983Y344582D01*
X291040Y344488D01*
X291093Y344391D01*
X291144Y344292D01*
X291191Y344191D01*
X291234Y344089D01*
X291274Y343986D01*
X291310Y343881D01*
X291342Y343775D01*
X291371Y343668D01*
X291396Y343560D01*
X291417Y343451D01*
X291434Y343342D01*
X291448Y343232D01*
X291457Y343121D01*
X291463Y343011D01*
X291465Y342900D01*
X291465Y337820D01*
X291463Y337709D01*
X291457Y337599D01*
X291448Y337488D01*
X291434Y337378D01*
X291417Y337269D01*
X291396Y337160D01*
X291371Y337052D01*
X291342Y336945D01*
X291310Y336839D01*
X291274Y336734D01*
X291234Y336631D01*
X291191Y336529D01*
X291144Y336428D01*
X291093Y336329D01*
X291040Y336232D01*
X290983Y336138D01*
X290922Y336045D01*
X290859Y335954D01*
X290792Y335865D01*
X290722Y335779D01*
X290649Y335696D01*
X290574Y335614D01*
X290496Y335536D01*
X290414Y335461D01*
X290331Y335388D01*
X290245Y335318D01*
X290156Y335251D01*
X290065Y335188D01*
X289972Y335127D01*
X289878Y335070D01*
X289781Y335017D01*
X289682Y334966D01*
X289581Y334919D01*
X289479Y334876D01*
X289376Y334836D01*
X289271Y334800D01*
X289165Y334768D01*
X289058Y334739D01*
X288950Y334714D01*
X288841Y334693D01*
X288732Y334676D01*
X288622Y334662D01*
X288511Y334653D01*
X288401Y334647D01*
X288290Y334645D01*
X285115Y334645D01*
X296926Y340995D02*
X300736Y340995D01*
X300836Y340993D01*
X300935Y340987D01*
X301035Y340977D01*
X301133Y340964D01*
X301232Y340946D01*
X301329Y340925D01*
X301425Y340900D01*
X301521Y340871D01*
X301615Y340838D01*
X301708Y340802D01*
X301799Y340762D01*
X301889Y340718D01*
X301977Y340671D01*
X302063Y340621D01*
X302147Y340567D01*
X302229Y340510D01*
X302308Y340450D01*
X302386Y340386D01*
X302460Y340320D01*
X302532Y340251D01*
X302601Y340179D01*
X302667Y340105D01*
X302731Y340027D01*
X302791Y339948D01*
X302848Y339866D01*
X302902Y339782D01*
X302952Y339696D01*
X302999Y339608D01*
X303043Y339518D01*
X303083Y339427D01*
X303119Y339334D01*
X303152Y339240D01*
X303181Y339144D01*
X303206Y339048D01*
X303227Y338951D01*
X303245Y338852D01*
X303258Y338754D01*
X303268Y338654D01*
X303274Y338555D01*
X303276Y338455D01*
X303276Y337820D01*
X303274Y337709D01*
X303268Y337599D01*
X303259Y337488D01*
X303245Y337378D01*
X303228Y337269D01*
X303207Y337160D01*
X303182Y337052D01*
X303153Y336945D01*
X303121Y336839D01*
X303085Y336734D01*
X303045Y336631D01*
X303002Y336529D01*
X302955Y336428D01*
X302904Y336329D01*
X302851Y336232D01*
X302794Y336138D01*
X302733Y336045D01*
X302670Y335954D01*
X302603Y335865D01*
X302533Y335779D01*
X302460Y335696D01*
X302385Y335614D01*
X302307Y335536D01*
X302225Y335461D01*
X302142Y335388D01*
X302056Y335318D01*
X301967Y335251D01*
X301876Y335188D01*
X301783Y335127D01*
X301688Y335070D01*
X301592Y335017D01*
X301493Y334966D01*
X301392Y334919D01*
X301290Y334876D01*
X301187Y334836D01*
X301082Y334800D01*
X300976Y334768D01*
X300869Y334739D01*
X300761Y334714D01*
X300652Y334693D01*
X300543Y334676D01*
X300433Y334662D01*
X300322Y334653D01*
X300212Y334647D01*
X300101Y334645D01*
X299990Y334647D01*
X299880Y334653D01*
X299769Y334662D01*
X299659Y334676D01*
X299550Y334693D01*
X299441Y334714D01*
X299333Y334739D01*
X299226Y334768D01*
X299120Y334800D01*
X299015Y334836D01*
X298912Y334876D01*
X298810Y334919D01*
X298709Y334966D01*
X298610Y335017D01*
X298514Y335070D01*
X298419Y335127D01*
X298326Y335188D01*
X298235Y335251D01*
X298146Y335318D01*
X298060Y335388D01*
X297977Y335461D01*
X297895Y335536D01*
X297817Y335614D01*
X297742Y335696D01*
X297669Y335779D01*
X297599Y335865D01*
X297532Y335954D01*
X297469Y336045D01*
X297408Y336138D01*
X297351Y336233D01*
X297298Y336329D01*
X297247Y336428D01*
X297200Y336529D01*
X297157Y336631D01*
X297117Y336734D01*
X297081Y336839D01*
X297049Y336945D01*
X297020Y337052D01*
X296995Y337160D01*
X296974Y337269D01*
X296957Y337378D01*
X296943Y337488D01*
X296934Y337599D01*
X296928Y337709D01*
X296926Y337820D01*
X296926Y340995D01*
X296928Y341135D01*
X296934Y341275D01*
X296943Y341415D01*
X296957Y341554D01*
X296974Y341693D01*
X296995Y341831D01*
X297020Y341969D01*
X297049Y342106D01*
X297081Y342242D01*
X297118Y342377D01*
X297158Y342511D01*
X297201Y342644D01*
X297249Y342776D01*
X297299Y342907D01*
X297354Y343036D01*
X297412Y343163D01*
X297473Y343289D01*
X297538Y343413D01*
X297607Y343535D01*
X297678Y343655D01*
X297753Y343773D01*
X297831Y343890D01*
X297913Y344004D01*
X297997Y344115D01*
X298085Y344224D01*
X298175Y344331D01*
X298269Y344436D01*
X298365Y344537D01*
X298464Y344636D01*
X298565Y344732D01*
X298670Y344826D01*
X298777Y344916D01*
X298886Y345004D01*
X298997Y345088D01*
X299111Y345170D01*
X299228Y345248D01*
X299346Y345323D01*
X299466Y345394D01*
X299588Y345463D01*
X299712Y345528D01*
X299838Y345589D01*
X299965Y345647D01*
X300094Y345702D01*
X300225Y345752D01*
X300357Y345800D01*
X300490Y345843D01*
X300624Y345883D01*
X300759Y345920D01*
X300895Y345952D01*
X301032Y345981D01*
X301170Y346006D01*
X301308Y346027D01*
X301447Y346044D01*
X301586Y346058D01*
X301726Y346067D01*
X301866Y346073D01*
X302006Y346075D01*
D10*
X86360Y419100D02*
X66040Y419100D01*
X88900Y365760D02*
X88900Y345440D01*
X88900Y365760D02*
X86360Y368300D01*
X63500Y365760D02*
X63500Y345440D01*
X63500Y365760D02*
X66040Y368300D01*
X63500Y345440D02*
X66040Y342900D01*
X86360Y342900D02*
X88900Y345440D01*
X86360Y342900D02*
X66040Y342900D01*
X86360Y368300D02*
X88900Y370840D01*
X88900Y391160D01*
X86360Y393700D01*
X88900Y396240D01*
X88900Y416560D02*
X86360Y419100D01*
X88900Y416560D02*
X88900Y396240D01*
X63500Y370840D02*
X66040Y368300D01*
X63500Y391160D02*
X66040Y393700D01*
X63500Y396240D01*
X63500Y416560D02*
X66040Y419100D01*
X63500Y391160D02*
X63500Y370840D01*
X63500Y396240D02*
X63500Y416560D01*
D11*
X50165Y403366D02*
X52084Y400967D01*
X50165Y403366D02*
X58801Y403366D01*
X58801Y400967D02*
X58801Y405765D01*
X52324Y380365D02*
X52232Y380363D01*
X52141Y380357D01*
X52050Y380348D01*
X51959Y380334D01*
X51869Y380317D01*
X51780Y380295D01*
X51692Y380270D01*
X51605Y380242D01*
X51519Y380209D01*
X51435Y380173D01*
X51352Y380134D01*
X51271Y380091D01*
X51192Y380044D01*
X51115Y379995D01*
X51040Y379942D01*
X50968Y379886D01*
X50898Y379827D01*
X50830Y379765D01*
X50765Y379700D01*
X50703Y379632D01*
X50644Y379562D01*
X50588Y379490D01*
X50535Y379415D01*
X50486Y379338D01*
X50439Y379259D01*
X50396Y379178D01*
X50357Y379095D01*
X50321Y379011D01*
X50288Y378925D01*
X50260Y378838D01*
X50235Y378750D01*
X50213Y378661D01*
X50196Y378571D01*
X50182Y378480D01*
X50173Y378389D01*
X50167Y378298D01*
X50165Y378206D01*
X50167Y378103D01*
X50173Y378001D01*
X50182Y377899D01*
X50195Y377797D01*
X50212Y377696D01*
X50233Y377595D01*
X50257Y377496D01*
X50286Y377397D01*
X50317Y377300D01*
X50353Y377203D01*
X50391Y377108D01*
X50434Y377015D01*
X50480Y376923D01*
X50529Y376833D01*
X50581Y376745D01*
X50637Y376658D01*
X50696Y376574D01*
X50757Y376493D01*
X50822Y376413D01*
X50890Y376336D01*
X50961Y376261D01*
X51034Y376190D01*
X51110Y376121D01*
X51188Y376054D01*
X51269Y375991D01*
X51352Y375931D01*
X51437Y375874D01*
X51524Y375820D01*
X51614Y375769D01*
X51705Y375722D01*
X51797Y375678D01*
X51892Y375637D01*
X51987Y375600D01*
X52084Y375567D01*
X54003Y379645D02*
X53937Y379712D01*
X53868Y379776D01*
X53797Y379837D01*
X53723Y379895D01*
X53647Y379950D01*
X53569Y380002D01*
X53489Y380051D01*
X53407Y380097D01*
X53323Y380139D01*
X53237Y380178D01*
X53150Y380213D01*
X53062Y380244D01*
X52972Y380272D01*
X52882Y380297D01*
X52790Y380318D01*
X52698Y380335D01*
X52605Y380348D01*
X52512Y380357D01*
X52418Y380363D01*
X52324Y380365D01*
X54003Y379645D02*
X58801Y375567D01*
X58801Y380365D01*
X58801Y352566D02*
X58801Y350167D01*
X58801Y352566D02*
X58799Y352663D01*
X58793Y352759D01*
X58784Y352855D01*
X58770Y352951D01*
X58753Y353046D01*
X58731Y353140D01*
X58706Y353233D01*
X58678Y353326D01*
X58645Y353417D01*
X58609Y353506D01*
X58569Y353594D01*
X58526Y353681D01*
X58480Y353766D01*
X58430Y353848D01*
X58376Y353929D01*
X58320Y354007D01*
X58260Y354083D01*
X58198Y354157D01*
X58132Y354228D01*
X58064Y354296D01*
X57993Y354362D01*
X57919Y354424D01*
X57843Y354484D01*
X57765Y354540D01*
X57684Y354594D01*
X57602Y354644D01*
X57517Y354690D01*
X57430Y354733D01*
X57342Y354773D01*
X57253Y354809D01*
X57162Y354842D01*
X57069Y354870D01*
X56976Y354895D01*
X56882Y354917D01*
X56787Y354934D01*
X56691Y354948D01*
X56595Y354957D01*
X56499Y354963D01*
X56402Y354965D01*
X56305Y354963D01*
X56209Y354957D01*
X56113Y354948D01*
X56017Y354934D01*
X55922Y354917D01*
X55828Y354895D01*
X55735Y354870D01*
X55642Y354842D01*
X55551Y354809D01*
X55462Y354773D01*
X55374Y354733D01*
X55287Y354690D01*
X55203Y354644D01*
X55120Y354594D01*
X55039Y354540D01*
X54961Y354484D01*
X54885Y354424D01*
X54811Y354362D01*
X54740Y354296D01*
X54672Y354228D01*
X54606Y354157D01*
X54544Y354083D01*
X54484Y354007D01*
X54428Y353929D01*
X54374Y353848D01*
X54324Y353766D01*
X54278Y353681D01*
X54235Y353594D01*
X54195Y353506D01*
X54159Y353417D01*
X54126Y353326D01*
X54098Y353233D01*
X54073Y353140D01*
X54051Y353046D01*
X54034Y352951D01*
X54020Y352855D01*
X54011Y352759D01*
X54005Y352663D01*
X54003Y352566D01*
X50165Y353046D02*
X50165Y350167D01*
X50165Y353046D02*
X50167Y353132D01*
X50173Y353218D01*
X50182Y353304D01*
X50196Y353389D01*
X50213Y353473D01*
X50234Y353557D01*
X50259Y353639D01*
X50287Y353720D01*
X50319Y353800D01*
X50355Y353879D01*
X50394Y353955D01*
X50437Y354030D01*
X50482Y354103D01*
X50531Y354174D01*
X50584Y354242D01*
X50639Y354309D01*
X50697Y354372D01*
X50758Y354433D01*
X50821Y354491D01*
X50888Y354546D01*
X50956Y354599D01*
X51027Y354648D01*
X51100Y354693D01*
X51175Y354736D01*
X51251Y354775D01*
X51330Y354811D01*
X51410Y354843D01*
X51491Y354871D01*
X51573Y354896D01*
X51657Y354917D01*
X51741Y354934D01*
X51826Y354948D01*
X51912Y354957D01*
X51998Y354963D01*
X52084Y354965D01*
X52170Y354963D01*
X52256Y354957D01*
X52342Y354948D01*
X52427Y354934D01*
X52511Y354917D01*
X52595Y354896D01*
X52677Y354871D01*
X52758Y354843D01*
X52838Y354811D01*
X52917Y354775D01*
X52993Y354736D01*
X53068Y354693D01*
X53141Y354648D01*
X53212Y354599D01*
X53280Y354546D01*
X53347Y354491D01*
X53410Y354433D01*
X53471Y354372D01*
X53529Y354309D01*
X53584Y354242D01*
X53637Y354174D01*
X53686Y354103D01*
X53731Y354030D01*
X53774Y353955D01*
X53813Y353879D01*
X53849Y353800D01*
X53881Y353720D01*
X53909Y353639D01*
X53934Y353557D01*
X53955Y353473D01*
X53972Y353389D01*
X53986Y353304D01*
X53995Y353218D01*
X54001Y353132D01*
X54003Y353046D01*
X54003Y351127D01*
X93345Y204641D02*
X104775Y204641D01*
X104775Y203371D02*
X104775Y205911D01*
X93345Y205911D02*
X93345Y203371D01*
X92075Y215182D02*
X106045Y210102D01*
X104775Y220326D02*
X93345Y220326D01*
X93345Y223501D01*
X93347Y223612D01*
X93353Y223722D01*
X93362Y223833D01*
X93376Y223943D01*
X93393Y224052D01*
X93414Y224161D01*
X93439Y224269D01*
X93468Y224376D01*
X93500Y224482D01*
X93536Y224587D01*
X93576Y224690D01*
X93619Y224792D01*
X93666Y224893D01*
X93717Y224992D01*
X93770Y225089D01*
X93827Y225183D01*
X93888Y225276D01*
X93951Y225367D01*
X94018Y225456D01*
X94088Y225542D01*
X94161Y225625D01*
X94236Y225707D01*
X94314Y225785D01*
X94396Y225860D01*
X94479Y225933D01*
X94565Y226003D01*
X94654Y226070D01*
X94745Y226133D01*
X94838Y226194D01*
X94933Y226251D01*
X95029Y226304D01*
X95128Y226355D01*
X95229Y226402D01*
X95331Y226445D01*
X95434Y226485D01*
X95539Y226521D01*
X95645Y226553D01*
X95752Y226582D01*
X95860Y226607D01*
X95969Y226628D01*
X96078Y226645D01*
X96188Y226659D01*
X96299Y226668D01*
X96409Y226674D01*
X96520Y226676D01*
X96631Y226674D01*
X96741Y226668D01*
X96852Y226659D01*
X96962Y226645D01*
X97071Y226628D01*
X97180Y226607D01*
X97288Y226582D01*
X97395Y226553D01*
X97501Y226521D01*
X97606Y226485D01*
X97709Y226445D01*
X97811Y226402D01*
X97912Y226355D01*
X98011Y226304D01*
X98108Y226251D01*
X98202Y226194D01*
X98295Y226133D01*
X98386Y226070D01*
X98475Y226003D01*
X98561Y225933D01*
X98644Y225860D01*
X98726Y225785D01*
X98804Y225707D01*
X98879Y225625D01*
X98952Y225542D01*
X99022Y225456D01*
X99089Y225367D01*
X99152Y225276D01*
X99213Y225183D01*
X99270Y225089D01*
X99323Y224992D01*
X99374Y224893D01*
X99421Y224792D01*
X99464Y224690D01*
X99504Y224587D01*
X99540Y224482D01*
X99572Y224376D01*
X99601Y224269D01*
X99626Y224161D01*
X99647Y224052D01*
X99664Y223943D01*
X99678Y223833D01*
X99687Y223722D01*
X99693Y223612D01*
X99695Y223501D01*
X99695Y220326D01*
X106045Y230676D02*
X106045Y235756D01*
X104775Y240735D02*
X93345Y240735D01*
X93345Y245815D01*
X98425Y245815D02*
X98425Y240735D01*
X93345Y250698D02*
X104775Y250698D01*
X93345Y250698D02*
X93345Y253873D01*
X93347Y253984D01*
X93353Y254094D01*
X93362Y254205D01*
X93376Y254315D01*
X93393Y254424D01*
X93414Y254533D01*
X93439Y254641D01*
X93468Y254748D01*
X93500Y254854D01*
X93536Y254959D01*
X93576Y255062D01*
X93619Y255164D01*
X93666Y255265D01*
X93717Y255364D01*
X93770Y255461D01*
X93827Y255555D01*
X93888Y255648D01*
X93951Y255739D01*
X94018Y255828D01*
X94088Y255914D01*
X94161Y255997D01*
X94236Y256079D01*
X94314Y256157D01*
X94396Y256232D01*
X94479Y256305D01*
X94565Y256375D01*
X94654Y256442D01*
X94745Y256505D01*
X94838Y256566D01*
X94933Y256623D01*
X95029Y256676D01*
X95128Y256727D01*
X95229Y256774D01*
X95331Y256817D01*
X95434Y256857D01*
X95539Y256893D01*
X95645Y256925D01*
X95752Y256954D01*
X95860Y256979D01*
X95969Y257000D01*
X96078Y257017D01*
X96188Y257031D01*
X96299Y257040D01*
X96409Y257046D01*
X96520Y257048D01*
X96631Y257046D01*
X96741Y257040D01*
X96852Y257031D01*
X96962Y257017D01*
X97071Y257000D01*
X97180Y256979D01*
X97288Y256954D01*
X97395Y256925D01*
X97501Y256893D01*
X97606Y256857D01*
X97709Y256817D01*
X97811Y256774D01*
X97912Y256727D01*
X98011Y256676D01*
X98108Y256623D01*
X98202Y256566D01*
X98295Y256505D01*
X98386Y256442D01*
X98475Y256375D01*
X98561Y256305D01*
X98644Y256232D01*
X98726Y256157D01*
X98804Y256079D01*
X98879Y255997D01*
X98952Y255914D01*
X99022Y255828D01*
X99089Y255739D01*
X99152Y255648D01*
X99213Y255555D01*
X99270Y255461D01*
X99323Y255364D01*
X99374Y255265D01*
X99421Y255164D01*
X99464Y255062D01*
X99504Y254959D01*
X99540Y254854D01*
X99572Y254748D01*
X99601Y254641D01*
X99626Y254533D01*
X99647Y254424D01*
X99664Y254315D01*
X99678Y254205D01*
X99687Y254094D01*
X99693Y253984D01*
X99695Y253873D01*
X99695Y250698D01*
X99695Y254508D02*
X104775Y257048D01*
X101600Y262045D02*
X96520Y262045D01*
X96409Y262047D01*
X96299Y262053D01*
X96188Y262062D01*
X96078Y262076D01*
X95969Y262093D01*
X95860Y262114D01*
X95752Y262139D01*
X95645Y262168D01*
X95539Y262200D01*
X95434Y262236D01*
X95331Y262276D01*
X95229Y262319D01*
X95128Y262366D01*
X95029Y262417D01*
X94933Y262470D01*
X94838Y262527D01*
X94745Y262588D01*
X94654Y262651D01*
X94565Y262718D01*
X94479Y262788D01*
X94396Y262861D01*
X94314Y262936D01*
X94236Y263014D01*
X94161Y263096D01*
X94088Y263179D01*
X94018Y263265D01*
X93951Y263354D01*
X93888Y263445D01*
X93827Y263538D01*
X93770Y263633D01*
X93717Y263729D01*
X93666Y263828D01*
X93619Y263929D01*
X93576Y264031D01*
X93536Y264134D01*
X93500Y264239D01*
X93468Y264345D01*
X93439Y264452D01*
X93414Y264560D01*
X93393Y264669D01*
X93376Y264778D01*
X93362Y264888D01*
X93353Y264999D01*
X93347Y265109D01*
X93345Y265220D01*
X93347Y265331D01*
X93353Y265441D01*
X93362Y265552D01*
X93376Y265662D01*
X93393Y265771D01*
X93414Y265880D01*
X93439Y265988D01*
X93468Y266095D01*
X93500Y266201D01*
X93536Y266306D01*
X93576Y266409D01*
X93619Y266511D01*
X93666Y266612D01*
X93717Y266711D01*
X93770Y266808D01*
X93827Y266902D01*
X93888Y266995D01*
X93951Y267086D01*
X94018Y267175D01*
X94088Y267261D01*
X94161Y267344D01*
X94236Y267426D01*
X94314Y267504D01*
X94396Y267579D01*
X94479Y267652D01*
X94565Y267722D01*
X94654Y267789D01*
X94745Y267852D01*
X94838Y267913D01*
X94933Y267970D01*
X95029Y268023D01*
X95128Y268074D01*
X95229Y268121D01*
X95331Y268164D01*
X95434Y268204D01*
X95539Y268240D01*
X95645Y268272D01*
X95752Y268301D01*
X95860Y268326D01*
X95969Y268347D01*
X96078Y268364D01*
X96188Y268378D01*
X96299Y268387D01*
X96409Y268393D01*
X96520Y268395D01*
X101600Y268395D01*
X101711Y268393D01*
X101821Y268387D01*
X101932Y268378D01*
X102042Y268364D01*
X102151Y268347D01*
X102260Y268326D01*
X102368Y268301D01*
X102475Y268272D01*
X102581Y268240D01*
X102686Y268204D01*
X102789Y268164D01*
X102891Y268121D01*
X102992Y268074D01*
X103091Y268023D01*
X103188Y267970D01*
X103282Y267913D01*
X103375Y267852D01*
X103466Y267789D01*
X103555Y267722D01*
X103641Y267652D01*
X103724Y267579D01*
X103806Y267504D01*
X103884Y267426D01*
X103959Y267344D01*
X104032Y267261D01*
X104102Y267175D01*
X104169Y267086D01*
X104232Y266995D01*
X104293Y266902D01*
X104350Y266807D01*
X104403Y266711D01*
X104454Y266612D01*
X104501Y266511D01*
X104544Y266409D01*
X104584Y266306D01*
X104620Y266201D01*
X104652Y266095D01*
X104681Y265988D01*
X104706Y265880D01*
X104727Y265771D01*
X104744Y265662D01*
X104758Y265552D01*
X104767Y265441D01*
X104773Y265331D01*
X104775Y265220D01*
X104773Y265109D01*
X104767Y264999D01*
X104758Y264888D01*
X104744Y264778D01*
X104727Y264669D01*
X104706Y264560D01*
X104681Y264452D01*
X104652Y264345D01*
X104620Y264239D01*
X104584Y264134D01*
X104544Y264031D01*
X104501Y263929D01*
X104454Y263828D01*
X104403Y263729D01*
X104350Y263632D01*
X104293Y263538D01*
X104232Y263445D01*
X104169Y263354D01*
X104102Y263265D01*
X104032Y263179D01*
X103959Y263096D01*
X103884Y263014D01*
X103806Y262936D01*
X103724Y262861D01*
X103641Y262788D01*
X103555Y262718D01*
X103466Y262651D01*
X103375Y262588D01*
X103282Y262527D01*
X103187Y262470D01*
X103091Y262417D01*
X102992Y262366D01*
X102891Y262319D01*
X102789Y262276D01*
X102686Y262236D01*
X102581Y262200D01*
X102475Y262168D01*
X102368Y262139D01*
X102260Y262114D01*
X102151Y262093D01*
X102042Y262076D01*
X101932Y262062D01*
X101821Y262053D01*
X101711Y262047D01*
X101600Y262045D01*
X104775Y273983D02*
X93345Y273983D01*
X99695Y277793D01*
X93345Y281603D01*
X104775Y281603D01*
X106045Y286683D02*
X106045Y291763D01*
X104775Y298748D02*
X93345Y298748D01*
X93345Y295573D02*
X93345Y301923D01*
X93345Y306705D02*
X104775Y306705D01*
X93345Y306705D02*
X93345Y309880D01*
X93347Y309991D01*
X93353Y310101D01*
X93362Y310212D01*
X93376Y310322D01*
X93393Y310431D01*
X93414Y310540D01*
X93439Y310648D01*
X93468Y310755D01*
X93500Y310861D01*
X93536Y310966D01*
X93576Y311069D01*
X93619Y311171D01*
X93666Y311272D01*
X93717Y311371D01*
X93770Y311468D01*
X93827Y311562D01*
X93888Y311655D01*
X93951Y311746D01*
X94018Y311835D01*
X94088Y311921D01*
X94161Y312004D01*
X94236Y312086D01*
X94314Y312164D01*
X94396Y312239D01*
X94479Y312312D01*
X94565Y312382D01*
X94654Y312449D01*
X94745Y312512D01*
X94838Y312573D01*
X94933Y312630D01*
X95029Y312683D01*
X95128Y312734D01*
X95229Y312781D01*
X95331Y312824D01*
X95434Y312864D01*
X95539Y312900D01*
X95645Y312932D01*
X95752Y312961D01*
X95860Y312986D01*
X95969Y313007D01*
X96078Y313024D01*
X96188Y313038D01*
X96299Y313047D01*
X96409Y313053D01*
X96520Y313055D01*
X96631Y313053D01*
X96741Y313047D01*
X96852Y313038D01*
X96962Y313024D01*
X97071Y313007D01*
X97180Y312986D01*
X97288Y312961D01*
X97395Y312932D01*
X97501Y312900D01*
X97606Y312864D01*
X97709Y312824D01*
X97811Y312781D01*
X97912Y312734D01*
X98011Y312683D01*
X98108Y312630D01*
X98202Y312573D01*
X98295Y312512D01*
X98386Y312449D01*
X98475Y312382D01*
X98561Y312312D01*
X98644Y312239D01*
X98726Y312164D01*
X98804Y312086D01*
X98879Y312004D01*
X98952Y311921D01*
X99022Y311835D01*
X99089Y311746D01*
X99152Y311655D01*
X99213Y311562D01*
X99270Y311468D01*
X99323Y311371D01*
X99374Y311272D01*
X99421Y311171D01*
X99464Y311069D01*
X99504Y310966D01*
X99540Y310861D01*
X99572Y310755D01*
X99601Y310648D01*
X99626Y310540D01*
X99647Y310431D01*
X99664Y310322D01*
X99678Y310212D01*
X99687Y310101D01*
X99693Y309991D01*
X99695Y309880D01*
X99695Y306705D01*
X99695Y310515D02*
X104775Y313055D01*
X104775Y317417D02*
X93345Y321227D01*
X104775Y325037D01*
X101918Y324085D02*
X101918Y318370D01*
X104775Y329863D02*
X93345Y329863D01*
X104775Y336213D01*
X93345Y336213D01*
X104775Y345103D02*
X104773Y345203D01*
X104767Y345302D01*
X104757Y345402D01*
X104744Y345500D01*
X104726Y345599D01*
X104705Y345696D01*
X104680Y345792D01*
X104651Y345888D01*
X104618Y345982D01*
X104582Y346075D01*
X104542Y346166D01*
X104498Y346256D01*
X104451Y346344D01*
X104401Y346430D01*
X104347Y346514D01*
X104290Y346596D01*
X104230Y346675D01*
X104166Y346753D01*
X104100Y346827D01*
X104031Y346899D01*
X103959Y346968D01*
X103885Y347034D01*
X103807Y347098D01*
X103728Y347158D01*
X103646Y347215D01*
X103562Y347269D01*
X103476Y347319D01*
X103388Y347366D01*
X103298Y347410D01*
X103207Y347450D01*
X103114Y347486D01*
X103020Y347519D01*
X102924Y347548D01*
X102828Y347573D01*
X102731Y347594D01*
X102632Y347612D01*
X102534Y347625D01*
X102434Y347635D01*
X102335Y347641D01*
X102235Y347643D01*
X104775Y345103D02*
X104773Y344962D01*
X104768Y344821D01*
X104758Y344680D01*
X104745Y344539D01*
X104729Y344399D01*
X104708Y344259D01*
X104684Y344120D01*
X104656Y343981D01*
X104625Y343844D01*
X104590Y343707D01*
X104552Y343571D01*
X104510Y343436D01*
X104464Y343303D01*
X104415Y343170D01*
X104362Y343039D01*
X104306Y342910D01*
X104247Y342781D01*
X104184Y342655D01*
X104118Y342530D01*
X104049Y342407D01*
X103976Y342286D01*
X103900Y342167D01*
X103821Y342049D01*
X103740Y341934D01*
X103655Y341822D01*
X103567Y341711D01*
X103476Y341603D01*
X103383Y341497D01*
X103286Y341394D01*
X103187Y341293D01*
X95885Y341611D02*
X95785Y341613D01*
X95686Y341619D01*
X95586Y341629D01*
X95488Y341642D01*
X95389Y341660D01*
X95292Y341681D01*
X95196Y341706D01*
X95100Y341735D01*
X95006Y341768D01*
X94913Y341804D01*
X94822Y341844D01*
X94732Y341888D01*
X94644Y341935D01*
X94558Y341985D01*
X94474Y342039D01*
X94392Y342096D01*
X94313Y342156D01*
X94235Y342220D01*
X94161Y342286D01*
X94089Y342355D01*
X94020Y342427D01*
X93954Y342501D01*
X93890Y342579D01*
X93830Y342658D01*
X93773Y342740D01*
X93719Y342824D01*
X93669Y342910D01*
X93622Y342998D01*
X93578Y343088D01*
X93538Y343179D01*
X93502Y343272D01*
X93469Y343366D01*
X93440Y343462D01*
X93415Y343558D01*
X93394Y343655D01*
X93376Y343754D01*
X93363Y343852D01*
X93353Y343952D01*
X93347Y344051D01*
X93345Y344151D01*
X93347Y344284D01*
X93352Y344417D01*
X93362Y344550D01*
X93375Y344683D01*
X93392Y344815D01*
X93412Y344947D01*
X93436Y345078D01*
X93464Y345208D01*
X93495Y345338D01*
X93530Y345466D01*
X93569Y345594D01*
X93611Y345720D01*
X93657Y345845D01*
X93706Y345969D01*
X93758Y346092D01*
X93814Y346213D01*
X93874Y346332D01*
X93936Y346450D01*
X94002Y346565D01*
X94071Y346679D01*
X94144Y346791D01*
X94219Y346901D01*
X94298Y347009D01*
X98108Y342880D02*
X98056Y342796D01*
X98001Y342713D01*
X97942Y342633D01*
X97881Y342555D01*
X97817Y342480D01*
X97749Y342407D01*
X97679Y342336D01*
X97607Y342269D01*
X97532Y342204D01*
X97454Y342142D01*
X97374Y342083D01*
X97292Y342027D01*
X97208Y341975D01*
X97122Y341926D01*
X97034Y341880D01*
X96944Y341837D01*
X96853Y341798D01*
X96760Y341763D01*
X96666Y341731D01*
X96571Y341703D01*
X96475Y341678D01*
X96378Y341658D01*
X96280Y341640D01*
X96182Y341627D01*
X96083Y341618D01*
X95984Y341612D01*
X95885Y341610D01*
X100012Y346374D02*
X100064Y346458D01*
X100119Y346541D01*
X100178Y346621D01*
X100239Y346699D01*
X100303Y346774D01*
X100371Y346847D01*
X100441Y346918D01*
X100513Y346985D01*
X100588Y347050D01*
X100666Y347112D01*
X100746Y347171D01*
X100828Y347227D01*
X100912Y347279D01*
X100998Y347328D01*
X101086Y347374D01*
X101176Y347417D01*
X101267Y347456D01*
X101360Y347491D01*
X101454Y347523D01*
X101549Y347551D01*
X101645Y347576D01*
X101742Y347596D01*
X101840Y347614D01*
X101938Y347627D01*
X102037Y347636D01*
X102136Y347642D01*
X102235Y347644D01*
X100013Y346373D02*
X98108Y342881D01*
X93345Y352749D02*
X104775Y352749D01*
X93345Y352749D02*
X93345Y357829D01*
X98425Y357829D02*
X98425Y352749D01*
X96520Y362248D02*
X101600Y362248D01*
X96520Y362248D02*
X96409Y362250D01*
X96299Y362256D01*
X96188Y362265D01*
X96078Y362279D01*
X95969Y362296D01*
X95860Y362317D01*
X95752Y362342D01*
X95645Y362371D01*
X95539Y362403D01*
X95434Y362439D01*
X95331Y362479D01*
X95229Y362522D01*
X95128Y362569D01*
X95029Y362620D01*
X94933Y362673D01*
X94838Y362730D01*
X94745Y362791D01*
X94654Y362854D01*
X94565Y362921D01*
X94479Y362991D01*
X94396Y363064D01*
X94314Y363139D01*
X94236Y363217D01*
X94161Y363299D01*
X94088Y363382D01*
X94018Y363468D01*
X93951Y363557D01*
X93888Y363648D01*
X93827Y363741D01*
X93770Y363836D01*
X93717Y363932D01*
X93666Y364031D01*
X93619Y364132D01*
X93576Y364234D01*
X93536Y364337D01*
X93500Y364442D01*
X93468Y364548D01*
X93439Y364655D01*
X93414Y364763D01*
X93393Y364872D01*
X93376Y364981D01*
X93362Y365091D01*
X93353Y365202D01*
X93347Y365312D01*
X93345Y365423D01*
X93347Y365534D01*
X93353Y365644D01*
X93362Y365755D01*
X93376Y365865D01*
X93393Y365974D01*
X93414Y366083D01*
X93439Y366191D01*
X93468Y366298D01*
X93500Y366404D01*
X93536Y366509D01*
X93576Y366612D01*
X93619Y366714D01*
X93666Y366815D01*
X93717Y366914D01*
X93770Y367011D01*
X93827Y367105D01*
X93888Y367198D01*
X93951Y367289D01*
X94018Y367378D01*
X94088Y367464D01*
X94161Y367547D01*
X94236Y367629D01*
X94314Y367707D01*
X94396Y367782D01*
X94479Y367855D01*
X94565Y367925D01*
X94654Y367992D01*
X94745Y368055D01*
X94838Y368116D01*
X94933Y368173D01*
X95029Y368226D01*
X95128Y368277D01*
X95229Y368324D01*
X95331Y368367D01*
X95434Y368407D01*
X95539Y368443D01*
X95645Y368475D01*
X95752Y368504D01*
X95860Y368529D01*
X95969Y368550D01*
X96078Y368567D01*
X96188Y368581D01*
X96299Y368590D01*
X96409Y368596D01*
X96520Y368598D01*
X101600Y368598D01*
X101711Y368596D01*
X101821Y368590D01*
X101932Y368581D01*
X102042Y368567D01*
X102151Y368550D01*
X102260Y368529D01*
X102368Y368504D01*
X102475Y368475D01*
X102581Y368443D01*
X102686Y368407D01*
X102789Y368367D01*
X102891Y368324D01*
X102992Y368277D01*
X103091Y368226D01*
X103188Y368173D01*
X103282Y368116D01*
X103375Y368055D01*
X103466Y367992D01*
X103555Y367925D01*
X103641Y367855D01*
X103724Y367782D01*
X103806Y367707D01*
X103884Y367629D01*
X103959Y367547D01*
X104032Y367464D01*
X104102Y367378D01*
X104169Y367289D01*
X104232Y367198D01*
X104293Y367105D01*
X104350Y367010D01*
X104403Y366914D01*
X104454Y366815D01*
X104501Y366714D01*
X104544Y366612D01*
X104584Y366509D01*
X104620Y366404D01*
X104652Y366298D01*
X104681Y366191D01*
X104706Y366083D01*
X104727Y365974D01*
X104744Y365865D01*
X104758Y365755D01*
X104767Y365644D01*
X104773Y365534D01*
X104775Y365423D01*
X104773Y365312D01*
X104767Y365202D01*
X104758Y365091D01*
X104744Y364981D01*
X104727Y364872D01*
X104706Y364763D01*
X104681Y364655D01*
X104652Y364548D01*
X104620Y364442D01*
X104584Y364337D01*
X104544Y364234D01*
X104501Y364132D01*
X104454Y364031D01*
X104403Y363932D01*
X104350Y363835D01*
X104293Y363741D01*
X104232Y363648D01*
X104169Y363557D01*
X104102Y363468D01*
X104032Y363382D01*
X103959Y363299D01*
X103884Y363217D01*
X103806Y363139D01*
X103724Y363064D01*
X103641Y362991D01*
X103555Y362921D01*
X103466Y362854D01*
X103375Y362791D01*
X103282Y362730D01*
X103187Y362673D01*
X103091Y362620D01*
X102992Y362569D01*
X102891Y362522D01*
X102789Y362479D01*
X102686Y362439D01*
X102581Y362403D01*
X102475Y362371D01*
X102368Y362342D01*
X102260Y362317D01*
X102151Y362296D01*
X102042Y362279D01*
X101932Y362265D01*
X101821Y362256D01*
X101711Y362250D01*
X101600Y362248D01*
X104775Y374142D02*
X93345Y374142D01*
X93345Y377317D01*
X93347Y377428D01*
X93353Y377538D01*
X93362Y377649D01*
X93376Y377759D01*
X93393Y377868D01*
X93414Y377977D01*
X93439Y378085D01*
X93468Y378192D01*
X93500Y378298D01*
X93536Y378403D01*
X93576Y378506D01*
X93619Y378608D01*
X93666Y378709D01*
X93717Y378808D01*
X93770Y378905D01*
X93827Y378999D01*
X93888Y379092D01*
X93951Y379183D01*
X94018Y379272D01*
X94088Y379358D01*
X94161Y379441D01*
X94236Y379523D01*
X94314Y379601D01*
X94396Y379676D01*
X94479Y379749D01*
X94565Y379819D01*
X94654Y379886D01*
X94745Y379949D01*
X94838Y380010D01*
X94933Y380067D01*
X95029Y380120D01*
X95128Y380171D01*
X95229Y380218D01*
X95331Y380261D01*
X95434Y380301D01*
X95539Y380337D01*
X95645Y380369D01*
X95752Y380398D01*
X95860Y380423D01*
X95969Y380444D01*
X96078Y380461D01*
X96188Y380475D01*
X96299Y380484D01*
X96409Y380490D01*
X96520Y380492D01*
X96631Y380490D01*
X96741Y380484D01*
X96852Y380475D01*
X96962Y380461D01*
X97071Y380444D01*
X97180Y380423D01*
X97288Y380398D01*
X97395Y380369D01*
X97501Y380337D01*
X97606Y380301D01*
X97709Y380261D01*
X97811Y380218D01*
X97912Y380171D01*
X98011Y380120D01*
X98108Y380067D01*
X98202Y380010D01*
X98295Y379949D01*
X98386Y379886D01*
X98475Y379819D01*
X98561Y379749D01*
X98644Y379676D01*
X98726Y379601D01*
X98804Y379523D01*
X98879Y379441D01*
X98952Y379358D01*
X99022Y379272D01*
X99089Y379183D01*
X99152Y379092D01*
X99213Y378999D01*
X99270Y378905D01*
X99323Y378808D01*
X99374Y378709D01*
X99421Y378608D01*
X99464Y378506D01*
X99504Y378403D01*
X99540Y378298D01*
X99572Y378192D01*
X99601Y378085D01*
X99626Y377977D01*
X99647Y377868D01*
X99664Y377759D01*
X99678Y377649D01*
X99687Y377538D01*
X99693Y377428D01*
X99695Y377317D01*
X99695Y374142D01*
X99695Y377952D02*
X104775Y380492D01*
X104775Y385997D02*
X93345Y385997D01*
X99695Y389807D01*
X93345Y393617D01*
X104775Y393617D01*
X104775Y399612D02*
X104775Y404692D01*
X104775Y399612D02*
X93345Y399612D01*
X93345Y404692D01*
X98425Y403422D02*
X98425Y399612D01*
X93345Y409575D02*
X104775Y409575D01*
X93345Y409575D02*
X93345Y412750D01*
X93347Y412861D01*
X93353Y412971D01*
X93362Y413082D01*
X93376Y413192D01*
X93393Y413301D01*
X93414Y413410D01*
X93439Y413518D01*
X93468Y413625D01*
X93500Y413731D01*
X93536Y413836D01*
X93576Y413939D01*
X93619Y414041D01*
X93666Y414142D01*
X93717Y414241D01*
X93770Y414338D01*
X93827Y414432D01*
X93888Y414525D01*
X93951Y414616D01*
X94018Y414705D01*
X94088Y414791D01*
X94161Y414874D01*
X94236Y414956D01*
X94314Y415034D01*
X94396Y415109D01*
X94479Y415182D01*
X94565Y415252D01*
X94654Y415319D01*
X94745Y415382D01*
X94838Y415443D01*
X94933Y415500D01*
X95029Y415553D01*
X95128Y415604D01*
X95229Y415651D01*
X95331Y415694D01*
X95434Y415734D01*
X95539Y415770D01*
X95645Y415802D01*
X95752Y415831D01*
X95860Y415856D01*
X95969Y415877D01*
X96078Y415894D01*
X96188Y415908D01*
X96299Y415917D01*
X96409Y415923D01*
X96520Y415925D01*
X96631Y415923D01*
X96741Y415917D01*
X96852Y415908D01*
X96962Y415894D01*
X97071Y415877D01*
X97180Y415856D01*
X97288Y415831D01*
X97395Y415802D01*
X97501Y415770D01*
X97606Y415734D01*
X97709Y415694D01*
X97811Y415651D01*
X97912Y415604D01*
X98011Y415553D01*
X98108Y415500D01*
X98202Y415443D01*
X98295Y415382D01*
X98386Y415319D01*
X98475Y415252D01*
X98561Y415182D01*
X98644Y415109D01*
X98726Y415034D01*
X98804Y414956D01*
X98879Y414874D01*
X98952Y414791D01*
X99022Y414705D01*
X99089Y414616D01*
X99152Y414525D01*
X99213Y414432D01*
X99270Y414338D01*
X99323Y414241D01*
X99374Y414142D01*
X99421Y414041D01*
X99464Y413939D01*
X99504Y413836D01*
X99540Y413731D01*
X99572Y413625D01*
X99601Y413518D01*
X99626Y413410D01*
X99647Y413301D01*
X99664Y413192D01*
X99678Y413082D01*
X99687Y412971D01*
X99693Y412861D01*
X99695Y412750D01*
X99695Y409575D01*
X99695Y413385D02*
X104775Y415925D01*
D10*
X519430Y88900D02*
X623570Y88900D01*
X623570Y247650D02*
X519430Y247650D01*
X623570Y213360D02*
X623570Y88900D01*
X623570Y213360D02*
X614680Y213360D01*
X614680Y228600D01*
X623570Y228600D01*
X623570Y247650D01*
X519430Y213360D02*
X519430Y88900D01*
X519430Y213360D02*
X528320Y213360D01*
X528320Y228600D01*
X519430Y228600D01*
X519430Y247650D01*
D17*
X525780Y95250D02*
X617220Y95250D01*
X617220Y177800D01*
X525780Y177800D01*
X525780Y95250D01*
D10*
X553466Y213360D02*
X553471Y213803D01*
X553488Y214245D01*
X553515Y214687D01*
X553553Y215128D01*
X553602Y215568D01*
X553661Y216006D01*
X553732Y216443D01*
X553813Y216878D01*
X553904Y217311D01*
X554006Y217742D01*
X554119Y218170D01*
X554243Y218595D01*
X554376Y219017D01*
X554520Y219435D01*
X554674Y219850D01*
X554839Y220261D01*
X555013Y220668D01*
X555197Y221071D01*
X555392Y221468D01*
X555595Y221861D01*
X555809Y222249D01*
X556032Y222631D01*
X556264Y223008D01*
X556505Y223379D01*
X556756Y223744D01*
X557015Y224103D01*
X557283Y224455D01*
X557560Y224801D01*
X557844Y225139D01*
X558138Y225471D01*
X558439Y225795D01*
X558748Y226112D01*
X559065Y226421D01*
X559389Y226722D01*
X559721Y227016D01*
X560059Y227300D01*
X560405Y227577D01*
X560757Y227845D01*
X561116Y228104D01*
X561481Y228355D01*
X561852Y228596D01*
X562229Y228828D01*
X562611Y229051D01*
X562999Y229265D01*
X563392Y229468D01*
X563789Y229663D01*
X564192Y229847D01*
X564599Y230021D01*
X565010Y230186D01*
X565425Y230340D01*
X565843Y230484D01*
X566265Y230617D01*
X566690Y230741D01*
X567118Y230854D01*
X567549Y230956D01*
X567982Y231047D01*
X568417Y231128D01*
X568854Y231199D01*
X569292Y231258D01*
X569732Y231307D01*
X570173Y231345D01*
X570615Y231372D01*
X571057Y231389D01*
X571500Y231394D01*
X571943Y231389D01*
X572385Y231372D01*
X572827Y231345D01*
X573268Y231307D01*
X573708Y231258D01*
X574146Y231199D01*
X574583Y231128D01*
X575018Y231047D01*
X575451Y230956D01*
X575882Y230854D01*
X576310Y230741D01*
X576735Y230617D01*
X577157Y230484D01*
X577575Y230340D01*
X577990Y230186D01*
X578401Y230021D01*
X578808Y229847D01*
X579211Y229663D01*
X579608Y229468D01*
X580001Y229265D01*
X580389Y229051D01*
X580771Y228828D01*
X581148Y228596D01*
X581519Y228355D01*
X581884Y228104D01*
X582243Y227845D01*
X582595Y227577D01*
X582941Y227300D01*
X583279Y227016D01*
X583611Y226722D01*
X583935Y226421D01*
X584252Y226112D01*
X584561Y225795D01*
X584862Y225471D01*
X585156Y225139D01*
X585440Y224801D01*
X585717Y224455D01*
X585985Y224103D01*
X586244Y223744D01*
X586495Y223379D01*
X586736Y223008D01*
X586968Y222631D01*
X587191Y222249D01*
X587405Y221861D01*
X587608Y221468D01*
X587803Y221071D01*
X587987Y220668D01*
X588161Y220261D01*
X588326Y219850D01*
X588480Y219435D01*
X588624Y219017D01*
X588757Y218595D01*
X588881Y218170D01*
X588994Y217742D01*
X589096Y217311D01*
X589187Y216878D01*
X589268Y216443D01*
X589339Y216006D01*
X589398Y215568D01*
X589447Y215128D01*
X589485Y214687D01*
X589512Y214245D01*
X589529Y213803D01*
X589534Y213360D01*
X589529Y212917D01*
X589512Y212475D01*
X589485Y212033D01*
X589447Y211592D01*
X589398Y211152D01*
X589339Y210714D01*
X589268Y210277D01*
X589187Y209842D01*
X589096Y209409D01*
X588994Y208978D01*
X588881Y208550D01*
X588757Y208125D01*
X588624Y207703D01*
X588480Y207285D01*
X588326Y206870D01*
X588161Y206459D01*
X587987Y206052D01*
X587803Y205649D01*
X587608Y205252D01*
X587405Y204859D01*
X587191Y204471D01*
X586968Y204089D01*
X586736Y203712D01*
X586495Y203341D01*
X586244Y202976D01*
X585985Y202617D01*
X585717Y202265D01*
X585440Y201919D01*
X585156Y201581D01*
X584862Y201249D01*
X584561Y200925D01*
X584252Y200608D01*
X583935Y200299D01*
X583611Y199998D01*
X583279Y199704D01*
X582941Y199420D01*
X582595Y199143D01*
X582243Y198875D01*
X581884Y198616D01*
X581519Y198365D01*
X581148Y198124D01*
X580771Y197892D01*
X580389Y197669D01*
X580001Y197455D01*
X579608Y197252D01*
X579211Y197057D01*
X578808Y196873D01*
X578401Y196699D01*
X577990Y196534D01*
X577575Y196380D01*
X577157Y196236D01*
X576735Y196103D01*
X576310Y195979D01*
X575882Y195866D01*
X575451Y195764D01*
X575018Y195673D01*
X574583Y195592D01*
X574146Y195521D01*
X573708Y195462D01*
X573268Y195413D01*
X572827Y195375D01*
X572385Y195348D01*
X571943Y195331D01*
X571500Y195326D01*
X571057Y195331D01*
X570615Y195348D01*
X570173Y195375D01*
X569732Y195413D01*
X569292Y195462D01*
X568854Y195521D01*
X568417Y195592D01*
X567982Y195673D01*
X567549Y195764D01*
X567118Y195866D01*
X566690Y195979D01*
X566265Y196103D01*
X565843Y196236D01*
X565425Y196380D01*
X565010Y196534D01*
X564599Y196699D01*
X564192Y196873D01*
X563789Y197057D01*
X563392Y197252D01*
X562999Y197455D01*
X562611Y197669D01*
X562229Y197892D01*
X561852Y198124D01*
X561481Y198365D01*
X561116Y198616D01*
X560757Y198875D01*
X560405Y199143D01*
X560059Y199420D01*
X559721Y199704D01*
X559389Y199998D01*
X559065Y200299D01*
X558748Y200608D01*
X558439Y200925D01*
X558138Y201249D01*
X557844Y201581D01*
X557560Y201919D01*
X557283Y202265D01*
X557015Y202617D01*
X556756Y202976D01*
X556505Y203341D01*
X556264Y203712D01*
X556032Y204089D01*
X555809Y204471D01*
X555595Y204859D01*
X555392Y205252D01*
X555197Y205649D01*
X555013Y206052D01*
X554839Y206459D01*
X554674Y206870D01*
X554520Y207285D01*
X554376Y207703D01*
X554243Y208125D01*
X554119Y208550D01*
X554006Y208978D01*
X553904Y209409D01*
X553813Y209842D01*
X553732Y210277D01*
X553661Y210714D01*
X553602Y211152D01*
X553553Y211592D01*
X553515Y212033D01*
X553488Y212475D01*
X553471Y212917D01*
X553466Y213360D01*
D18*
X596900Y57785D03*
X571500Y57785D03*
X546100Y57785D03*
D19*
X546100Y74930D03*
X571500Y74930D03*
X596900Y74930D03*
D20*
X516001Y58547D02*
X499999Y58547D01*
X516001Y56769D02*
X516001Y60325D01*
X499999Y60325D02*
X499999Y56769D01*
X516001Y70119D02*
X516001Y73675D01*
X516001Y70119D02*
X515999Y70003D01*
X515993Y69886D01*
X515984Y69770D01*
X515971Y69655D01*
X515954Y69540D01*
X515933Y69425D01*
X515908Y69312D01*
X515880Y69199D01*
X515848Y69087D01*
X515812Y68976D01*
X515773Y68866D01*
X515730Y68758D01*
X515684Y68651D01*
X515634Y68546D01*
X515581Y68443D01*
X515525Y68341D01*
X515465Y68241D01*
X515402Y68143D01*
X515335Y68048D01*
X515266Y67954D01*
X515194Y67863D01*
X515119Y67774D01*
X515040Y67688D01*
X514959Y67605D01*
X514876Y67524D01*
X514790Y67445D01*
X514701Y67370D01*
X514610Y67298D01*
X514516Y67229D01*
X514421Y67162D01*
X514323Y67099D01*
X514223Y67039D01*
X514121Y66983D01*
X514018Y66930D01*
X513913Y66880D01*
X513806Y66834D01*
X513698Y66791D01*
X513588Y66752D01*
X513477Y66716D01*
X513365Y66684D01*
X513252Y66656D01*
X513139Y66631D01*
X513024Y66610D01*
X512909Y66593D01*
X512794Y66580D01*
X512678Y66571D01*
X512561Y66565D01*
X512445Y66563D01*
X503555Y66563D01*
X503439Y66565D01*
X503322Y66571D01*
X503206Y66580D01*
X503091Y66593D01*
X502976Y66610D01*
X502861Y66631D01*
X502748Y66656D01*
X502635Y66684D01*
X502523Y66716D01*
X502412Y66752D01*
X502302Y66791D01*
X502194Y66834D01*
X502087Y66880D01*
X501982Y66930D01*
X501879Y66983D01*
X501777Y67039D01*
X501677Y67099D01*
X501579Y67162D01*
X501484Y67229D01*
X501390Y67298D01*
X501299Y67370D01*
X501210Y67445D01*
X501124Y67524D01*
X501041Y67605D01*
X500960Y67688D01*
X500881Y67774D01*
X500806Y67863D01*
X500734Y67954D01*
X500665Y68048D01*
X500598Y68143D01*
X500535Y68241D01*
X500475Y68341D01*
X500419Y68443D01*
X500366Y68546D01*
X500316Y68651D01*
X500270Y68758D01*
X500227Y68866D01*
X500188Y68976D01*
X500152Y69087D01*
X500120Y69199D01*
X500092Y69312D01*
X500067Y69425D01*
X500046Y69540D01*
X500029Y69655D01*
X500016Y69770D01*
X500007Y69886D01*
X500001Y70003D01*
X499999Y70119D01*
X499999Y73675D01*
X503555Y79633D02*
X499999Y84078D01*
X516001Y84078D01*
X516001Y79633D02*
X516001Y88523D01*
D10*
X471170Y228600D02*
X367030Y228600D01*
X367030Y69850D02*
X471170Y69850D01*
X367030Y104140D02*
X367030Y228600D01*
X367030Y104140D02*
X375920Y104140D01*
X375920Y88900D01*
X367030Y88900D01*
X367030Y69850D01*
X471170Y104140D02*
X471170Y228600D01*
X471170Y104140D02*
X462280Y104140D01*
X462280Y88900D01*
X471170Y88900D01*
X471170Y69850D01*
D17*
X464820Y222250D02*
X373380Y222250D01*
X373380Y139700D01*
X464820Y139700D01*
X464820Y222250D01*
D10*
X401066Y104140D02*
X401071Y104583D01*
X401088Y105025D01*
X401115Y105467D01*
X401153Y105908D01*
X401202Y106348D01*
X401261Y106786D01*
X401332Y107223D01*
X401413Y107658D01*
X401504Y108091D01*
X401606Y108522D01*
X401719Y108950D01*
X401843Y109375D01*
X401976Y109797D01*
X402120Y110215D01*
X402274Y110630D01*
X402439Y111041D01*
X402613Y111448D01*
X402797Y111851D01*
X402992Y112248D01*
X403195Y112641D01*
X403409Y113029D01*
X403632Y113411D01*
X403864Y113788D01*
X404105Y114159D01*
X404356Y114524D01*
X404615Y114883D01*
X404883Y115235D01*
X405160Y115581D01*
X405444Y115919D01*
X405738Y116251D01*
X406039Y116575D01*
X406348Y116892D01*
X406665Y117201D01*
X406989Y117502D01*
X407321Y117796D01*
X407659Y118080D01*
X408005Y118357D01*
X408357Y118625D01*
X408716Y118884D01*
X409081Y119135D01*
X409452Y119376D01*
X409829Y119608D01*
X410211Y119831D01*
X410599Y120045D01*
X410992Y120248D01*
X411389Y120443D01*
X411792Y120627D01*
X412199Y120801D01*
X412610Y120966D01*
X413025Y121120D01*
X413443Y121264D01*
X413865Y121397D01*
X414290Y121521D01*
X414718Y121634D01*
X415149Y121736D01*
X415582Y121827D01*
X416017Y121908D01*
X416454Y121979D01*
X416892Y122038D01*
X417332Y122087D01*
X417773Y122125D01*
X418215Y122152D01*
X418657Y122169D01*
X419100Y122174D01*
X419543Y122169D01*
X419985Y122152D01*
X420427Y122125D01*
X420868Y122087D01*
X421308Y122038D01*
X421746Y121979D01*
X422183Y121908D01*
X422618Y121827D01*
X423051Y121736D01*
X423482Y121634D01*
X423910Y121521D01*
X424335Y121397D01*
X424757Y121264D01*
X425175Y121120D01*
X425590Y120966D01*
X426001Y120801D01*
X426408Y120627D01*
X426811Y120443D01*
X427208Y120248D01*
X427601Y120045D01*
X427989Y119831D01*
X428371Y119608D01*
X428748Y119376D01*
X429119Y119135D01*
X429484Y118884D01*
X429843Y118625D01*
X430195Y118357D01*
X430541Y118080D01*
X430879Y117796D01*
X431211Y117502D01*
X431535Y117201D01*
X431852Y116892D01*
X432161Y116575D01*
X432462Y116251D01*
X432756Y115919D01*
X433040Y115581D01*
X433317Y115235D01*
X433585Y114883D01*
X433844Y114524D01*
X434095Y114159D01*
X434336Y113788D01*
X434568Y113411D01*
X434791Y113029D01*
X435005Y112641D01*
X435208Y112248D01*
X435403Y111851D01*
X435587Y111448D01*
X435761Y111041D01*
X435926Y110630D01*
X436080Y110215D01*
X436224Y109797D01*
X436357Y109375D01*
X436481Y108950D01*
X436594Y108522D01*
X436696Y108091D01*
X436787Y107658D01*
X436868Y107223D01*
X436939Y106786D01*
X436998Y106348D01*
X437047Y105908D01*
X437085Y105467D01*
X437112Y105025D01*
X437129Y104583D01*
X437134Y104140D01*
X437129Y103697D01*
X437112Y103255D01*
X437085Y102813D01*
X437047Y102372D01*
X436998Y101932D01*
X436939Y101494D01*
X436868Y101057D01*
X436787Y100622D01*
X436696Y100189D01*
X436594Y99758D01*
X436481Y99330D01*
X436357Y98905D01*
X436224Y98483D01*
X436080Y98065D01*
X435926Y97650D01*
X435761Y97239D01*
X435587Y96832D01*
X435403Y96429D01*
X435208Y96032D01*
X435005Y95639D01*
X434791Y95251D01*
X434568Y94869D01*
X434336Y94492D01*
X434095Y94121D01*
X433844Y93756D01*
X433585Y93397D01*
X433317Y93045D01*
X433040Y92699D01*
X432756Y92361D01*
X432462Y92029D01*
X432161Y91705D01*
X431852Y91388D01*
X431535Y91079D01*
X431211Y90778D01*
X430879Y90484D01*
X430541Y90200D01*
X430195Y89923D01*
X429843Y89655D01*
X429484Y89396D01*
X429119Y89145D01*
X428748Y88904D01*
X428371Y88672D01*
X427989Y88449D01*
X427601Y88235D01*
X427208Y88032D01*
X426811Y87837D01*
X426408Y87653D01*
X426001Y87479D01*
X425590Y87314D01*
X425175Y87160D01*
X424757Y87016D01*
X424335Y86883D01*
X423910Y86759D01*
X423482Y86646D01*
X423051Y86544D01*
X422618Y86453D01*
X422183Y86372D01*
X421746Y86301D01*
X421308Y86242D01*
X420868Y86193D01*
X420427Y86155D01*
X419985Y86128D01*
X419543Y86111D01*
X419100Y86106D01*
X418657Y86111D01*
X418215Y86128D01*
X417773Y86155D01*
X417332Y86193D01*
X416892Y86242D01*
X416454Y86301D01*
X416017Y86372D01*
X415582Y86453D01*
X415149Y86544D01*
X414718Y86646D01*
X414290Y86759D01*
X413865Y86883D01*
X413443Y87016D01*
X413025Y87160D01*
X412610Y87314D01*
X412199Y87479D01*
X411792Y87653D01*
X411389Y87837D01*
X410992Y88032D01*
X410599Y88235D01*
X410211Y88449D01*
X409829Y88672D01*
X409452Y88904D01*
X409081Y89145D01*
X408716Y89396D01*
X408357Y89655D01*
X408005Y89923D01*
X407659Y90200D01*
X407321Y90484D01*
X406989Y90778D01*
X406665Y91079D01*
X406348Y91388D01*
X406039Y91705D01*
X405738Y92029D01*
X405444Y92361D01*
X405160Y92699D01*
X404883Y93045D01*
X404615Y93397D01*
X404356Y93756D01*
X404105Y94121D01*
X403864Y94492D01*
X403632Y94869D01*
X403409Y95251D01*
X403195Y95639D01*
X402992Y96032D01*
X402797Y96429D01*
X402613Y96832D01*
X402439Y97239D01*
X402274Y97650D01*
X402120Y98065D01*
X401976Y98483D01*
X401843Y98905D01*
X401719Y99330D01*
X401606Y99758D01*
X401504Y100189D01*
X401413Y100622D01*
X401332Y101057D01*
X401261Y101494D01*
X401202Y101932D01*
X401153Y102372D01*
X401115Y102813D01*
X401088Y103255D01*
X401071Y103697D01*
X401066Y104140D01*
D18*
X393700Y259715D03*
X419100Y259715D03*
X444500Y259715D03*
D19*
X444500Y242570D03*
X419100Y242570D03*
X393700Y242570D03*
D20*
X474599Y230755D02*
X490601Y230755D01*
X490601Y228977D02*
X490601Y232533D01*
X474599Y232533D02*
X474599Y228977D01*
X490601Y242327D02*
X490601Y245883D01*
X490601Y242327D02*
X490599Y242211D01*
X490593Y242094D01*
X490584Y241978D01*
X490571Y241863D01*
X490554Y241748D01*
X490533Y241633D01*
X490508Y241520D01*
X490480Y241407D01*
X490448Y241295D01*
X490412Y241184D01*
X490373Y241074D01*
X490330Y240966D01*
X490284Y240859D01*
X490234Y240754D01*
X490181Y240651D01*
X490125Y240549D01*
X490065Y240449D01*
X490002Y240351D01*
X489935Y240256D01*
X489866Y240162D01*
X489794Y240071D01*
X489719Y239982D01*
X489640Y239896D01*
X489559Y239813D01*
X489476Y239732D01*
X489390Y239653D01*
X489301Y239578D01*
X489210Y239506D01*
X489116Y239437D01*
X489021Y239370D01*
X488923Y239307D01*
X488823Y239247D01*
X488721Y239191D01*
X488618Y239138D01*
X488513Y239088D01*
X488406Y239042D01*
X488298Y238999D01*
X488188Y238960D01*
X488077Y238924D01*
X487965Y238892D01*
X487852Y238864D01*
X487739Y238839D01*
X487624Y238818D01*
X487509Y238801D01*
X487394Y238788D01*
X487278Y238779D01*
X487161Y238773D01*
X487045Y238771D01*
X478155Y238771D01*
X478039Y238773D01*
X477922Y238779D01*
X477806Y238788D01*
X477691Y238801D01*
X477576Y238818D01*
X477461Y238839D01*
X477348Y238864D01*
X477235Y238892D01*
X477123Y238924D01*
X477012Y238960D01*
X476902Y238999D01*
X476794Y239042D01*
X476687Y239088D01*
X476582Y239138D01*
X476479Y239191D01*
X476377Y239247D01*
X476277Y239307D01*
X476179Y239370D01*
X476084Y239437D01*
X475990Y239506D01*
X475899Y239578D01*
X475810Y239653D01*
X475724Y239732D01*
X475641Y239813D01*
X475560Y239896D01*
X475481Y239982D01*
X475406Y240071D01*
X475334Y240162D01*
X475265Y240256D01*
X475198Y240351D01*
X475135Y240449D01*
X475075Y240549D01*
X475019Y240651D01*
X474966Y240754D01*
X474916Y240859D01*
X474870Y240966D01*
X474827Y241074D01*
X474788Y241184D01*
X474752Y241295D01*
X474720Y241407D01*
X474692Y241520D01*
X474667Y241633D01*
X474646Y241748D01*
X474629Y241863D01*
X474616Y241978D01*
X474607Y242094D01*
X474601Y242211D01*
X474599Y242327D01*
X474599Y245883D01*
X474599Y256731D02*
X474601Y256857D01*
X474607Y256982D01*
X474617Y257108D01*
X474631Y257232D01*
X474648Y257357D01*
X474670Y257481D01*
X474695Y257604D01*
X474725Y257726D01*
X474758Y257847D01*
X474795Y257967D01*
X474836Y258086D01*
X474880Y258204D01*
X474928Y258320D01*
X474980Y258435D01*
X475035Y258547D01*
X475094Y258658D01*
X475156Y258768D01*
X475222Y258875D01*
X475291Y258980D01*
X475363Y259083D01*
X475439Y259183D01*
X475517Y259281D01*
X475599Y259377D01*
X475683Y259470D01*
X475771Y259560D01*
X475861Y259648D01*
X475954Y259732D01*
X476050Y259814D01*
X476148Y259892D01*
X476248Y259968D01*
X476351Y260040D01*
X476456Y260109D01*
X476563Y260175D01*
X476673Y260237D01*
X476784Y260296D01*
X476896Y260351D01*
X477011Y260403D01*
X477127Y260451D01*
X477245Y260495D01*
X477364Y260536D01*
X477484Y260573D01*
X477605Y260606D01*
X477727Y260636D01*
X477850Y260661D01*
X477974Y260683D01*
X478099Y260700D01*
X478223Y260714D01*
X478349Y260724D01*
X478474Y260730D01*
X478600Y260732D01*
X474599Y256731D02*
X474601Y256590D01*
X474607Y256450D01*
X474616Y256310D01*
X474630Y256170D01*
X474647Y256031D01*
X474668Y255892D01*
X474693Y255753D01*
X474721Y255616D01*
X474754Y255479D01*
X474790Y255343D01*
X474830Y255208D01*
X474873Y255075D01*
X474920Y254942D01*
X474971Y254811D01*
X475025Y254682D01*
X475083Y254554D01*
X475144Y254427D01*
X475209Y254302D01*
X475277Y254180D01*
X475348Y254059D01*
X475423Y253939D01*
X475501Y253823D01*
X475582Y253708D01*
X475666Y253595D01*
X475754Y253485D01*
X475844Y253377D01*
X475937Y253272D01*
X476033Y253170D01*
X476132Y253070D01*
X476233Y252972D01*
X476337Y252878D01*
X476444Y252786D01*
X476553Y252698D01*
X476664Y252612D01*
X476778Y252530D01*
X476894Y252450D01*
X477012Y252374D01*
X477132Y252301D01*
X477254Y252232D01*
X477378Y252165D01*
X477504Y252102D01*
X477631Y252043D01*
X477760Y251987D01*
X477890Y251935D01*
X478022Y251886D01*
X478155Y251841D01*
X481712Y259397D02*
X481621Y259489D01*
X481528Y259579D01*
X481433Y259665D01*
X481335Y259749D01*
X481234Y259829D01*
X481131Y259907D01*
X481026Y259981D01*
X480918Y260052D01*
X480809Y260120D01*
X480697Y260184D01*
X480584Y260246D01*
X480469Y260303D01*
X480352Y260358D01*
X480233Y260409D01*
X480113Y260456D01*
X479992Y260499D01*
X479870Y260539D01*
X479746Y260575D01*
X479621Y260608D01*
X479496Y260637D01*
X479369Y260662D01*
X479242Y260683D01*
X479114Y260700D01*
X478986Y260714D01*
X478858Y260723D01*
X478729Y260729D01*
X478600Y260731D01*
X481711Y259398D02*
X490601Y251841D01*
X490601Y260731D01*
M02*
