G04 EAGLE Gerber RS-274X export*
G75*
%MOMM*%
%FSLAX34Y34*%
%LPD*%
%INSoldermask Top*%
%IPPOS*%
%AMOC8*
5,1,8,0,0,1.08239X$1,22.5*%
G01*
%ADD10C,1.625600*%
%ADD11P,1.951982X8X202.500000*%
%ADD12P,1.951982X8X292.500000*%
%ADD13P,1.951982X8X22.500000*%
%ADD14C,1.879600*%
%ADD15C,1.879600*%
%ADD16C,3.505200*%


D10*
X578612Y368300D02*
X564388Y368300D01*
X564388Y393700D02*
X578612Y393700D01*
X578612Y419100D02*
X564388Y419100D01*
D11*
X596900Y304800D03*
X571500Y304800D03*
D12*
X431800Y406400D03*
X431800Y381000D03*
D13*
X330200Y393700D03*
X355600Y393700D03*
X266700Y127000D03*
X292100Y127000D03*
D14*
X266700Y381000D03*
X165100Y381000D03*
X190500Y241300D03*
X190500Y342900D03*
X139700Y127000D03*
X139700Y228600D03*
X203200Y88900D03*
X203200Y190500D03*
X266700Y495300D03*
X165100Y495300D03*
X355600Y317500D03*
X254000Y317500D03*
D10*
X83312Y406400D02*
X69088Y406400D01*
X69088Y381000D02*
X83312Y381000D01*
X83312Y355600D02*
X69088Y355600D01*
D15*
X546100Y71882D02*
X546100Y55118D01*
X571500Y55118D02*
X571500Y71882D01*
X596900Y71882D02*
X596900Y55118D01*
D16*
X571500Y213360D03*
D15*
X444500Y245618D02*
X444500Y262382D01*
X419100Y262382D02*
X419100Y245618D01*
X393700Y245618D02*
X393700Y262382D01*
D16*
X419100Y104140D03*
M02*
