G04 EAGLE Gerber RS-274X export*
G75*
%MOMM*%
%FSLAX34Y34*%
%LPD*%
%INTop Copper*%
%IPPOS*%
%AMOC8*
5,1,8,0,0,1.08239X$1,22.5*%
G01*
%ADD10C,1.422400*%
%ADD11P,1.732040X8X202.500000*%
%ADD12P,1.732040X8X22.500000*%
%ADD13C,1.676400*%
%ADD14C,1.676400*%
%ADD15C,0.152400*%


D10*
X520700Y18288D02*
X520700Y32512D01*
X495300Y32512D02*
X495300Y18288D01*
D11*
X419100Y304800D03*
X393700Y304800D03*
D12*
X393700Y88900D03*
X419100Y88900D03*
D11*
X444500Y177800D03*
X419100Y177800D03*
D13*
X190500Y279400D03*
X190500Y177800D03*
X193040Y90170D03*
X294640Y90170D03*
X342900Y279400D03*
X342900Y177800D03*
X292100Y342900D03*
X190500Y342900D03*
D10*
X96012Y25400D02*
X81788Y25400D01*
X81788Y50800D02*
X96012Y50800D01*
D14*
X533400Y131318D02*
X533400Y148082D01*
X558800Y148082D02*
X558800Y131318D01*
X584200Y131318D02*
X584200Y148082D01*
D15*
X89916Y147828D02*
X89916Y51816D01*
X89916Y147828D02*
X190500Y248412D01*
X190500Y279400D01*
X89916Y51816D02*
X88900Y50800D01*
X190500Y279400D02*
X190500Y342900D01*
X419100Y304800D02*
X419100Y254508D01*
X533400Y140208D01*
X533400Y139700D01*
X393192Y89916D02*
X295656Y89916D01*
X393192Y89916D02*
X393700Y88900D01*
X295656Y89916D02*
X294640Y90170D01*
X367284Y304800D02*
X393700Y304800D01*
X348996Y286512D02*
X342900Y280416D01*
X348996Y286512D02*
X367284Y304800D01*
X342900Y280416D02*
X342900Y279400D01*
X348996Y286512D02*
X292608Y342900D01*
X292100Y342900D01*
X481584Y25908D02*
X495300Y25908D01*
X481584Y25908D02*
X419100Y88392D01*
X495300Y25908D02*
X495300Y25400D01*
X419100Y88392D02*
X419100Y88900D01*
X419100Y177800D01*
X342900Y254508D02*
X342900Y279400D01*
X342900Y254508D02*
X419100Y178308D01*
X419100Y177800D01*
X128016Y25908D02*
X89916Y25908D01*
X128016Y25908D02*
X192024Y89916D01*
X89916Y25908D02*
X88900Y25400D01*
X192024Y89916D02*
X193040Y90170D01*
X278892Y176784D02*
X342900Y176784D01*
X278892Y176784D02*
X193548Y91440D01*
X342900Y176784D02*
X342900Y177800D01*
X193548Y91440D02*
X193040Y90170D01*
X521208Y76200D02*
X521208Y25908D01*
X533400Y88392D02*
X583692Y138684D01*
X533400Y88392D02*
X521208Y76200D01*
X521208Y25908D02*
X520700Y25400D01*
X583692Y138684D02*
X584200Y139700D01*
X533400Y88392D02*
X445008Y176784D01*
X444500Y177800D01*
M02*
