G04 EAGLE Gerber RS-274X export*
G75*
%MOMM*%
%FSLAX34Y34*%
%LPD*%
%INSilkscreen Top*%
%IPPOS*%
%AMOC8*
5,1,8,0,0,1.08239X$1,22.5*%
G01*
%ADD10C,0.152400*%
%ADD11C,0.127000*%
%ADD12C,0.254000*%
%ADD13R,2.540000X0.508000*%
%ADD14R,0.762000X1.905000*%
%ADD15R,0.508000X2.540000*%
%ADD16R,1.905000X0.762000*%
%ADD17C,0.050800*%
%ADD18R,0.762000X0.635000*%
%ADD19R,1.270000X2.794000*%
%ADD20C,0.177800*%


D10*
X254762Y17018D02*
X260181Y762D01*
X265599Y17018D01*
X275812Y17018D02*
X270393Y762D01*
X281231Y762D02*
X275812Y17018D01*
X279876Y4826D02*
X271748Y4826D01*
X287588Y762D02*
X287588Y17018D01*
X293006Y7987D01*
X298425Y17018D01*
X298425Y762D01*
X309159Y762D02*
X309159Y17018D01*
X313674Y17018D02*
X304643Y17018D01*
X319783Y762D02*
X327008Y762D01*
X319783Y762D02*
X319783Y17018D01*
X327008Y17018D01*
X325202Y9793D02*
X319783Y9793D01*
X336352Y762D02*
X339965Y762D01*
X336352Y762D02*
X336234Y764D01*
X336116Y770D01*
X335998Y779D01*
X335881Y793D01*
X335764Y810D01*
X335647Y831D01*
X335532Y856D01*
X335417Y885D01*
X335303Y918D01*
X335191Y954D01*
X335080Y994D01*
X334970Y1037D01*
X334861Y1084D01*
X334754Y1134D01*
X334649Y1189D01*
X334546Y1246D01*
X334445Y1307D01*
X334345Y1371D01*
X334248Y1438D01*
X334153Y1508D01*
X334061Y1582D01*
X333970Y1658D01*
X333883Y1738D01*
X333798Y1820D01*
X333716Y1905D01*
X333636Y1992D01*
X333560Y2083D01*
X333486Y2175D01*
X333416Y2270D01*
X333349Y2367D01*
X333285Y2467D01*
X333224Y2568D01*
X333167Y2671D01*
X333112Y2776D01*
X333062Y2883D01*
X333015Y2992D01*
X332972Y3102D01*
X332932Y3213D01*
X332896Y3325D01*
X332863Y3439D01*
X332834Y3554D01*
X332809Y3669D01*
X332788Y3786D01*
X332771Y3903D01*
X332757Y4020D01*
X332748Y4138D01*
X332742Y4256D01*
X332740Y4374D01*
X332740Y13406D01*
X332742Y13524D01*
X332748Y13642D01*
X332757Y13760D01*
X332771Y13877D01*
X332788Y13994D01*
X332809Y14111D01*
X332834Y14226D01*
X332863Y14341D01*
X332896Y14455D01*
X332932Y14567D01*
X332972Y14678D01*
X333015Y14788D01*
X333062Y14897D01*
X333112Y15004D01*
X333166Y15109D01*
X333224Y15212D01*
X333285Y15313D01*
X333349Y15413D01*
X333416Y15510D01*
X333486Y15605D01*
X333560Y15697D01*
X333636Y15788D01*
X333716Y15875D01*
X333798Y15960D01*
X333883Y16042D01*
X333970Y16122D01*
X334061Y16198D01*
X334153Y16272D01*
X334248Y16342D01*
X334345Y16409D01*
X334445Y16473D01*
X334546Y16534D01*
X334649Y16591D01*
X334754Y16645D01*
X334861Y16696D01*
X334970Y16743D01*
X335080Y16786D01*
X335191Y16826D01*
X335303Y16862D01*
X335417Y16895D01*
X335532Y16924D01*
X335647Y16949D01*
X335764Y16970D01*
X335881Y16987D01*
X335998Y17001D01*
X336116Y17010D01*
X336234Y17016D01*
X336352Y17018D01*
X339965Y17018D01*
X346326Y17018D02*
X346326Y762D01*
X346326Y9793D02*
X355357Y9793D01*
X355357Y17018D02*
X355357Y762D01*
X505460Y12700D02*
X508000Y15240D01*
X510540Y12700D01*
X508000Y35560D02*
X505460Y38100D01*
X508000Y35560D02*
X510540Y38100D01*
X530860Y38100D01*
X533400Y35560D01*
X485140Y38100D02*
X482600Y35560D01*
X485140Y38100D02*
X505460Y38100D01*
X482600Y35560D02*
X482600Y15240D01*
X485140Y12700D01*
X505460Y12700D01*
X510540Y12700D02*
X530860Y12700D01*
X533400Y15240D01*
X533400Y35560D01*
D11*
X464503Y-3175D02*
X460693Y-3175D01*
X464503Y-3175D02*
X464603Y-3173D01*
X464702Y-3167D01*
X464802Y-3157D01*
X464900Y-3144D01*
X464999Y-3126D01*
X465096Y-3105D01*
X465192Y-3080D01*
X465288Y-3051D01*
X465382Y-3018D01*
X465475Y-2982D01*
X465566Y-2942D01*
X465656Y-2898D01*
X465744Y-2851D01*
X465830Y-2801D01*
X465914Y-2747D01*
X465996Y-2690D01*
X466075Y-2630D01*
X466153Y-2566D01*
X466227Y-2500D01*
X466299Y-2431D01*
X466368Y-2359D01*
X466434Y-2285D01*
X466498Y-2207D01*
X466558Y-2128D01*
X466615Y-2046D01*
X466669Y-1962D01*
X466719Y-1876D01*
X466766Y-1788D01*
X466810Y-1698D01*
X466850Y-1607D01*
X466886Y-1514D01*
X466919Y-1420D01*
X466948Y-1324D01*
X466973Y-1228D01*
X466994Y-1131D01*
X467012Y-1032D01*
X467025Y-934D01*
X467035Y-834D01*
X467041Y-735D01*
X467043Y-635D01*
X467043Y635D01*
X467041Y735D01*
X467035Y834D01*
X467025Y934D01*
X467012Y1032D01*
X466994Y1131D01*
X466973Y1228D01*
X466948Y1324D01*
X466919Y1420D01*
X466886Y1514D01*
X466850Y1607D01*
X466810Y1698D01*
X466766Y1788D01*
X466719Y1876D01*
X466669Y1962D01*
X466615Y2046D01*
X466558Y2128D01*
X466498Y2207D01*
X466434Y2285D01*
X466368Y2359D01*
X466299Y2431D01*
X466227Y2500D01*
X466153Y2566D01*
X466075Y2630D01*
X465996Y2690D01*
X465914Y2747D01*
X465830Y2801D01*
X465744Y2851D01*
X465656Y2898D01*
X465566Y2942D01*
X465475Y2982D01*
X465382Y3018D01*
X465288Y3051D01*
X465192Y3080D01*
X465096Y3105D01*
X464999Y3126D01*
X464900Y3144D01*
X464802Y3157D01*
X464702Y3167D01*
X464603Y3173D01*
X464503Y3175D01*
X460693Y3175D01*
X460693Y8255D01*
X467043Y8255D01*
X471488Y8255D02*
X475298Y-3175D01*
X479108Y8255D01*
X483934Y8255D02*
X483934Y-3175D01*
X483934Y8255D02*
X487109Y8255D01*
X487220Y8253D01*
X487330Y8247D01*
X487441Y8238D01*
X487551Y8224D01*
X487660Y8207D01*
X487769Y8186D01*
X487877Y8161D01*
X487984Y8132D01*
X488090Y8100D01*
X488195Y8064D01*
X488298Y8024D01*
X488400Y7981D01*
X488501Y7934D01*
X488600Y7883D01*
X488697Y7830D01*
X488791Y7773D01*
X488884Y7712D01*
X488975Y7649D01*
X489064Y7582D01*
X489150Y7512D01*
X489233Y7439D01*
X489315Y7364D01*
X489393Y7286D01*
X489468Y7204D01*
X489541Y7121D01*
X489611Y7035D01*
X489678Y6946D01*
X489741Y6855D01*
X489802Y6762D01*
X489859Y6668D01*
X489912Y6571D01*
X489963Y6472D01*
X490010Y6371D01*
X490053Y6269D01*
X490093Y6166D01*
X490129Y6061D01*
X490161Y5955D01*
X490190Y5848D01*
X490215Y5740D01*
X490236Y5631D01*
X490253Y5522D01*
X490267Y5412D01*
X490276Y5301D01*
X490282Y5191D01*
X490284Y5080D01*
X490284Y0D01*
X490282Y-111D01*
X490276Y-221D01*
X490267Y-332D01*
X490253Y-442D01*
X490236Y-551D01*
X490215Y-660D01*
X490190Y-768D01*
X490161Y-875D01*
X490129Y-981D01*
X490093Y-1086D01*
X490053Y-1189D01*
X490010Y-1291D01*
X489963Y-1392D01*
X489912Y-1491D01*
X489859Y-1588D01*
X489802Y-1682D01*
X489741Y-1775D01*
X489678Y-1866D01*
X489611Y-1955D01*
X489541Y-2041D01*
X489468Y-2124D01*
X489393Y-2206D01*
X489315Y-2284D01*
X489233Y-2359D01*
X489150Y-2432D01*
X489064Y-2502D01*
X488975Y-2569D01*
X488884Y-2632D01*
X488791Y-2693D01*
X488697Y-2750D01*
X488600Y-2803D01*
X488501Y-2854D01*
X488400Y-2901D01*
X488298Y-2944D01*
X488195Y-2984D01*
X488090Y-3020D01*
X487984Y-3052D01*
X487877Y-3081D01*
X487769Y-3106D01*
X487660Y-3127D01*
X487551Y-3144D01*
X487441Y-3158D01*
X487330Y-3167D01*
X487220Y-3173D01*
X487109Y-3175D01*
X483934Y-3175D01*
X498247Y-3175D02*
X500787Y-3175D01*
X498247Y-3175D02*
X498147Y-3173D01*
X498048Y-3167D01*
X497948Y-3157D01*
X497850Y-3144D01*
X497751Y-3126D01*
X497654Y-3105D01*
X497558Y-3080D01*
X497462Y-3051D01*
X497368Y-3018D01*
X497275Y-2982D01*
X497184Y-2942D01*
X497094Y-2898D01*
X497006Y-2851D01*
X496920Y-2801D01*
X496836Y-2747D01*
X496754Y-2690D01*
X496675Y-2630D01*
X496597Y-2566D01*
X496523Y-2500D01*
X496451Y-2431D01*
X496382Y-2359D01*
X496316Y-2285D01*
X496252Y-2207D01*
X496192Y-2128D01*
X496135Y-2046D01*
X496081Y-1962D01*
X496031Y-1876D01*
X495984Y-1788D01*
X495940Y-1698D01*
X495900Y-1607D01*
X495864Y-1514D01*
X495831Y-1420D01*
X495802Y-1324D01*
X495777Y-1228D01*
X495756Y-1131D01*
X495738Y-1032D01*
X495725Y-934D01*
X495715Y-834D01*
X495709Y-735D01*
X495707Y-635D01*
X495707Y5715D01*
X495709Y5815D01*
X495715Y5914D01*
X495725Y6014D01*
X495738Y6112D01*
X495756Y6211D01*
X495777Y6308D01*
X495802Y6404D01*
X495831Y6500D01*
X495864Y6594D01*
X495900Y6687D01*
X495940Y6778D01*
X495984Y6868D01*
X496031Y6956D01*
X496081Y7042D01*
X496135Y7126D01*
X496192Y7208D01*
X496252Y7287D01*
X496316Y7365D01*
X496382Y7439D01*
X496451Y7511D01*
X496523Y7580D01*
X496597Y7646D01*
X496675Y7710D01*
X496754Y7770D01*
X496836Y7827D01*
X496920Y7881D01*
X497006Y7931D01*
X497094Y7978D01*
X497184Y8022D01*
X497275Y8062D01*
X497368Y8098D01*
X497462Y8131D01*
X497558Y8160D01*
X497654Y8185D01*
X497751Y8206D01*
X497850Y8224D01*
X497948Y8237D01*
X498048Y8247D01*
X498147Y8253D01*
X498247Y8255D01*
X500787Y8255D01*
X505270Y5080D02*
X505270Y0D01*
X505270Y5080D02*
X505272Y5191D01*
X505278Y5301D01*
X505287Y5412D01*
X505301Y5522D01*
X505318Y5631D01*
X505339Y5740D01*
X505364Y5848D01*
X505393Y5955D01*
X505425Y6061D01*
X505461Y6166D01*
X505501Y6269D01*
X505544Y6371D01*
X505591Y6472D01*
X505642Y6571D01*
X505695Y6667D01*
X505752Y6762D01*
X505813Y6855D01*
X505876Y6946D01*
X505943Y7035D01*
X506013Y7121D01*
X506086Y7204D01*
X506161Y7286D01*
X506239Y7364D01*
X506321Y7439D01*
X506404Y7512D01*
X506490Y7582D01*
X506579Y7649D01*
X506670Y7712D01*
X506763Y7773D01*
X506858Y7830D01*
X506954Y7883D01*
X507053Y7934D01*
X507154Y7981D01*
X507256Y8024D01*
X507359Y8064D01*
X507464Y8100D01*
X507570Y8132D01*
X507677Y8161D01*
X507785Y8186D01*
X507894Y8207D01*
X508003Y8224D01*
X508113Y8238D01*
X508224Y8247D01*
X508334Y8253D01*
X508445Y8255D01*
X508556Y8253D01*
X508666Y8247D01*
X508777Y8238D01*
X508887Y8224D01*
X508996Y8207D01*
X509105Y8186D01*
X509213Y8161D01*
X509320Y8132D01*
X509426Y8100D01*
X509531Y8064D01*
X509634Y8024D01*
X509736Y7981D01*
X509837Y7934D01*
X509936Y7883D01*
X510033Y7830D01*
X510127Y7773D01*
X510220Y7712D01*
X510311Y7649D01*
X510400Y7582D01*
X510486Y7512D01*
X510569Y7439D01*
X510651Y7364D01*
X510729Y7286D01*
X510804Y7204D01*
X510877Y7121D01*
X510947Y7035D01*
X511014Y6946D01*
X511077Y6855D01*
X511138Y6762D01*
X511195Y6668D01*
X511248Y6571D01*
X511299Y6472D01*
X511346Y6371D01*
X511389Y6269D01*
X511429Y6166D01*
X511465Y6061D01*
X511497Y5955D01*
X511526Y5848D01*
X511551Y5740D01*
X511572Y5631D01*
X511589Y5522D01*
X511603Y5412D01*
X511612Y5301D01*
X511618Y5191D01*
X511620Y5080D01*
X511620Y0D01*
X511618Y-111D01*
X511612Y-221D01*
X511603Y-332D01*
X511589Y-442D01*
X511572Y-551D01*
X511551Y-660D01*
X511526Y-768D01*
X511497Y-875D01*
X511465Y-981D01*
X511429Y-1086D01*
X511389Y-1189D01*
X511346Y-1291D01*
X511299Y-1392D01*
X511248Y-1491D01*
X511195Y-1588D01*
X511138Y-1682D01*
X511077Y-1775D01*
X511014Y-1866D01*
X510947Y-1955D01*
X510877Y-2041D01*
X510804Y-2124D01*
X510729Y-2206D01*
X510651Y-2284D01*
X510569Y-2359D01*
X510486Y-2432D01*
X510400Y-2502D01*
X510311Y-2569D01*
X510220Y-2632D01*
X510127Y-2693D01*
X510032Y-2750D01*
X509936Y-2803D01*
X509837Y-2854D01*
X509736Y-2901D01*
X509634Y-2944D01*
X509531Y-2984D01*
X509426Y-3020D01*
X509320Y-3052D01*
X509213Y-3081D01*
X509105Y-3106D01*
X508996Y-3127D01*
X508887Y-3144D01*
X508777Y-3158D01*
X508666Y-3167D01*
X508556Y-3173D01*
X508445Y-3175D01*
X508334Y-3173D01*
X508224Y-3167D01*
X508113Y-3158D01*
X508003Y-3144D01*
X507894Y-3127D01*
X507785Y-3106D01*
X507677Y-3081D01*
X507570Y-3052D01*
X507464Y-3020D01*
X507359Y-2984D01*
X507256Y-2944D01*
X507154Y-2901D01*
X507053Y-2854D01*
X506954Y-2803D01*
X506858Y-2750D01*
X506763Y-2693D01*
X506670Y-2632D01*
X506579Y-2569D01*
X506490Y-2502D01*
X506404Y-2432D01*
X506321Y-2359D01*
X506239Y-2284D01*
X506161Y-2206D01*
X506086Y-2124D01*
X506013Y-2041D01*
X505943Y-1955D01*
X505876Y-1866D01*
X505813Y-1775D01*
X505752Y-1682D01*
X505695Y-1588D01*
X505642Y-1491D01*
X505591Y-1392D01*
X505544Y-1291D01*
X505501Y-1189D01*
X505461Y-1086D01*
X505425Y-981D01*
X505393Y-875D01*
X505364Y-768D01*
X505339Y-660D01*
X505318Y-551D01*
X505301Y-442D01*
X505287Y-332D01*
X505278Y-221D01*
X505272Y-111D01*
X505270Y0D01*
X516192Y-4445D02*
X521272Y9525D01*
X526415Y8255D02*
X526415Y-3175D01*
X526415Y8255D02*
X529590Y8255D01*
X529701Y8253D01*
X529811Y8247D01*
X529922Y8238D01*
X530032Y8224D01*
X530141Y8207D01*
X530250Y8186D01*
X530358Y8161D01*
X530465Y8132D01*
X530571Y8100D01*
X530676Y8064D01*
X530779Y8024D01*
X530881Y7981D01*
X530982Y7934D01*
X531081Y7883D01*
X531178Y7830D01*
X531272Y7773D01*
X531365Y7712D01*
X531456Y7649D01*
X531545Y7582D01*
X531631Y7512D01*
X531714Y7439D01*
X531796Y7364D01*
X531874Y7286D01*
X531949Y7204D01*
X532022Y7121D01*
X532092Y7035D01*
X532159Y6946D01*
X532222Y6855D01*
X532283Y6762D01*
X532340Y6667D01*
X532393Y6571D01*
X532444Y6472D01*
X532491Y6371D01*
X532534Y6269D01*
X532574Y6166D01*
X532610Y6061D01*
X532642Y5955D01*
X532671Y5848D01*
X532696Y5740D01*
X532717Y5631D01*
X532734Y5522D01*
X532748Y5412D01*
X532757Y5301D01*
X532763Y5191D01*
X532765Y5080D01*
X532763Y4969D01*
X532757Y4859D01*
X532748Y4748D01*
X532734Y4638D01*
X532717Y4529D01*
X532696Y4420D01*
X532671Y4312D01*
X532642Y4205D01*
X532610Y4099D01*
X532574Y3994D01*
X532534Y3891D01*
X532491Y3789D01*
X532444Y3688D01*
X532393Y3589D01*
X532340Y3492D01*
X532283Y3398D01*
X532222Y3305D01*
X532159Y3214D01*
X532092Y3125D01*
X532022Y3039D01*
X531949Y2956D01*
X531874Y2874D01*
X531796Y2796D01*
X531714Y2721D01*
X531631Y2648D01*
X531545Y2578D01*
X531456Y2511D01*
X531365Y2448D01*
X531272Y2387D01*
X531178Y2330D01*
X531081Y2277D01*
X530982Y2226D01*
X530881Y2179D01*
X530779Y2136D01*
X530676Y2096D01*
X530571Y2060D01*
X530465Y2028D01*
X530358Y1999D01*
X530250Y1974D01*
X530141Y1953D01*
X530032Y1936D01*
X529922Y1922D01*
X529811Y1913D01*
X529701Y1907D01*
X529590Y1905D01*
X526415Y1905D01*
D10*
X427990Y289560D02*
X384810Y289560D01*
X384810Y320040D02*
X427990Y320040D01*
X382270Y317500D02*
X382270Y292100D01*
X430530Y292100D02*
X430530Y317500D01*
X384810Y289560D02*
X384710Y289562D01*
X384611Y289568D01*
X384511Y289578D01*
X384413Y289591D01*
X384314Y289609D01*
X384217Y289630D01*
X384121Y289655D01*
X384025Y289684D01*
X383931Y289717D01*
X383838Y289753D01*
X383747Y289793D01*
X383657Y289837D01*
X383569Y289884D01*
X383483Y289934D01*
X383399Y289988D01*
X383317Y290045D01*
X383238Y290105D01*
X383160Y290169D01*
X383086Y290235D01*
X383014Y290304D01*
X382945Y290376D01*
X382879Y290450D01*
X382815Y290528D01*
X382755Y290607D01*
X382698Y290689D01*
X382644Y290773D01*
X382594Y290859D01*
X382547Y290947D01*
X382503Y291037D01*
X382463Y291128D01*
X382427Y291221D01*
X382394Y291315D01*
X382365Y291411D01*
X382340Y291507D01*
X382319Y291604D01*
X382301Y291703D01*
X382288Y291801D01*
X382278Y291901D01*
X382272Y292000D01*
X382270Y292100D01*
X427990Y289560D02*
X428090Y289562D01*
X428189Y289568D01*
X428289Y289578D01*
X428387Y289591D01*
X428486Y289609D01*
X428583Y289630D01*
X428679Y289655D01*
X428775Y289684D01*
X428869Y289717D01*
X428962Y289753D01*
X429053Y289793D01*
X429143Y289837D01*
X429231Y289884D01*
X429317Y289934D01*
X429401Y289988D01*
X429483Y290045D01*
X429562Y290105D01*
X429640Y290169D01*
X429714Y290235D01*
X429786Y290304D01*
X429855Y290376D01*
X429921Y290450D01*
X429985Y290528D01*
X430045Y290607D01*
X430102Y290689D01*
X430156Y290773D01*
X430206Y290859D01*
X430253Y290947D01*
X430297Y291037D01*
X430337Y291128D01*
X430373Y291221D01*
X430406Y291315D01*
X430435Y291411D01*
X430460Y291507D01*
X430481Y291604D01*
X430499Y291703D01*
X430512Y291801D01*
X430522Y291901D01*
X430528Y292000D01*
X430530Y292100D01*
X384810Y320040D02*
X384710Y320038D01*
X384611Y320032D01*
X384511Y320022D01*
X384413Y320009D01*
X384314Y319991D01*
X384217Y319970D01*
X384121Y319945D01*
X384025Y319916D01*
X383931Y319883D01*
X383838Y319847D01*
X383747Y319807D01*
X383657Y319763D01*
X383569Y319716D01*
X383483Y319666D01*
X383399Y319612D01*
X383317Y319555D01*
X383238Y319495D01*
X383160Y319431D01*
X383086Y319365D01*
X383014Y319296D01*
X382945Y319224D01*
X382879Y319150D01*
X382815Y319072D01*
X382755Y318993D01*
X382698Y318911D01*
X382644Y318827D01*
X382594Y318741D01*
X382547Y318653D01*
X382503Y318563D01*
X382463Y318472D01*
X382427Y318379D01*
X382394Y318285D01*
X382365Y318189D01*
X382340Y318093D01*
X382319Y317996D01*
X382301Y317897D01*
X382288Y317799D01*
X382278Y317699D01*
X382272Y317600D01*
X382270Y317500D01*
X427990Y320040D02*
X428090Y320038D01*
X428189Y320032D01*
X428289Y320022D01*
X428387Y320009D01*
X428486Y319991D01*
X428583Y319970D01*
X428679Y319945D01*
X428775Y319916D01*
X428869Y319883D01*
X428962Y319847D01*
X429053Y319807D01*
X429143Y319763D01*
X429231Y319716D01*
X429317Y319666D01*
X429401Y319612D01*
X429483Y319555D01*
X429562Y319495D01*
X429640Y319431D01*
X429714Y319365D01*
X429786Y319296D01*
X429855Y319224D01*
X429921Y319150D01*
X429985Y319072D01*
X430045Y318993D01*
X430102Y318911D01*
X430156Y318827D01*
X430206Y318741D01*
X430253Y318653D01*
X430297Y318563D01*
X430337Y318472D01*
X430373Y318379D01*
X430406Y318285D01*
X430435Y318189D01*
X430460Y318093D01*
X430481Y317996D01*
X430499Y317897D01*
X430512Y317799D01*
X430522Y317699D01*
X430528Y317600D01*
X430530Y317500D01*
X403860Y304800D02*
X402590Y304800D01*
D12*
X403860Y304800D02*
X403860Y297180D01*
X403860Y304800D02*
X403860Y312420D01*
X408940Y304800D02*
X408940Y297180D01*
X408940Y304800D02*
X408940Y312420D01*
D10*
X408940Y304800D02*
X410210Y304800D01*
D11*
X411443Y274955D02*
X408903Y274955D01*
X408803Y274957D01*
X408704Y274963D01*
X408604Y274973D01*
X408506Y274986D01*
X408407Y275004D01*
X408310Y275025D01*
X408214Y275050D01*
X408118Y275079D01*
X408024Y275112D01*
X407931Y275148D01*
X407840Y275188D01*
X407750Y275232D01*
X407662Y275279D01*
X407576Y275329D01*
X407492Y275383D01*
X407410Y275440D01*
X407331Y275500D01*
X407253Y275564D01*
X407179Y275630D01*
X407107Y275699D01*
X407038Y275771D01*
X406972Y275845D01*
X406908Y275923D01*
X406848Y276002D01*
X406791Y276084D01*
X406737Y276168D01*
X406687Y276254D01*
X406640Y276342D01*
X406596Y276432D01*
X406556Y276523D01*
X406520Y276616D01*
X406487Y276710D01*
X406458Y276806D01*
X406433Y276902D01*
X406412Y276999D01*
X406394Y277098D01*
X406381Y277196D01*
X406371Y277296D01*
X406365Y277395D01*
X406363Y277495D01*
X406363Y283845D01*
X406365Y283945D01*
X406371Y284044D01*
X406381Y284144D01*
X406394Y284242D01*
X406412Y284341D01*
X406433Y284438D01*
X406458Y284534D01*
X406487Y284630D01*
X406520Y284724D01*
X406556Y284817D01*
X406596Y284908D01*
X406640Y284998D01*
X406687Y285086D01*
X406737Y285172D01*
X406791Y285256D01*
X406848Y285338D01*
X406908Y285417D01*
X406972Y285495D01*
X407038Y285569D01*
X407107Y285641D01*
X407179Y285710D01*
X407253Y285776D01*
X407331Y285840D01*
X407410Y285900D01*
X407492Y285957D01*
X407576Y286011D01*
X407662Y286061D01*
X407750Y286108D01*
X407840Y286152D01*
X407931Y286192D01*
X408024Y286228D01*
X408118Y286261D01*
X408214Y286290D01*
X408310Y286315D01*
X408407Y286336D01*
X408506Y286354D01*
X408604Y286367D01*
X408704Y286377D01*
X408803Y286383D01*
X408903Y286385D01*
X411443Y286385D01*
X415925Y283845D02*
X419100Y286385D01*
X419100Y274955D01*
X415925Y274955D02*
X422275Y274955D01*
D10*
X427990Y104140D02*
X384810Y104140D01*
X384810Y73660D02*
X427990Y73660D01*
X430530Y76200D02*
X430530Y101600D01*
X382270Y101600D02*
X382270Y76200D01*
X427990Y104140D02*
X428090Y104138D01*
X428189Y104132D01*
X428289Y104122D01*
X428387Y104109D01*
X428486Y104091D01*
X428583Y104070D01*
X428679Y104045D01*
X428775Y104016D01*
X428869Y103983D01*
X428962Y103947D01*
X429053Y103907D01*
X429143Y103863D01*
X429231Y103816D01*
X429317Y103766D01*
X429401Y103712D01*
X429483Y103655D01*
X429562Y103595D01*
X429640Y103531D01*
X429714Y103465D01*
X429786Y103396D01*
X429855Y103324D01*
X429921Y103250D01*
X429985Y103172D01*
X430045Y103093D01*
X430102Y103011D01*
X430156Y102927D01*
X430206Y102841D01*
X430253Y102753D01*
X430297Y102663D01*
X430337Y102572D01*
X430373Y102479D01*
X430406Y102385D01*
X430435Y102289D01*
X430460Y102193D01*
X430481Y102096D01*
X430499Y101997D01*
X430512Y101899D01*
X430522Y101799D01*
X430528Y101700D01*
X430530Y101600D01*
X384810Y104140D02*
X384710Y104138D01*
X384611Y104132D01*
X384511Y104122D01*
X384413Y104109D01*
X384314Y104091D01*
X384217Y104070D01*
X384121Y104045D01*
X384025Y104016D01*
X383931Y103983D01*
X383838Y103947D01*
X383747Y103907D01*
X383657Y103863D01*
X383569Y103816D01*
X383483Y103766D01*
X383399Y103712D01*
X383317Y103655D01*
X383238Y103595D01*
X383160Y103531D01*
X383086Y103465D01*
X383014Y103396D01*
X382945Y103324D01*
X382879Y103250D01*
X382815Y103172D01*
X382755Y103093D01*
X382698Y103011D01*
X382644Y102927D01*
X382594Y102841D01*
X382547Y102753D01*
X382503Y102663D01*
X382463Y102572D01*
X382427Y102479D01*
X382394Y102385D01*
X382365Y102289D01*
X382340Y102193D01*
X382319Y102096D01*
X382301Y101997D01*
X382288Y101899D01*
X382278Y101799D01*
X382272Y101700D01*
X382270Y101600D01*
X427990Y73660D02*
X428090Y73662D01*
X428189Y73668D01*
X428289Y73678D01*
X428387Y73691D01*
X428486Y73709D01*
X428583Y73730D01*
X428679Y73755D01*
X428775Y73784D01*
X428869Y73817D01*
X428962Y73853D01*
X429053Y73893D01*
X429143Y73937D01*
X429231Y73984D01*
X429317Y74034D01*
X429401Y74088D01*
X429483Y74145D01*
X429562Y74205D01*
X429640Y74269D01*
X429714Y74335D01*
X429786Y74404D01*
X429855Y74476D01*
X429921Y74550D01*
X429985Y74628D01*
X430045Y74707D01*
X430102Y74789D01*
X430156Y74873D01*
X430206Y74959D01*
X430253Y75047D01*
X430297Y75137D01*
X430337Y75228D01*
X430373Y75321D01*
X430406Y75415D01*
X430435Y75511D01*
X430460Y75607D01*
X430481Y75704D01*
X430499Y75803D01*
X430512Y75901D01*
X430522Y76001D01*
X430528Y76100D01*
X430530Y76200D01*
X384810Y73660D02*
X384710Y73662D01*
X384611Y73668D01*
X384511Y73678D01*
X384413Y73691D01*
X384314Y73709D01*
X384217Y73730D01*
X384121Y73755D01*
X384025Y73784D01*
X383931Y73817D01*
X383838Y73853D01*
X383747Y73893D01*
X383657Y73937D01*
X383569Y73984D01*
X383483Y74034D01*
X383399Y74088D01*
X383317Y74145D01*
X383238Y74205D01*
X383160Y74269D01*
X383086Y74335D01*
X383014Y74404D01*
X382945Y74476D01*
X382879Y74550D01*
X382815Y74628D01*
X382755Y74707D01*
X382698Y74789D01*
X382644Y74873D01*
X382594Y74959D01*
X382547Y75047D01*
X382503Y75137D01*
X382463Y75228D01*
X382427Y75321D01*
X382394Y75415D01*
X382365Y75511D01*
X382340Y75607D01*
X382319Y75704D01*
X382301Y75803D01*
X382288Y75901D01*
X382278Y76001D01*
X382272Y76100D01*
X382270Y76200D01*
X408940Y88900D02*
X410210Y88900D01*
D12*
X408940Y88900D02*
X408940Y96520D01*
X408940Y88900D02*
X408940Y81280D01*
X403860Y88900D02*
X403860Y96520D01*
X403860Y88900D02*
X403860Y81280D01*
D10*
X403860Y88900D02*
X402590Y88900D01*
D11*
X395605Y107315D02*
X393065Y107315D01*
X392965Y107317D01*
X392866Y107323D01*
X392766Y107333D01*
X392668Y107346D01*
X392569Y107364D01*
X392472Y107385D01*
X392376Y107410D01*
X392280Y107439D01*
X392186Y107472D01*
X392093Y107508D01*
X392002Y107548D01*
X391912Y107592D01*
X391824Y107639D01*
X391738Y107689D01*
X391654Y107743D01*
X391572Y107800D01*
X391493Y107860D01*
X391415Y107924D01*
X391341Y107990D01*
X391269Y108059D01*
X391200Y108131D01*
X391134Y108205D01*
X391070Y108283D01*
X391010Y108362D01*
X390953Y108444D01*
X390899Y108528D01*
X390849Y108614D01*
X390802Y108702D01*
X390758Y108792D01*
X390718Y108883D01*
X390682Y108976D01*
X390649Y109070D01*
X390620Y109166D01*
X390595Y109262D01*
X390574Y109359D01*
X390556Y109458D01*
X390543Y109556D01*
X390533Y109656D01*
X390527Y109755D01*
X390525Y109855D01*
X390525Y116205D01*
X390527Y116305D01*
X390533Y116404D01*
X390543Y116504D01*
X390556Y116602D01*
X390574Y116701D01*
X390595Y116798D01*
X390620Y116894D01*
X390649Y116990D01*
X390682Y117084D01*
X390718Y117177D01*
X390758Y117268D01*
X390802Y117358D01*
X390849Y117446D01*
X390899Y117532D01*
X390953Y117616D01*
X391010Y117698D01*
X391070Y117777D01*
X391134Y117855D01*
X391200Y117929D01*
X391269Y118001D01*
X391341Y118070D01*
X391415Y118136D01*
X391493Y118200D01*
X391572Y118260D01*
X391654Y118317D01*
X391738Y118371D01*
X391824Y118421D01*
X391912Y118468D01*
X392002Y118512D01*
X392093Y118552D01*
X392186Y118588D01*
X392280Y118621D01*
X392376Y118650D01*
X392472Y118675D01*
X392569Y118696D01*
X392668Y118714D01*
X392766Y118727D01*
X392866Y118737D01*
X392965Y118743D01*
X393065Y118745D01*
X395605Y118745D01*
X403580Y118746D02*
X403684Y118744D01*
X403789Y118738D01*
X403893Y118729D01*
X403996Y118716D01*
X404099Y118698D01*
X404201Y118678D01*
X404303Y118653D01*
X404403Y118625D01*
X404503Y118593D01*
X404601Y118557D01*
X404698Y118518D01*
X404793Y118476D01*
X404887Y118430D01*
X404979Y118380D01*
X405069Y118328D01*
X405157Y118272D01*
X405243Y118212D01*
X405327Y118150D01*
X405408Y118085D01*
X405487Y118017D01*
X405564Y117945D01*
X405637Y117872D01*
X405709Y117795D01*
X405777Y117716D01*
X405842Y117635D01*
X405904Y117551D01*
X405964Y117465D01*
X406020Y117377D01*
X406072Y117287D01*
X406122Y117195D01*
X406168Y117101D01*
X406210Y117006D01*
X406249Y116909D01*
X406285Y116811D01*
X406317Y116711D01*
X406345Y116611D01*
X406370Y116509D01*
X406390Y116407D01*
X406408Y116304D01*
X406421Y116201D01*
X406430Y116097D01*
X406436Y115992D01*
X406438Y115888D01*
X403580Y118745D02*
X403462Y118743D01*
X403343Y118737D01*
X403225Y118728D01*
X403108Y118715D01*
X402991Y118697D01*
X402874Y118677D01*
X402758Y118652D01*
X402643Y118624D01*
X402530Y118591D01*
X402417Y118556D01*
X402305Y118516D01*
X402195Y118474D01*
X402086Y118427D01*
X401978Y118377D01*
X401873Y118324D01*
X401769Y118267D01*
X401667Y118207D01*
X401567Y118144D01*
X401469Y118077D01*
X401373Y118008D01*
X401280Y117935D01*
X401189Y117859D01*
X401100Y117781D01*
X401014Y117699D01*
X400931Y117615D01*
X400850Y117529D01*
X400773Y117439D01*
X400698Y117348D01*
X400626Y117254D01*
X400557Y117157D01*
X400492Y117059D01*
X400429Y116958D01*
X400370Y116855D01*
X400314Y116751D01*
X400262Y116645D01*
X400213Y116537D01*
X400168Y116428D01*
X400126Y116317D01*
X400088Y116205D01*
X405485Y113666D02*
X405561Y113741D01*
X405636Y113820D01*
X405707Y113901D01*
X405776Y113985D01*
X405841Y114071D01*
X405903Y114159D01*
X405963Y114249D01*
X406019Y114341D01*
X406072Y114436D01*
X406121Y114532D01*
X406167Y114630D01*
X406210Y114729D01*
X406249Y114830D01*
X406284Y114932D01*
X406316Y115035D01*
X406344Y115139D01*
X406369Y115244D01*
X406390Y115351D01*
X406407Y115457D01*
X406420Y115564D01*
X406429Y115672D01*
X406435Y115780D01*
X406437Y115888D01*
X405485Y113665D02*
X400087Y107315D01*
X406437Y107315D01*
D10*
X410210Y162560D02*
X453390Y162560D01*
X453390Y193040D02*
X410210Y193040D01*
X407670Y190500D02*
X407670Y165100D01*
X455930Y165100D02*
X455930Y190500D01*
X410210Y162560D02*
X410110Y162562D01*
X410011Y162568D01*
X409911Y162578D01*
X409813Y162591D01*
X409714Y162609D01*
X409617Y162630D01*
X409521Y162655D01*
X409425Y162684D01*
X409331Y162717D01*
X409238Y162753D01*
X409147Y162793D01*
X409057Y162837D01*
X408969Y162884D01*
X408883Y162934D01*
X408799Y162988D01*
X408717Y163045D01*
X408638Y163105D01*
X408560Y163169D01*
X408486Y163235D01*
X408414Y163304D01*
X408345Y163376D01*
X408279Y163450D01*
X408215Y163528D01*
X408155Y163607D01*
X408098Y163689D01*
X408044Y163773D01*
X407994Y163859D01*
X407947Y163947D01*
X407903Y164037D01*
X407863Y164128D01*
X407827Y164221D01*
X407794Y164315D01*
X407765Y164411D01*
X407740Y164507D01*
X407719Y164604D01*
X407701Y164703D01*
X407688Y164801D01*
X407678Y164901D01*
X407672Y165000D01*
X407670Y165100D01*
X453390Y162560D02*
X453490Y162562D01*
X453589Y162568D01*
X453689Y162578D01*
X453787Y162591D01*
X453886Y162609D01*
X453983Y162630D01*
X454079Y162655D01*
X454175Y162684D01*
X454269Y162717D01*
X454362Y162753D01*
X454453Y162793D01*
X454543Y162837D01*
X454631Y162884D01*
X454717Y162934D01*
X454801Y162988D01*
X454883Y163045D01*
X454962Y163105D01*
X455040Y163169D01*
X455114Y163235D01*
X455186Y163304D01*
X455255Y163376D01*
X455321Y163450D01*
X455385Y163528D01*
X455445Y163607D01*
X455502Y163689D01*
X455556Y163773D01*
X455606Y163859D01*
X455653Y163947D01*
X455697Y164037D01*
X455737Y164128D01*
X455773Y164221D01*
X455806Y164315D01*
X455835Y164411D01*
X455860Y164507D01*
X455881Y164604D01*
X455899Y164703D01*
X455912Y164801D01*
X455922Y164901D01*
X455928Y165000D01*
X455930Y165100D01*
X410210Y193040D02*
X410110Y193038D01*
X410011Y193032D01*
X409911Y193022D01*
X409813Y193009D01*
X409714Y192991D01*
X409617Y192970D01*
X409521Y192945D01*
X409425Y192916D01*
X409331Y192883D01*
X409238Y192847D01*
X409147Y192807D01*
X409057Y192763D01*
X408969Y192716D01*
X408883Y192666D01*
X408799Y192612D01*
X408717Y192555D01*
X408638Y192495D01*
X408560Y192431D01*
X408486Y192365D01*
X408414Y192296D01*
X408345Y192224D01*
X408279Y192150D01*
X408215Y192072D01*
X408155Y191993D01*
X408098Y191911D01*
X408044Y191827D01*
X407994Y191741D01*
X407947Y191653D01*
X407903Y191563D01*
X407863Y191472D01*
X407827Y191379D01*
X407794Y191285D01*
X407765Y191189D01*
X407740Y191093D01*
X407719Y190996D01*
X407701Y190897D01*
X407688Y190799D01*
X407678Y190699D01*
X407672Y190600D01*
X407670Y190500D01*
X453390Y193040D02*
X453490Y193038D01*
X453589Y193032D01*
X453689Y193022D01*
X453787Y193009D01*
X453886Y192991D01*
X453983Y192970D01*
X454079Y192945D01*
X454175Y192916D01*
X454269Y192883D01*
X454362Y192847D01*
X454453Y192807D01*
X454543Y192763D01*
X454631Y192716D01*
X454717Y192666D01*
X454801Y192612D01*
X454883Y192555D01*
X454962Y192495D01*
X455040Y192431D01*
X455114Y192365D01*
X455186Y192296D01*
X455255Y192224D01*
X455321Y192150D01*
X455385Y192072D01*
X455445Y191993D01*
X455502Y191911D01*
X455556Y191827D01*
X455606Y191741D01*
X455653Y191653D01*
X455697Y191563D01*
X455737Y191472D01*
X455773Y191379D01*
X455806Y191285D01*
X455835Y191189D01*
X455860Y191093D01*
X455881Y190996D01*
X455899Y190897D01*
X455912Y190799D01*
X455922Y190699D01*
X455928Y190600D01*
X455930Y190500D01*
X429260Y177800D02*
X427990Y177800D01*
D12*
X429260Y177800D02*
X429260Y170180D01*
X429260Y177800D02*
X429260Y185420D01*
X434340Y177800D02*
X434340Y170180D01*
X434340Y177800D02*
X434340Y185420D01*
D10*
X434340Y177800D02*
X435610Y177800D01*
D11*
X436843Y147955D02*
X434303Y147955D01*
X434203Y147957D01*
X434104Y147963D01*
X434004Y147973D01*
X433906Y147986D01*
X433807Y148004D01*
X433710Y148025D01*
X433614Y148050D01*
X433518Y148079D01*
X433424Y148112D01*
X433331Y148148D01*
X433240Y148188D01*
X433150Y148232D01*
X433062Y148279D01*
X432976Y148329D01*
X432892Y148383D01*
X432810Y148440D01*
X432731Y148500D01*
X432653Y148564D01*
X432579Y148630D01*
X432507Y148699D01*
X432438Y148771D01*
X432372Y148845D01*
X432308Y148923D01*
X432248Y149002D01*
X432191Y149084D01*
X432137Y149168D01*
X432087Y149254D01*
X432040Y149342D01*
X431996Y149432D01*
X431956Y149523D01*
X431920Y149616D01*
X431887Y149710D01*
X431858Y149806D01*
X431833Y149902D01*
X431812Y149999D01*
X431794Y150098D01*
X431781Y150196D01*
X431771Y150296D01*
X431765Y150395D01*
X431763Y150495D01*
X431763Y156845D01*
X431765Y156945D01*
X431771Y157044D01*
X431781Y157144D01*
X431794Y157242D01*
X431812Y157341D01*
X431833Y157438D01*
X431858Y157534D01*
X431887Y157630D01*
X431920Y157724D01*
X431956Y157817D01*
X431996Y157908D01*
X432040Y157998D01*
X432087Y158086D01*
X432137Y158172D01*
X432191Y158256D01*
X432248Y158338D01*
X432308Y158417D01*
X432372Y158495D01*
X432438Y158569D01*
X432507Y158641D01*
X432579Y158710D01*
X432653Y158776D01*
X432731Y158840D01*
X432810Y158900D01*
X432892Y158957D01*
X432976Y159011D01*
X433062Y159061D01*
X433150Y159108D01*
X433240Y159152D01*
X433331Y159192D01*
X433424Y159228D01*
X433518Y159261D01*
X433614Y159290D01*
X433710Y159315D01*
X433807Y159336D01*
X433906Y159354D01*
X434004Y159367D01*
X434104Y159377D01*
X434203Y159383D01*
X434303Y159385D01*
X436843Y159385D01*
X441325Y147955D02*
X444500Y147955D01*
X444611Y147957D01*
X444721Y147963D01*
X444832Y147972D01*
X444942Y147986D01*
X445051Y148003D01*
X445160Y148024D01*
X445268Y148049D01*
X445375Y148078D01*
X445481Y148110D01*
X445586Y148146D01*
X445689Y148186D01*
X445791Y148229D01*
X445892Y148276D01*
X445991Y148327D01*
X446088Y148380D01*
X446182Y148437D01*
X446275Y148498D01*
X446366Y148561D01*
X446455Y148628D01*
X446541Y148698D01*
X446624Y148771D01*
X446706Y148846D01*
X446784Y148924D01*
X446859Y149006D01*
X446932Y149089D01*
X447002Y149175D01*
X447069Y149264D01*
X447132Y149355D01*
X447193Y149448D01*
X447250Y149542D01*
X447303Y149639D01*
X447354Y149738D01*
X447401Y149839D01*
X447444Y149941D01*
X447484Y150044D01*
X447520Y150149D01*
X447552Y150255D01*
X447581Y150362D01*
X447606Y150470D01*
X447627Y150579D01*
X447644Y150688D01*
X447658Y150798D01*
X447667Y150909D01*
X447673Y151019D01*
X447675Y151130D01*
X447673Y151241D01*
X447667Y151351D01*
X447658Y151462D01*
X447644Y151572D01*
X447627Y151681D01*
X447606Y151790D01*
X447581Y151898D01*
X447552Y152005D01*
X447520Y152111D01*
X447484Y152216D01*
X447444Y152319D01*
X447401Y152421D01*
X447354Y152522D01*
X447303Y152621D01*
X447250Y152717D01*
X447193Y152812D01*
X447132Y152905D01*
X447069Y152996D01*
X447002Y153085D01*
X446932Y153171D01*
X446859Y153254D01*
X446784Y153336D01*
X446706Y153414D01*
X446624Y153489D01*
X446541Y153562D01*
X446455Y153632D01*
X446366Y153699D01*
X446275Y153762D01*
X446182Y153823D01*
X446088Y153880D01*
X445991Y153933D01*
X445892Y153984D01*
X445791Y154031D01*
X445689Y154074D01*
X445586Y154114D01*
X445481Y154150D01*
X445375Y154182D01*
X445268Y154211D01*
X445160Y154236D01*
X445051Y154257D01*
X444942Y154274D01*
X444832Y154288D01*
X444721Y154297D01*
X444611Y154303D01*
X444500Y154305D01*
X445135Y159385D02*
X441325Y159385D01*
X445135Y159385D02*
X445235Y159383D01*
X445334Y159377D01*
X445434Y159367D01*
X445532Y159354D01*
X445631Y159336D01*
X445728Y159315D01*
X445824Y159290D01*
X445920Y159261D01*
X446014Y159228D01*
X446107Y159192D01*
X446198Y159152D01*
X446288Y159108D01*
X446376Y159061D01*
X446462Y159011D01*
X446546Y158957D01*
X446628Y158900D01*
X446707Y158840D01*
X446785Y158776D01*
X446859Y158710D01*
X446931Y158641D01*
X447000Y158569D01*
X447066Y158495D01*
X447130Y158417D01*
X447190Y158338D01*
X447247Y158256D01*
X447301Y158172D01*
X447351Y158086D01*
X447398Y157998D01*
X447442Y157908D01*
X447482Y157817D01*
X447518Y157724D01*
X447551Y157630D01*
X447580Y157534D01*
X447605Y157438D01*
X447626Y157341D01*
X447644Y157242D01*
X447657Y157144D01*
X447667Y157044D01*
X447673Y156945D01*
X447675Y156845D01*
X447673Y156745D01*
X447667Y156646D01*
X447657Y156546D01*
X447644Y156448D01*
X447626Y156349D01*
X447605Y156252D01*
X447580Y156156D01*
X447551Y156060D01*
X447518Y155966D01*
X447482Y155873D01*
X447442Y155782D01*
X447398Y155692D01*
X447351Y155604D01*
X447301Y155518D01*
X447247Y155434D01*
X447190Y155352D01*
X447130Y155273D01*
X447066Y155195D01*
X447000Y155121D01*
X446931Y155049D01*
X446859Y154980D01*
X446785Y154914D01*
X446707Y154850D01*
X446628Y154790D01*
X446546Y154733D01*
X446462Y154679D01*
X446376Y154629D01*
X446288Y154582D01*
X446198Y154538D01*
X446107Y154498D01*
X446014Y154462D01*
X445920Y154429D01*
X445824Y154400D01*
X445728Y154375D01*
X445631Y154354D01*
X445532Y154336D01*
X445434Y154323D01*
X445334Y154313D01*
X445235Y154307D01*
X445135Y154305D01*
X442595Y154305D01*
D10*
X203200Y208280D02*
X203200Y248920D01*
X177800Y248920D01*
X177800Y208280D01*
X203200Y208280D01*
X190500Y222250D02*
X190500Y228600D01*
X184150Y238760D02*
X196850Y238760D01*
X190500Y228600D01*
X190500Y243840D01*
X184150Y238760D02*
X190500Y228600D01*
X184150Y228600D01*
X190500Y228600D02*
X196850Y228600D01*
D13*
X190500Y214630D03*
D14*
X190500Y258445D03*
X190500Y198755D03*
D11*
X173355Y221615D02*
X161925Y221615D01*
X161925Y224790D01*
X161927Y224901D01*
X161933Y225011D01*
X161942Y225122D01*
X161956Y225232D01*
X161973Y225341D01*
X161994Y225450D01*
X162019Y225558D01*
X162048Y225665D01*
X162080Y225771D01*
X162116Y225876D01*
X162156Y225979D01*
X162199Y226081D01*
X162246Y226182D01*
X162297Y226281D01*
X162350Y226378D01*
X162407Y226472D01*
X162468Y226565D01*
X162531Y226656D01*
X162598Y226745D01*
X162668Y226831D01*
X162741Y226914D01*
X162816Y226996D01*
X162894Y227074D01*
X162976Y227149D01*
X163059Y227222D01*
X163145Y227292D01*
X163234Y227359D01*
X163325Y227422D01*
X163418Y227483D01*
X163513Y227540D01*
X163609Y227593D01*
X163708Y227644D01*
X163809Y227691D01*
X163911Y227734D01*
X164014Y227774D01*
X164119Y227810D01*
X164225Y227842D01*
X164332Y227871D01*
X164440Y227896D01*
X164549Y227917D01*
X164658Y227934D01*
X164768Y227948D01*
X164879Y227957D01*
X164989Y227963D01*
X165100Y227965D01*
X170180Y227965D01*
X170291Y227963D01*
X170401Y227957D01*
X170512Y227948D01*
X170622Y227934D01*
X170731Y227917D01*
X170840Y227896D01*
X170948Y227871D01*
X171055Y227842D01*
X171161Y227810D01*
X171266Y227774D01*
X171369Y227734D01*
X171471Y227691D01*
X171572Y227644D01*
X171671Y227593D01*
X171768Y227540D01*
X171862Y227483D01*
X171955Y227422D01*
X172046Y227359D01*
X172135Y227292D01*
X172221Y227222D01*
X172304Y227149D01*
X172386Y227074D01*
X172464Y226996D01*
X172539Y226914D01*
X172612Y226831D01*
X172682Y226745D01*
X172749Y226656D01*
X172812Y226565D01*
X172873Y226472D01*
X172930Y226378D01*
X172983Y226281D01*
X173034Y226182D01*
X173081Y226081D01*
X173124Y225979D01*
X173164Y225876D01*
X173200Y225771D01*
X173232Y225665D01*
X173261Y225558D01*
X173286Y225450D01*
X173307Y225341D01*
X173324Y225232D01*
X173338Y225122D01*
X173347Y225011D01*
X173353Y224901D01*
X173355Y224790D01*
X173355Y221615D01*
X164465Y233426D02*
X161925Y236601D01*
X173355Y236601D01*
X173355Y233426D02*
X173355Y239776D01*
D10*
X223520Y102870D02*
X264160Y102870D01*
X223520Y102870D02*
X223520Y77470D01*
X264160Y77470D01*
X264160Y102870D01*
X250190Y90170D02*
X243840Y90170D01*
X233680Y83820D02*
X233680Y96520D01*
X243840Y90170D01*
X228600Y90170D01*
X233680Y83820D02*
X243840Y90170D01*
X243840Y83820D01*
X243840Y90170D02*
X243840Y96520D01*
D15*
X257810Y90170D03*
D16*
X213995Y90170D03*
X273685Y90170D03*
D11*
X245364Y73025D02*
X245364Y61595D01*
X245364Y73025D02*
X248539Y73025D01*
X248650Y73023D01*
X248760Y73017D01*
X248871Y73008D01*
X248981Y72994D01*
X249090Y72977D01*
X249199Y72956D01*
X249307Y72931D01*
X249414Y72902D01*
X249520Y72870D01*
X249625Y72834D01*
X249728Y72794D01*
X249830Y72751D01*
X249931Y72704D01*
X250030Y72653D01*
X250127Y72600D01*
X250221Y72543D01*
X250314Y72482D01*
X250405Y72419D01*
X250494Y72352D01*
X250580Y72282D01*
X250663Y72209D01*
X250745Y72134D01*
X250823Y72056D01*
X250898Y71974D01*
X250971Y71891D01*
X251041Y71805D01*
X251108Y71716D01*
X251171Y71625D01*
X251232Y71532D01*
X251289Y71438D01*
X251342Y71341D01*
X251393Y71242D01*
X251440Y71141D01*
X251483Y71039D01*
X251523Y70936D01*
X251559Y70831D01*
X251591Y70725D01*
X251620Y70618D01*
X251645Y70510D01*
X251666Y70401D01*
X251683Y70292D01*
X251697Y70182D01*
X251706Y70071D01*
X251712Y69961D01*
X251714Y69850D01*
X251714Y64770D01*
X251712Y64659D01*
X251706Y64549D01*
X251697Y64438D01*
X251683Y64328D01*
X251666Y64219D01*
X251645Y64110D01*
X251620Y64002D01*
X251591Y63895D01*
X251559Y63789D01*
X251523Y63684D01*
X251483Y63581D01*
X251440Y63479D01*
X251393Y63378D01*
X251342Y63279D01*
X251289Y63182D01*
X251232Y63088D01*
X251171Y62995D01*
X251108Y62904D01*
X251041Y62815D01*
X250971Y62729D01*
X250898Y62646D01*
X250823Y62564D01*
X250745Y62486D01*
X250663Y62411D01*
X250580Y62338D01*
X250494Y62268D01*
X250405Y62201D01*
X250314Y62138D01*
X250221Y62077D01*
X250126Y62020D01*
X250030Y61967D01*
X249931Y61916D01*
X249830Y61869D01*
X249728Y61826D01*
X249625Y61786D01*
X249520Y61750D01*
X249414Y61718D01*
X249307Y61689D01*
X249199Y61664D01*
X249090Y61643D01*
X248981Y61626D01*
X248871Y61612D01*
X248760Y61603D01*
X248650Y61597D01*
X248539Y61595D01*
X245364Y61595D01*
X260668Y73026D02*
X260772Y73024D01*
X260877Y73018D01*
X260981Y73009D01*
X261084Y72996D01*
X261187Y72978D01*
X261289Y72958D01*
X261391Y72933D01*
X261491Y72905D01*
X261591Y72873D01*
X261689Y72837D01*
X261786Y72798D01*
X261881Y72756D01*
X261975Y72710D01*
X262067Y72660D01*
X262157Y72608D01*
X262245Y72552D01*
X262331Y72492D01*
X262415Y72430D01*
X262496Y72365D01*
X262575Y72297D01*
X262652Y72225D01*
X262725Y72152D01*
X262797Y72075D01*
X262865Y71996D01*
X262930Y71915D01*
X262992Y71831D01*
X263052Y71745D01*
X263108Y71657D01*
X263160Y71567D01*
X263210Y71475D01*
X263256Y71381D01*
X263298Y71286D01*
X263337Y71189D01*
X263373Y71091D01*
X263405Y70991D01*
X263433Y70891D01*
X263458Y70789D01*
X263478Y70687D01*
X263496Y70584D01*
X263509Y70481D01*
X263518Y70377D01*
X263524Y70272D01*
X263526Y70168D01*
X260668Y73025D02*
X260550Y73023D01*
X260431Y73017D01*
X260313Y73008D01*
X260196Y72995D01*
X260079Y72977D01*
X259962Y72957D01*
X259846Y72932D01*
X259731Y72904D01*
X259618Y72871D01*
X259505Y72836D01*
X259393Y72796D01*
X259283Y72754D01*
X259174Y72707D01*
X259066Y72657D01*
X258961Y72604D01*
X258857Y72547D01*
X258755Y72487D01*
X258655Y72424D01*
X258557Y72357D01*
X258461Y72288D01*
X258368Y72215D01*
X258277Y72139D01*
X258188Y72061D01*
X258102Y71979D01*
X258019Y71895D01*
X257938Y71809D01*
X257861Y71719D01*
X257786Y71628D01*
X257714Y71534D01*
X257645Y71437D01*
X257580Y71339D01*
X257517Y71238D01*
X257458Y71135D01*
X257402Y71031D01*
X257350Y70925D01*
X257301Y70817D01*
X257256Y70708D01*
X257214Y70597D01*
X257176Y70485D01*
X262573Y67946D02*
X262649Y68021D01*
X262724Y68100D01*
X262795Y68181D01*
X262864Y68265D01*
X262929Y68351D01*
X262991Y68439D01*
X263051Y68529D01*
X263107Y68621D01*
X263160Y68716D01*
X263209Y68812D01*
X263255Y68910D01*
X263298Y69009D01*
X263337Y69110D01*
X263372Y69212D01*
X263404Y69315D01*
X263432Y69419D01*
X263457Y69524D01*
X263478Y69631D01*
X263495Y69737D01*
X263508Y69844D01*
X263517Y69952D01*
X263523Y70060D01*
X263525Y70168D01*
X262573Y67945D02*
X257175Y61595D01*
X263525Y61595D01*
D10*
X355600Y208280D02*
X355600Y248920D01*
X330200Y248920D01*
X330200Y208280D01*
X355600Y208280D01*
X342900Y222250D02*
X342900Y228600D01*
X336550Y238760D02*
X349250Y238760D01*
X342900Y228600D01*
X342900Y243840D01*
X336550Y238760D02*
X342900Y228600D01*
X336550Y228600D01*
X342900Y228600D02*
X349250Y228600D01*
D13*
X342900Y214630D03*
D14*
X342900Y258445D03*
X342900Y198755D03*
D11*
X325755Y208915D02*
X314325Y208915D01*
X314325Y212090D01*
X314327Y212201D01*
X314333Y212311D01*
X314342Y212422D01*
X314356Y212532D01*
X314373Y212641D01*
X314394Y212750D01*
X314419Y212858D01*
X314448Y212965D01*
X314480Y213071D01*
X314516Y213176D01*
X314556Y213279D01*
X314599Y213381D01*
X314646Y213482D01*
X314697Y213581D01*
X314750Y213678D01*
X314807Y213772D01*
X314868Y213865D01*
X314931Y213956D01*
X314998Y214045D01*
X315068Y214131D01*
X315141Y214214D01*
X315216Y214296D01*
X315294Y214374D01*
X315376Y214449D01*
X315459Y214522D01*
X315545Y214592D01*
X315634Y214659D01*
X315725Y214722D01*
X315818Y214783D01*
X315913Y214840D01*
X316009Y214893D01*
X316108Y214944D01*
X316209Y214991D01*
X316311Y215034D01*
X316414Y215074D01*
X316519Y215110D01*
X316625Y215142D01*
X316732Y215171D01*
X316840Y215196D01*
X316949Y215217D01*
X317058Y215234D01*
X317168Y215248D01*
X317279Y215257D01*
X317389Y215263D01*
X317500Y215265D01*
X322580Y215265D01*
X322691Y215263D01*
X322801Y215257D01*
X322912Y215248D01*
X323022Y215234D01*
X323131Y215217D01*
X323240Y215196D01*
X323348Y215171D01*
X323455Y215142D01*
X323561Y215110D01*
X323666Y215074D01*
X323769Y215034D01*
X323871Y214991D01*
X323972Y214944D01*
X324071Y214893D01*
X324168Y214840D01*
X324262Y214783D01*
X324355Y214722D01*
X324446Y214659D01*
X324535Y214592D01*
X324621Y214522D01*
X324704Y214449D01*
X324786Y214374D01*
X324864Y214296D01*
X324939Y214214D01*
X325012Y214131D01*
X325082Y214045D01*
X325149Y213956D01*
X325212Y213865D01*
X325273Y213772D01*
X325330Y213678D01*
X325383Y213581D01*
X325434Y213482D01*
X325481Y213381D01*
X325524Y213279D01*
X325564Y213176D01*
X325600Y213071D01*
X325632Y212965D01*
X325661Y212858D01*
X325686Y212750D01*
X325707Y212641D01*
X325724Y212532D01*
X325738Y212422D01*
X325747Y212311D01*
X325753Y212201D01*
X325755Y212090D01*
X325755Y208915D01*
X325755Y220726D02*
X325755Y223901D01*
X325753Y224012D01*
X325747Y224122D01*
X325738Y224233D01*
X325724Y224343D01*
X325707Y224452D01*
X325686Y224561D01*
X325661Y224669D01*
X325632Y224776D01*
X325600Y224882D01*
X325564Y224987D01*
X325524Y225090D01*
X325481Y225192D01*
X325434Y225293D01*
X325383Y225392D01*
X325330Y225489D01*
X325273Y225583D01*
X325212Y225676D01*
X325149Y225767D01*
X325082Y225856D01*
X325012Y225942D01*
X324939Y226025D01*
X324864Y226107D01*
X324786Y226185D01*
X324704Y226260D01*
X324621Y226333D01*
X324535Y226403D01*
X324446Y226470D01*
X324355Y226533D01*
X324262Y226594D01*
X324168Y226651D01*
X324071Y226704D01*
X323972Y226755D01*
X323871Y226802D01*
X323769Y226845D01*
X323666Y226885D01*
X323561Y226921D01*
X323455Y226953D01*
X323348Y226982D01*
X323240Y227007D01*
X323131Y227028D01*
X323022Y227045D01*
X322912Y227059D01*
X322801Y227068D01*
X322691Y227074D01*
X322580Y227076D01*
X322469Y227074D01*
X322359Y227068D01*
X322248Y227059D01*
X322138Y227045D01*
X322029Y227028D01*
X321920Y227007D01*
X321812Y226982D01*
X321705Y226953D01*
X321599Y226921D01*
X321494Y226885D01*
X321391Y226845D01*
X321289Y226802D01*
X321188Y226755D01*
X321089Y226704D01*
X320993Y226651D01*
X320898Y226594D01*
X320805Y226533D01*
X320714Y226470D01*
X320625Y226403D01*
X320539Y226333D01*
X320456Y226260D01*
X320374Y226185D01*
X320296Y226107D01*
X320221Y226025D01*
X320148Y225942D01*
X320078Y225856D01*
X320011Y225767D01*
X319948Y225676D01*
X319887Y225583D01*
X319830Y225489D01*
X319777Y225392D01*
X319726Y225293D01*
X319679Y225192D01*
X319636Y225090D01*
X319596Y224987D01*
X319560Y224882D01*
X319528Y224776D01*
X319499Y224669D01*
X319474Y224561D01*
X319453Y224452D01*
X319436Y224343D01*
X319422Y224233D01*
X319413Y224122D01*
X319407Y224012D01*
X319405Y223901D01*
X314325Y224536D02*
X314325Y220726D01*
X314325Y224536D02*
X314327Y224636D01*
X314333Y224735D01*
X314343Y224835D01*
X314356Y224933D01*
X314374Y225032D01*
X314395Y225129D01*
X314420Y225225D01*
X314449Y225321D01*
X314482Y225415D01*
X314518Y225508D01*
X314558Y225599D01*
X314602Y225689D01*
X314649Y225777D01*
X314699Y225863D01*
X314753Y225947D01*
X314810Y226029D01*
X314870Y226108D01*
X314934Y226186D01*
X315000Y226260D01*
X315069Y226332D01*
X315141Y226401D01*
X315215Y226467D01*
X315293Y226531D01*
X315372Y226591D01*
X315454Y226648D01*
X315538Y226702D01*
X315624Y226752D01*
X315712Y226799D01*
X315802Y226843D01*
X315893Y226883D01*
X315986Y226919D01*
X316080Y226952D01*
X316176Y226981D01*
X316272Y227006D01*
X316369Y227027D01*
X316468Y227045D01*
X316566Y227058D01*
X316666Y227068D01*
X316765Y227074D01*
X316865Y227076D01*
X316965Y227074D01*
X317064Y227068D01*
X317164Y227058D01*
X317262Y227045D01*
X317361Y227027D01*
X317458Y227006D01*
X317554Y226981D01*
X317650Y226952D01*
X317744Y226919D01*
X317837Y226883D01*
X317928Y226843D01*
X318018Y226799D01*
X318106Y226752D01*
X318192Y226702D01*
X318276Y226648D01*
X318358Y226591D01*
X318437Y226531D01*
X318515Y226467D01*
X318589Y226401D01*
X318661Y226332D01*
X318730Y226260D01*
X318796Y226186D01*
X318860Y226108D01*
X318920Y226029D01*
X318977Y225947D01*
X319031Y225863D01*
X319081Y225777D01*
X319128Y225689D01*
X319172Y225599D01*
X319212Y225508D01*
X319248Y225415D01*
X319281Y225321D01*
X319310Y225225D01*
X319335Y225129D01*
X319356Y225032D01*
X319374Y224933D01*
X319387Y224835D01*
X319397Y224735D01*
X319403Y224636D01*
X319405Y224536D01*
X319405Y221996D01*
D10*
X261620Y330200D02*
X220980Y330200D01*
X261620Y330200D02*
X261620Y355600D01*
X220980Y355600D01*
X220980Y330200D01*
X234950Y342900D02*
X241300Y342900D01*
X251460Y349250D02*
X251460Y336550D01*
X241300Y342900D01*
X256540Y342900D01*
X251460Y349250D02*
X241300Y342900D01*
X241300Y349250D01*
X241300Y342900D02*
X241300Y336550D01*
D15*
X227330Y342900D03*
D16*
X271145Y342900D03*
X211455Y342900D03*
D11*
X221615Y360045D02*
X221615Y371475D01*
X224790Y371475D01*
X224901Y371473D01*
X225011Y371467D01*
X225122Y371458D01*
X225232Y371444D01*
X225341Y371427D01*
X225450Y371406D01*
X225558Y371381D01*
X225665Y371352D01*
X225771Y371320D01*
X225876Y371284D01*
X225979Y371244D01*
X226081Y371201D01*
X226182Y371154D01*
X226281Y371103D01*
X226378Y371050D01*
X226472Y370993D01*
X226565Y370932D01*
X226656Y370869D01*
X226745Y370802D01*
X226831Y370732D01*
X226914Y370659D01*
X226996Y370584D01*
X227074Y370506D01*
X227149Y370424D01*
X227222Y370341D01*
X227292Y370255D01*
X227359Y370166D01*
X227422Y370075D01*
X227483Y369982D01*
X227540Y369888D01*
X227593Y369791D01*
X227644Y369692D01*
X227691Y369591D01*
X227734Y369489D01*
X227774Y369386D01*
X227810Y369281D01*
X227842Y369175D01*
X227871Y369068D01*
X227896Y368960D01*
X227917Y368851D01*
X227934Y368742D01*
X227948Y368632D01*
X227957Y368521D01*
X227963Y368411D01*
X227965Y368300D01*
X227965Y363220D01*
X227963Y363109D01*
X227957Y362999D01*
X227948Y362888D01*
X227934Y362778D01*
X227917Y362669D01*
X227896Y362560D01*
X227871Y362452D01*
X227842Y362345D01*
X227810Y362239D01*
X227774Y362134D01*
X227734Y362031D01*
X227691Y361929D01*
X227644Y361828D01*
X227593Y361729D01*
X227540Y361632D01*
X227483Y361538D01*
X227422Y361445D01*
X227359Y361354D01*
X227292Y361265D01*
X227222Y361179D01*
X227149Y361096D01*
X227074Y361014D01*
X226996Y360936D01*
X226914Y360861D01*
X226831Y360788D01*
X226745Y360718D01*
X226656Y360651D01*
X226565Y360588D01*
X226472Y360527D01*
X226377Y360470D01*
X226281Y360417D01*
X226182Y360366D01*
X226081Y360319D01*
X225979Y360276D01*
X225876Y360236D01*
X225771Y360200D01*
X225665Y360168D01*
X225558Y360139D01*
X225450Y360114D01*
X225341Y360093D01*
X225232Y360076D01*
X225122Y360062D01*
X225011Y360053D01*
X224901Y360047D01*
X224790Y360045D01*
X221615Y360045D01*
X233426Y362585D02*
X235966Y371475D01*
X233426Y362585D02*
X239776Y362585D01*
X237871Y365125D02*
X237871Y360045D01*
D10*
X76200Y40640D02*
X78740Y38100D01*
X76200Y35560D01*
X99060Y38100D02*
X101600Y40640D01*
X99060Y38100D02*
X101600Y35560D01*
X101600Y15240D01*
X99060Y12700D01*
X101600Y60960D02*
X99060Y63500D01*
X101600Y60960D02*
X101600Y40640D01*
X99060Y63500D02*
X78740Y63500D01*
X76200Y60960D01*
X76200Y40640D01*
X76200Y35560D02*
X76200Y15240D01*
X78740Y12700D01*
X99060Y12700D01*
D11*
X71755Y14605D02*
X60325Y14605D01*
X71755Y13335D02*
X71755Y15875D01*
X60325Y15875D02*
X60325Y13335D01*
X59055Y25146D02*
X73025Y20066D01*
X71755Y30290D02*
X60325Y30290D01*
X60325Y33465D01*
X60327Y33576D01*
X60333Y33686D01*
X60342Y33797D01*
X60356Y33907D01*
X60373Y34016D01*
X60394Y34125D01*
X60419Y34233D01*
X60448Y34340D01*
X60480Y34446D01*
X60516Y34551D01*
X60556Y34654D01*
X60599Y34756D01*
X60646Y34857D01*
X60697Y34956D01*
X60750Y35052D01*
X60807Y35147D01*
X60868Y35240D01*
X60931Y35331D01*
X60998Y35420D01*
X61068Y35506D01*
X61141Y35589D01*
X61216Y35671D01*
X61294Y35749D01*
X61376Y35824D01*
X61459Y35897D01*
X61545Y35967D01*
X61634Y36034D01*
X61725Y36097D01*
X61818Y36158D01*
X61912Y36215D01*
X62009Y36268D01*
X62108Y36319D01*
X62209Y36366D01*
X62311Y36409D01*
X62414Y36449D01*
X62519Y36485D01*
X62625Y36517D01*
X62732Y36546D01*
X62840Y36571D01*
X62949Y36592D01*
X63058Y36609D01*
X63168Y36623D01*
X63279Y36632D01*
X63389Y36638D01*
X63500Y36640D01*
X63611Y36638D01*
X63721Y36632D01*
X63832Y36623D01*
X63942Y36609D01*
X64051Y36592D01*
X64160Y36571D01*
X64268Y36546D01*
X64375Y36517D01*
X64481Y36485D01*
X64586Y36449D01*
X64689Y36409D01*
X64791Y36366D01*
X64892Y36319D01*
X64991Y36268D01*
X65088Y36215D01*
X65182Y36158D01*
X65275Y36097D01*
X65366Y36034D01*
X65455Y35967D01*
X65541Y35897D01*
X65624Y35824D01*
X65706Y35749D01*
X65784Y35671D01*
X65859Y35589D01*
X65932Y35506D01*
X66002Y35420D01*
X66069Y35331D01*
X66132Y35240D01*
X66193Y35147D01*
X66250Y35053D01*
X66303Y34956D01*
X66354Y34857D01*
X66401Y34756D01*
X66444Y34654D01*
X66484Y34551D01*
X66520Y34446D01*
X66552Y34340D01*
X66581Y34233D01*
X66606Y34125D01*
X66627Y34016D01*
X66644Y33907D01*
X66658Y33797D01*
X66667Y33686D01*
X66673Y33576D01*
X66675Y33465D01*
X66675Y30290D01*
D10*
X506730Y165100D02*
X610870Y165100D01*
X610870Y323850D02*
X506730Y323850D01*
X610870Y289560D02*
X610870Y165100D01*
X610870Y289560D02*
X601980Y289560D01*
X601980Y304800D01*
X610870Y304800D01*
X610870Y323850D01*
X506730Y289560D02*
X506730Y165100D01*
X506730Y289560D02*
X515620Y289560D01*
X515620Y304800D01*
X506730Y304800D01*
X506730Y323850D01*
D17*
X513080Y171450D02*
X604520Y171450D01*
X604520Y254000D01*
X513080Y254000D01*
X513080Y171450D01*
D10*
X540766Y289560D02*
X540771Y290003D01*
X540788Y290445D01*
X540815Y290887D01*
X540853Y291328D01*
X540902Y291768D01*
X540961Y292206D01*
X541032Y292643D01*
X541113Y293078D01*
X541204Y293511D01*
X541306Y293942D01*
X541419Y294370D01*
X541543Y294795D01*
X541676Y295217D01*
X541820Y295635D01*
X541974Y296050D01*
X542139Y296461D01*
X542313Y296868D01*
X542497Y297271D01*
X542692Y297668D01*
X542895Y298061D01*
X543109Y298449D01*
X543332Y298831D01*
X543564Y299208D01*
X543805Y299579D01*
X544056Y299944D01*
X544315Y300303D01*
X544583Y300655D01*
X544860Y301001D01*
X545144Y301339D01*
X545438Y301671D01*
X545739Y301995D01*
X546048Y302312D01*
X546365Y302621D01*
X546689Y302922D01*
X547021Y303216D01*
X547359Y303500D01*
X547705Y303777D01*
X548057Y304045D01*
X548416Y304304D01*
X548781Y304555D01*
X549152Y304796D01*
X549529Y305028D01*
X549911Y305251D01*
X550299Y305465D01*
X550692Y305668D01*
X551089Y305863D01*
X551492Y306047D01*
X551899Y306221D01*
X552310Y306386D01*
X552725Y306540D01*
X553143Y306684D01*
X553565Y306817D01*
X553990Y306941D01*
X554418Y307054D01*
X554849Y307156D01*
X555282Y307247D01*
X555717Y307328D01*
X556154Y307399D01*
X556592Y307458D01*
X557032Y307507D01*
X557473Y307545D01*
X557915Y307572D01*
X558357Y307589D01*
X558800Y307594D01*
X559243Y307589D01*
X559685Y307572D01*
X560127Y307545D01*
X560568Y307507D01*
X561008Y307458D01*
X561446Y307399D01*
X561883Y307328D01*
X562318Y307247D01*
X562751Y307156D01*
X563182Y307054D01*
X563610Y306941D01*
X564035Y306817D01*
X564457Y306684D01*
X564875Y306540D01*
X565290Y306386D01*
X565701Y306221D01*
X566108Y306047D01*
X566511Y305863D01*
X566908Y305668D01*
X567301Y305465D01*
X567689Y305251D01*
X568071Y305028D01*
X568448Y304796D01*
X568819Y304555D01*
X569184Y304304D01*
X569543Y304045D01*
X569895Y303777D01*
X570241Y303500D01*
X570579Y303216D01*
X570911Y302922D01*
X571235Y302621D01*
X571552Y302312D01*
X571861Y301995D01*
X572162Y301671D01*
X572456Y301339D01*
X572740Y301001D01*
X573017Y300655D01*
X573285Y300303D01*
X573544Y299944D01*
X573795Y299579D01*
X574036Y299208D01*
X574268Y298831D01*
X574491Y298449D01*
X574705Y298061D01*
X574908Y297668D01*
X575103Y297271D01*
X575287Y296868D01*
X575461Y296461D01*
X575626Y296050D01*
X575780Y295635D01*
X575924Y295217D01*
X576057Y294795D01*
X576181Y294370D01*
X576294Y293942D01*
X576396Y293511D01*
X576487Y293078D01*
X576568Y292643D01*
X576639Y292206D01*
X576698Y291768D01*
X576747Y291328D01*
X576785Y290887D01*
X576812Y290445D01*
X576829Y290003D01*
X576834Y289560D01*
X576829Y289117D01*
X576812Y288675D01*
X576785Y288233D01*
X576747Y287792D01*
X576698Y287352D01*
X576639Y286914D01*
X576568Y286477D01*
X576487Y286042D01*
X576396Y285609D01*
X576294Y285178D01*
X576181Y284750D01*
X576057Y284325D01*
X575924Y283903D01*
X575780Y283485D01*
X575626Y283070D01*
X575461Y282659D01*
X575287Y282252D01*
X575103Y281849D01*
X574908Y281452D01*
X574705Y281059D01*
X574491Y280671D01*
X574268Y280289D01*
X574036Y279912D01*
X573795Y279541D01*
X573544Y279176D01*
X573285Y278817D01*
X573017Y278465D01*
X572740Y278119D01*
X572456Y277781D01*
X572162Y277449D01*
X571861Y277125D01*
X571552Y276808D01*
X571235Y276499D01*
X570911Y276198D01*
X570579Y275904D01*
X570241Y275620D01*
X569895Y275343D01*
X569543Y275075D01*
X569184Y274816D01*
X568819Y274565D01*
X568448Y274324D01*
X568071Y274092D01*
X567689Y273869D01*
X567301Y273655D01*
X566908Y273452D01*
X566511Y273257D01*
X566108Y273073D01*
X565701Y272899D01*
X565290Y272734D01*
X564875Y272580D01*
X564457Y272436D01*
X564035Y272303D01*
X563610Y272179D01*
X563182Y272066D01*
X562751Y271964D01*
X562318Y271873D01*
X561883Y271792D01*
X561446Y271721D01*
X561008Y271662D01*
X560568Y271613D01*
X560127Y271575D01*
X559685Y271548D01*
X559243Y271531D01*
X558800Y271526D01*
X558357Y271531D01*
X557915Y271548D01*
X557473Y271575D01*
X557032Y271613D01*
X556592Y271662D01*
X556154Y271721D01*
X555717Y271792D01*
X555282Y271873D01*
X554849Y271964D01*
X554418Y272066D01*
X553990Y272179D01*
X553565Y272303D01*
X553143Y272436D01*
X552725Y272580D01*
X552310Y272734D01*
X551899Y272899D01*
X551492Y273073D01*
X551089Y273257D01*
X550692Y273452D01*
X550299Y273655D01*
X549911Y273869D01*
X549529Y274092D01*
X549152Y274324D01*
X548781Y274565D01*
X548416Y274816D01*
X548057Y275075D01*
X547705Y275343D01*
X547359Y275620D01*
X547021Y275904D01*
X546689Y276198D01*
X546365Y276499D01*
X546048Y276808D01*
X545739Y277125D01*
X545438Y277449D01*
X545144Y277781D01*
X544860Y278119D01*
X544583Y278465D01*
X544315Y278817D01*
X544056Y279176D01*
X543805Y279541D01*
X543564Y279912D01*
X543332Y280289D01*
X543109Y280671D01*
X542895Y281059D01*
X542692Y281452D01*
X542497Y281849D01*
X542313Y282252D01*
X542139Y282659D01*
X541974Y283070D01*
X541820Y283485D01*
X541676Y283903D01*
X541543Y284325D01*
X541419Y284750D01*
X541306Y285178D01*
X541204Y285609D01*
X541113Y286042D01*
X541032Y286477D01*
X540961Y286914D01*
X540902Y287352D01*
X540853Y287792D01*
X540815Y288233D01*
X540788Y288675D01*
X540771Y289117D01*
X540766Y289560D01*
D18*
X584200Y133985D03*
X558800Y133985D03*
X533400Y133985D03*
D19*
X533400Y151130D03*
X558800Y151130D03*
X584200Y151130D03*
D20*
X503301Y134747D02*
X487299Y134747D01*
X503301Y132969D02*
X503301Y136525D01*
X487299Y136525D02*
X487299Y132969D01*
X503301Y146319D02*
X503301Y149875D01*
X503301Y146319D02*
X503299Y146203D01*
X503293Y146086D01*
X503284Y145970D01*
X503271Y145855D01*
X503254Y145740D01*
X503233Y145625D01*
X503208Y145512D01*
X503180Y145399D01*
X503148Y145287D01*
X503112Y145176D01*
X503073Y145066D01*
X503030Y144958D01*
X502984Y144851D01*
X502934Y144746D01*
X502881Y144643D01*
X502825Y144541D01*
X502765Y144441D01*
X502702Y144343D01*
X502635Y144248D01*
X502566Y144154D01*
X502494Y144063D01*
X502419Y143974D01*
X502340Y143888D01*
X502259Y143805D01*
X502176Y143724D01*
X502090Y143645D01*
X502001Y143570D01*
X501910Y143498D01*
X501816Y143429D01*
X501721Y143362D01*
X501623Y143299D01*
X501523Y143239D01*
X501421Y143183D01*
X501318Y143130D01*
X501213Y143080D01*
X501106Y143034D01*
X500998Y142991D01*
X500888Y142952D01*
X500777Y142916D01*
X500665Y142884D01*
X500552Y142856D01*
X500439Y142831D01*
X500324Y142810D01*
X500209Y142793D01*
X500094Y142780D01*
X499978Y142771D01*
X499861Y142765D01*
X499745Y142763D01*
X490855Y142763D01*
X490739Y142765D01*
X490622Y142771D01*
X490506Y142780D01*
X490391Y142793D01*
X490276Y142810D01*
X490161Y142831D01*
X490048Y142856D01*
X489935Y142884D01*
X489823Y142916D01*
X489712Y142952D01*
X489602Y142991D01*
X489494Y143034D01*
X489387Y143080D01*
X489282Y143130D01*
X489179Y143183D01*
X489077Y143239D01*
X488977Y143299D01*
X488879Y143362D01*
X488784Y143429D01*
X488690Y143498D01*
X488599Y143570D01*
X488510Y143645D01*
X488424Y143724D01*
X488341Y143805D01*
X488260Y143888D01*
X488181Y143974D01*
X488106Y144063D01*
X488034Y144154D01*
X487965Y144248D01*
X487898Y144343D01*
X487835Y144441D01*
X487775Y144541D01*
X487719Y144643D01*
X487666Y144746D01*
X487616Y144851D01*
X487570Y144958D01*
X487527Y145066D01*
X487488Y145176D01*
X487452Y145287D01*
X487420Y145399D01*
X487392Y145512D01*
X487367Y145625D01*
X487346Y145740D01*
X487329Y145855D01*
X487316Y145970D01*
X487307Y146086D01*
X487301Y146203D01*
X487299Y146319D01*
X487299Y149875D01*
X490855Y155833D02*
X487299Y160278D01*
X503301Y160278D01*
X503301Y155833D02*
X503301Y164723D01*
M02*
